<svg width="200" height="200" viewBox="0 0 200 200" fill="none"
     xmlns="http://www.w3.org/2000/svg">

  <!-- Background Padding Area (Transparent) -->
  <rect width="200" height="200" fill="transparent"/>

  <!-- Scaled Group with Padding -->
  <g transform="translate(30,30) scale(1.6)">

    <path d="M74.1888 74.4753L21.4293 4.12651L49.6337 47.4801L16.6501 2.89771L46.2906 47.7745L12.6949 3.15371L42.4178 48.1201L9.90509 5.44491L37.98 48.5169L8.45721 9.34891L35.6492 50.5393C35.6963 50.6801 54.8131 79.3137 54.8131 79.3137C55.1427 79.8129 55.696 80.0817 56.2257 79.9921L73.5061 76.9073C74.5185 76.7281 74.8834 75.3969 74.1771 74.4753H74.1888Z"
          fill="#224D6A"/>

    <path d="M6.62082 81.2593L0.723345 75.2049C-0.206598 74.2577 -0.241914 72.6705 0.629172 71.6721L34.3896 32.8113C35.1901 31.8897 36.5085 31.7617 37.4502 32.5297L46.3141 39.8001C47.3029 40.6193 48.7155 40.4273 49.4924 39.3777L68.8093 13.3553C69.6098 12.2801 71.0576 12.1137 72.0464 12.9841L78.3559 18.5265C79.3447 19.3969 79.4977 20.9713 78.6973 22.0465L51.6583 58.4753C50.8814 59.5249 49.4688 59.7169 48.48 58.8977L38.8863 51.0257C37.9446 50.2577 36.638 50.3729 35.8258 51.3073L9.88151 81.1825C9.01043 82.1937 7.55078 82.2321 6.63261 81.2849L6.62082 81.2593Z"
          fill="#56A3A5"/>

    <path d="M83.3235 26.6545L87.0197 0.990519C87.1139 0.337719 86.5253 -0.174281 85.9603 0.0561187L63.6769 9.40012C63.1119 9.64332 62.9942 10.4497 63.4651 10.8721L82.0522 27.1921C82.523 27.6017 83.2293 27.3073 83.3235 26.6545Z"
          fill="#56A3A5"/>

  </g>

</svg>
