<svg width="368" height="300" viewBox="0 0 368 300" fill="none" xmlns="http://www.w3.org/2000/svg">
<g clip-path="url(#clip0_26_374)">
<path d="M367.944 189.992V196.752L188.161 300V293.239L367.944 189.992Z" fill="url(#paint0_linear_26_374)"/>
<path d="M367.944 189.992L188.161 293.239L0 184.377L179.783 81.1299L367.944 189.992Z" fill="url(#paint1_linear_26_374)"/>
<path d="M360.443 191.34L188.163 290.232L7.51123 185.71L179.778 86.8047L360.443 191.34Z" fill="url(#paint2_linear_26_374)"/>
<path d="M188.161 293.239V300L0 191.138V184.377L188.161 293.239Z" fill="url(#paint3_linear_26_374)"/>
<path d="M362.748 190L360.443 191.34L179.778 86.8047L7.5111 185.71L5.19507 184.372L179.778 84.1269L362.748 190Z" fill="url(#paint4_linear_26_374)"/>
<path opacity="0.3" d="M98.0118 176.687L90.4429 181.143L181.222 231.905L227.858 207.562L249.787 220.051H303.72L353.158 191.34L294.321 159.324L98.0118 176.687Z" fill="url(#paint5_linear_26_374)"/>
<path d="M227.859 70.4933V201.525L183.973 225.861V94.8297L227.859 70.4933Z" fill="#20284F"/>
<path d="M245.373 80.5494V211.581L227.858 201.525V70.4933L245.373 80.5494Z" fill="#20284F"/>
<path d="M245.373 98.4155V211.581L234.406 205.283V92.1172L245.373 98.4155Z" fill="#20284F"/>
<path d="M308.585 62.0102V175.177L245.374 211.581V98.4155L308.585 62.0102Z" fill="#20284F"/>
<path d="M98.0117 64.0214V177.189L122.17 191.065V77.8997L98.0117 64.0214Z" fill="#20284F"/>
<path d="M148.542 93.7893V206.955L183.973 225.861V112.694L148.542 93.7893Z" fill="#20284F"/>
<path d="M137.671 69.6531V182.819L122.17 191.065V77.8998L137.671 69.6531Z" fill="#20284F"/>
<path d="M137.67 69.6531L148.542 75.9233V189.426L137.67 182.819V69.6531Z" fill="#20284F"/>
<path d="M98.0117 45.6559L122.17 59.5342L137.671 51.2876L164.043 66.3717L148.542 75.4222L183.973 94.3286L227.858 69.9922L245.374 80.0483L308.585 43.6447L240.943 4.42434L212.558 20.7158L176.323 0L98.0117 45.6559Z" fill="url(#paint6_linear_26_374)"/>
<path d="M301.081 43.6347L297.546 45.6641L240.93 12.8496L212.566 29.1311L176.339 8.42852L109.049 47.667L105.514 45.636L176.339 4.33994L212.566 25.0442L240.93 8.76262L301.081 43.6347Z" fill="url(#paint7_linear_26_374)"/>
<path d="M297.546 45.6641L245.37 75.7116L227.89 65.6869L183.938 90.0613L159.904 77.2283L171.552 70.4288L168.018 68.4127L171.552 66.3402L137.734 46.9989L122.243 55.2438L109.049 47.6671L176.34 8.42853L212.567 29.1311L240.93 12.8496L297.546 45.6641Z" fill="url(#paint8_linear_26_374)"/>
<path d="M98.0117 176.687L122.17 190.564L137.671 182.319L164.043 197.403L148.542 206.454L183.973 225.36L227.858 201.024L245.374 211.08L308.585 174.676L240.943 135.456L212.558 151.747L176.323 131.032L98.0117 176.687Z" fill="url(#paint9_linear_26_374)"/>
<path d="M98.0117 45.6559V176.687L122.17 190.564V59.5342L98.0117 45.6559Z" fill="url(#paint10_linear_26_374)"/>
<path d="M148.542 75.4221V206.454L183.973 225.36V94.3285L148.542 75.4221Z" fill="url(#paint11_linear_26_374)"/>
<path d="M137.671 51.2876V182.319L122.17 190.564V59.5342L137.671 51.2876Z" fill="url(#paint12_linear_26_374)"/>
<path d="M164.042 66.3717L137.67 51.2876V182.319L148.542 188.925V75.4221L164.042 66.3717Z" fill="url(#paint13_linear_26_374)"/>
<path d="M227.859 69.9922V201.024L183.973 225.36V94.3285L227.859 69.9922Z" fill="url(#paint14_linear_26_374)"/>
<path d="M245.373 80.0483V211.08L227.858 201.024V69.9922L245.373 80.0483Z" fill="url(#paint15_linear_26_374)"/>
<path d="M308.585 43.6446V174.676L245.374 211.08V80.0483L308.585 43.6446Z" fill="url(#paint16_linear_26_374)"/>
<path d="M245.373 97.9143V211.08L234.406 204.783V91.616L245.373 97.9143Z" fill="url(#paint17_linear_26_374)"/>
<path d="M308.585 61.5107V174.676L245.374 211.08V97.9143L308.585 61.5107Z" fill="url(#paint18_linear_26_374)"/>
<path d="M171.552 66.3402V70.4288L159.904 77.2282L156.244 75.2815L171.552 66.3402Z" fill="url(#paint19_linear_26_374)"/>
<path d="M98.0117 63.5219V176.687L122.17 190.564V77.3986L98.0117 63.5219Z" fill="url(#paint20_linear_26_374)"/>
<path d="M148.542 93.2882V206.454L183.973 225.36V112.195L148.542 93.2882Z" fill="url(#paint21_linear_26_374)"/>
<path d="M137.671 69.152V182.319L122.17 190.564V77.3986L137.671 69.152Z" fill="url(#paint22_linear_26_374)"/>
<path d="M213.901 95.5971V208.764L183.973 225.36V112.195L213.901 95.5971Z" fill="url(#paint23_linear_26_374)"/>
<path d="M137.67 69.152L148.542 75.4221V188.925L137.67 182.319V69.152Z" fill="url(#paint24_linear_26_374)"/>
<path opacity="0.49" d="M234.406 91.616L245.373 97.9143L308.585 61.5107" stroke="#F2F2F2" stroke-width="2.71777" stroke-miterlimit="10"/>
<path opacity="0.49" d="M234.406 114.629L245.373 120.926L308.585 84.5222" stroke="#F2F2F2" stroke-width="2.71777" stroke-miterlimit="10"/>
<path opacity="0.49" d="M234.406 137.641L245.373 143.937L308.585 107.534" stroke="#F2F2F2" stroke-width="2.71777" stroke-miterlimit="10"/>
<path opacity="0.49" d="M234.406 160.654L245.373 166.951L308.585 130.547" stroke="#F2F2F2" stroke-width="2.71777" stroke-miterlimit="10"/>
<path opacity="0.49" d="M234.406 183.666L245.373 189.962L308.585 153.559" stroke="#F2F2F2" stroke-width="2.71777" stroke-miterlimit="10"/>
<path opacity="0.49" d="M259.008 90.0614V203.227" stroke="#F2F2F2" stroke-width="2.71777" stroke-miterlimit="10"/>
<path opacity="0.49" d="M198.937 103.895V217.062" stroke="#F2F2F2" stroke-width="2.71777" stroke-miterlimit="10"/>
<path opacity="0.49" d="M166.258 102.741V215.906" stroke="#F2F2F2" stroke-width="2.71777" stroke-miterlimit="10"/>
<path opacity="0.49" d="M109.049 70.4602V183.626" stroke="#F2F2F2" stroke-width="2.71777" stroke-miterlimit="10"/>
<path opacity="0.49" d="M278.123 79.6116V192.777" stroke="#F2F2F2" stroke-width="2.71777" stroke-miterlimit="10"/>
<path opacity="0.49" d="M297.237 69.1619V182.327" stroke="#F2F2F2" stroke-width="2.71777" stroke-miterlimit="10"/>
<path opacity="0.49" d="M148.542 93.2882L183.973 112.195L213.901 95.5971" stroke="#F2F2F2" stroke-width="2.71777" stroke-miterlimit="10"/>
<path opacity="0.49" d="M213.901 119.647L183.973 136.243L148.542 117.338" stroke="#F2F2F2" stroke-width="2.71777" stroke-miterlimit="10"/>
<path opacity="0.49" d="M213.901 140.916L183.973 157.513L148.542 138.607" stroke="#F2F2F2" stroke-width="2.71777" stroke-miterlimit="10"/>
<path opacity="0.49" d="M213.901 162.185L183.973 178.781L148.542 159.875" stroke="#F2F2F2" stroke-width="2.71777" stroke-miterlimit="10"/>
<path opacity="0.49" d="M213.901 183.454L183.973 200.05L148.542 181.143" stroke="#F2F2F2" stroke-width="2.71777" stroke-miterlimit="10"/>
<path opacity="0.49" d="M98.0117 63.5219L122.17 77.3986L137.671 69.152" stroke="#F2F2F2" stroke-width="2.71777" stroke-miterlimit="10"/>
<path opacity="0.49" d="M98.0117 82.4101L122.17 96.2885L137.671 88.0419" stroke="#F2F2F2" stroke-width="2.71777" stroke-miterlimit="10"/>
<path opacity="0.49" d="M98.0117 101.298L122.17 115.177L137.671 106.93" stroke="#F2F2F2" stroke-width="2.71777" stroke-miterlimit="10"/>
<path opacity="0.49" d="M98.0117 120.188L122.17 134.065L137.671 125.82" stroke="#F2F2F2" stroke-width="2.71777" stroke-miterlimit="10"/>
<path opacity="0.49" d="M98.0117 139.076L122.17 152.955L137.671 144.708" stroke="#F2F2F2" stroke-width="2.71777" stroke-miterlimit="10"/>
<path opacity="0.49" d="M98.0117 157.965L122.17 171.843L137.671 163.596" stroke="#F2F2F2" stroke-width="2.71777" stroke-miterlimit="10"/>
<path opacity="0.49" d="M148.542 75.4221L137.67 69.152" stroke="#F2F2F2" stroke-width="2.71777" stroke-miterlimit="10"/>
<path opacity="0.49" d="M148.542 94.3285L137.67 88.0584" stroke="#F2F2F2" stroke-width="2.71777" stroke-miterlimit="10"/>
<path opacity="0.49" d="M148.542 113.235L137.67 106.965" stroke="#F2F2F2" stroke-width="2.71777" stroke-miterlimit="10"/>
<path opacity="0.49" d="M148.542 132.14L137.67 125.871" stroke="#F2F2F2" stroke-width="2.71777" stroke-miterlimit="10"/>
<path opacity="0.49" d="M148.542 151.046L137.67 144.776" stroke="#F2F2F2" stroke-width="2.71777" stroke-miterlimit="10"/>
<path opacity="0.49" d="M148.542 169.952L137.67 163.682" stroke="#F2F2F2" stroke-width="2.71777" stroke-miterlimit="10"/>
<path opacity="0.5" d="M213.901 208.764L210.593 210.418V97.9143L213.901 95.5971V208.764Z" fill="url(#paint25_linear_26_374)"/>
<path opacity="0.5" d="M237.713 207.056L234.406 204.302V91.7963L237.713 93.8902V207.056Z" fill="url(#paint26_linear_26_374)"/>
<path opacity="0.2" d="M245.374 120.254L255.553 113.976V122.457L264.38 117.472V113.559L272.181 108.979V121.503L278.23 118.15V125.077L284.905 121.503V112.717L308.623 97.9143V174.114L245.374 211.86V120.254Z" fill="url(#paint27_linear_26_374)"/>
<path opacity="0.23" d="M208.774 137.318L203.248 140.859V169.428L200.641 171.016V177.374L191.343 182.721V176.137L183.973 180.382V225.97L208.774 211.928V137.318Z" fill="url(#paint28_linear_26_374)"/>
<path opacity="0.16" d="M161.304 105.155L151.123 98.8769V107.358L142.296 102.373V98.4601L134.495 93.882V106.404L128.448 103.052V109.978L121.771 106.404V97.6183L114.037 92.792V168.992L161.304 196.762V105.155Z" fill="url(#paint29_linear_26_374)"/>
<path d="M47.7 168.704L20.2983 184.355L81.2005 219.48L108.602 203.83V201.705L47.7 168.705V168.704ZM23.9404 184.355L47.6984 170.803L104.96 203.827L81.2022 217.38L23.9404 184.355Z" fill="url(#paint30_linear_26_374)"/>
<path d="M47.6983 170.803L103.041 202.779L81.2004 215.254L25.5925 183.181L47.6983 170.803Z" fill="#83CE67"/>
<path d="M47.7 166.577L20.2983 182.228L81.2005 217.353L108.602 201.704L47.7 166.578V166.577ZM23.9404 182.228L47.6984 168.676L104.96 201.7L81.2022 215.253L23.9404 182.228Z" fill="url(#paint31_linear_26_374)"/>
<path opacity="0.3" d="M46.8454 186.561C49.016 186.561 50.7755 185.563 50.7755 184.33C50.7755 183.098 49.016 182.099 46.8454 182.099C44.6749 182.099 42.9153 183.098 42.9153 184.33C42.9153 185.563 44.6749 186.561 46.8454 186.561Z" fill="url(#paint32_linear_26_374)"/>
<path d="M47.37 175.458H46.3204C46.2884 175.458 46.2625 175.484 46.2625 175.516V184.018C46.2625 184.05 46.2884 184.076 46.3204 184.076H47.37C47.402 184.076 47.4279 184.05 47.4279 184.018V175.516C47.4279 175.484 47.402 175.458 47.37 175.458Z" fill="#825737"/>
<path d="M46.564 180.146C46.4134 179.863 46.5227 179.509 46.8074 179.359L51.5421 176.863C51.8252 176.714 52.1795 176.823 52.3301 177.106C52.4808 177.389 52.3715 177.743 52.0868 177.893L47.3521 180.389C47.069 180.538 46.7147 180.429 46.564 180.146Z" fill="#825737"/>
<path d="M51.289 174.236C53.0218 171.783 52.436 168.391 49.9805 166.66C47.525 164.929 44.1298 165.514 42.397 167.967C40.6642 170.42 41.2501 173.813 43.7055 175.544C46.161 177.275 49.5563 176.69 51.289 174.236Z" fill="url(#paint33_linear_26_374)"/>
<path opacity="0.23" d="M49.3291 168.9C49.6016 168.243 49.2892 167.489 48.6311 167.217C47.9731 166.944 47.2187 167.256 46.9462 167.914C46.6736 168.571 46.9861 169.325 47.6441 169.597C48.3021 169.87 49.0565 169.557 49.3291 168.9Z" fill="url(#paint34_linear_26_374)"/>
<path opacity="0.23" d="M46.1995 175.043C46.6658 175.043 47.0438 174.666 47.0438 174.2C47.0438 173.734 46.6658 173.356 46.1995 173.356C45.7332 173.356 45.3552 173.734 45.3552 174.2C45.3552 174.666 45.7332 175.043 46.1995 175.043Z" fill="url(#paint35_linear_26_374)"/>
<path opacity="0.23" d="M44.6675 170.418C44.4703 170.615 44.1522 170.615 43.955 170.418C43.7578 170.221 43.7578 169.903 43.955 169.706C44.1522 169.509 44.4703 169.509 44.6675 169.706C44.8646 169.903 44.8646 170.221 44.6675 170.418Z" fill="url(#paint36_linear_26_374)"/>
<path opacity="0.23" d="M50.0696 172.748C49.8724 172.945 49.5543 172.945 49.3571 172.748C49.1599 172.551 49.1599 172.233 49.3571 172.036C49.5543 171.839 49.8724 171.839 50.0696 172.036C50.2667 172.233 50.2667 172.551 50.0696 172.748Z" fill="url(#paint37_linear_26_374)"/>
<path d="M55.3108 176.774C56.6577 174.868 56.2023 172.231 54.2937 170.885C52.385 169.54 49.7459 169.995 48.399 171.901C47.0521 173.808 47.5075 176.445 49.4161 177.791C51.3248 179.136 53.9639 178.681 55.3108 176.774Z" fill="url(#paint38_linear_26_374)"/>
<path opacity="0.23" d="M53.8629 172.242C53.8629 172.796 53.4143 173.244 52.8597 173.244C52.3051 173.244 51.8564 172.796 51.8564 172.242C51.8564 171.688 52.3051 171.239 52.8597 171.239C53.4143 171.239 53.8629 171.688 53.8629 172.242Z" fill="url(#paint39_linear_26_374)"/>
<path opacity="0.23" d="M52.0104 176.744C52.0104 177.106 51.7173 177.399 51.3548 177.399C50.9922 177.399 50.6992 177.106 50.6992 176.744C50.6992 176.381 50.9922 176.089 51.3548 176.089C51.7173 176.089 52.0104 176.381 52.0104 176.744Z" fill="url(#paint40_linear_26_374)"/>
<path opacity="0.23" d="M50.1648 173.803C50.0124 173.956 49.7638 173.956 49.6114 173.803C49.459 173.651 49.459 173.403 49.6114 173.251C49.7638 173.098 50.0124 173.098 50.1648 173.251C50.3172 173.403 50.3172 173.651 50.1648 173.803Z" fill="url(#paint41_linear_26_374)"/>
<path opacity="0.23" d="M54.3621 175.615C54.2096 175.767 53.9611 175.767 53.8087 175.615C53.6562 175.462 53.6562 175.214 53.8087 175.062C53.9611 174.909 54.2096 174.909 54.3621 175.062C54.5145 175.214 54.5145 175.462 54.3621 175.615Z" fill="url(#paint42_linear_26_374)"/>
<path opacity="0.3" d="M63.0079 195.369C65.514 195.369 67.5456 194.216 67.5456 192.794C67.5456 191.371 65.514 190.218 63.0079 190.218C60.5018 190.218 58.4702 191.371 58.4702 192.794C58.4702 194.216 60.5018 195.369 63.0079 195.369Z" fill="url(#paint43_linear_26_374)"/>
<path d="M63.6159 182.549H62.4024C62.3658 182.549 62.3362 182.579 62.3362 182.615V192.435C62.3362 192.471 62.3658 192.501 62.4024 192.501H63.6159C63.6524 192.501 63.6821 192.471 63.6821 192.435V182.615C63.6821 182.579 63.6524 182.549 63.6159 182.549Z" fill="#825737"/>
<path d="M62.6819 187.961C62.5081 187.633 62.6355 187.225 62.9617 187.053L68.4297 184.17C68.7575 183.998 69.1664 184.124 69.3403 184.451C69.5141 184.779 69.3866 185.187 69.0605 185.359L63.5924 188.242C63.2646 188.414 62.8557 188.288 62.6819 187.961Z" fill="#825737"/>
<path d="M68.3377 180.835C70.1763 177.894 69.2806 174.02 66.337 172.183C63.3933 170.346 59.5165 171.241 57.6778 174.182C55.8392 177.123 56.7349 180.996 59.6785 182.833C62.6222 184.67 66.499 183.775 68.3377 180.835Z" fill="url(#paint44_linear_26_374)"/>
<path opacity="0.23" d="M64.498 175.893C65.3209 175.893 65.9879 175.227 65.9879 174.405C65.9879 173.583 65.3209 172.916 64.498 172.916C63.6751 172.916 63.0081 173.583 63.0081 174.405C63.0081 175.227 63.6751 175.893 64.498 175.893Z" fill="url(#paint45_linear_26_374)"/>
<path opacity="0.23" d="M62.2615 182.069C62.8 182.069 63.2365 181.633 63.2365 181.095C63.2365 180.557 62.8 180.121 62.2615 180.121C61.7229 180.121 61.2864 180.557 61.2864 181.095C61.2864 181.633 61.7229 182.069 62.2615 182.069Z" fill="url(#paint46_linear_26_374)"/>
<path opacity="0.23" d="M60.4917 176.727C60.2649 176.954 59.8974 176.954 59.6706 176.727C59.4438 176.5 59.4438 176.133 59.6706 175.907C59.8974 175.68 60.2649 175.68 60.4917 175.907C60.7185 176.133 60.7185 176.5 60.4917 176.727Z" fill="url(#paint47_linear_26_374)"/>
<path opacity="0.23" d="M66.7295 179.418C66.5027 179.645 66.1352 179.645 65.9084 179.418C65.6816 179.191 65.6816 178.824 65.9084 178.598C66.1352 178.371 66.5027 178.371 66.7295 178.598C66.9563 178.824 66.9563 179.191 66.7295 179.418Z" fill="url(#paint48_linear_26_374)"/>
<path d="M72.5915 184.324C74.2853 182.227 73.9567 179.155 71.8576 177.463C69.7585 175.771 66.6839 176.099 64.9901 178.196C63.2964 180.293 63.625 183.365 65.724 185.057C67.8231 186.75 70.8978 186.421 72.5915 184.324Z" fill="url(#paint49_linear_26_374)"/>
<path opacity="0.23" d="M71.1119 178.834C71.1119 179.473 70.5937 179.992 69.953 179.992C69.3124 179.992 68.7942 179.474 68.7942 178.834C68.7942 178.194 69.3124 177.676 69.953 177.676C70.5937 177.676 71.1119 178.194 71.1119 178.834Z" fill="url(#paint50_linear_26_374)"/>
<path opacity="0.23" d="M68.2163 184.789C68.6341 184.789 68.9728 184.45 68.9728 184.033C68.9728 183.615 68.6341 183.277 68.2163 183.277C67.7984 183.277 67.4597 183.615 67.4597 184.033C67.4597 184.45 67.7984 184.789 68.2163 184.789Z" fill="url(#paint51_linear_26_374)"/>
<path opacity="0.23" d="M66.8416 180.638C66.666 180.815 66.3793 180.815 66.2021 180.638C66.0248 180.461 66.0248 180.176 66.2021 179.999C66.3777 179.822 66.6643 179.822 66.8416 179.999C67.0189 180.176 67.0189 180.461 66.8416 180.638Z" fill="url(#paint52_linear_26_374)"/>
<path opacity="0.23" d="M71.6885 182.73C71.5129 182.907 71.2263 182.907 71.049 182.73C70.8717 182.553 70.8717 182.268 71.049 182.091C71.2246 181.914 71.5113 181.914 71.6885 182.091C71.8658 182.268 71.8658 182.553 71.6885 182.73Z" fill="url(#paint53_linear_26_374)"/>
<path opacity="0.3" d="M80.0608 203.888C82.4599 203.888 84.4048 202.784 84.4048 201.422C84.4048 200.06 82.4599 198.956 80.0608 198.956C77.6617 198.956 75.7168 200.06 75.7168 201.422C75.7168 202.784 77.6617 203.888 80.0608 203.888Z" fill="url(#paint54_linear_26_374)"/>
<path d="M80.6404 191.614H79.4816C79.4459 191.614 79.417 191.643 79.417 191.679V201.077C79.417 201.112 79.4459 201.141 79.4816 201.141H80.6404C80.6761 201.141 80.705 201.112 80.705 201.077V191.679C80.705 191.643 80.6761 191.614 80.6404 191.614Z" fill="#825737"/>
<path d="M79.7483 196.796C79.5828 196.484 79.7036 196.092 80.0165 195.926L85.2512 193.166C85.564 193 85.9564 193.121 86.1219 193.434C86.2875 193.746 86.1666 194.138 85.8537 194.304L80.6191 197.064C80.3062 197.229 79.9138 197.109 79.7483 196.796Z" fill="#825737"/>
<path d="M85.6581 189.011C86.8799 185.924 85.3649 182.431 82.2741 181.21C79.1834 179.989 75.6873 181.503 74.4655 184.591C73.2437 187.679 74.7587 191.172 77.8495 192.392C80.9402 193.613 84.4362 192.099 85.6581 189.011Z" fill="url(#paint55_linear_26_374)"/>
<path opacity="0.23" d="M82.9151 183.819C82.9151 184.606 82.2761 185.245 81.4881 185.245C80.7001 185.245 80.061 184.606 80.061 183.819C80.061 183.032 80.7001 182.393 81.4881 182.393C82.2761 182.393 82.9151 183.032 82.9151 183.819Z" fill="url(#paint56_linear_26_374)"/>
<path opacity="0.23" d="M80.2795 190.223C80.2795 190.738 79.8623 191.156 79.3458 191.156C78.8293 191.156 78.4121 190.739 78.4121 190.223C78.4121 189.707 78.8293 189.291 79.3458 189.291C79.8623 189.291 80.2795 189.707 80.2795 190.223Z" fill="url(#paint57_linear_26_374)"/>
<path opacity="0.23" d="M77.6521 186.042C77.4353 186.259 77.0826 186.259 76.8658 186.042C76.6489 185.825 76.6489 185.473 76.8658 185.256C77.0826 185.04 77.4353 185.04 77.6521 185.256C77.869 185.473 77.869 185.825 77.6521 186.042Z" fill="url(#paint58_linear_26_374)"/>
<path opacity="0.23" d="M83.6238 188.617C83.4069 188.834 83.0543 188.834 82.8375 188.617C82.6206 188.401 82.6206 188.048 82.8375 187.832C83.0543 187.615 83.4069 187.615 83.6238 187.832C83.8407 188.048 83.8407 188.401 83.6238 188.617Z" fill="url(#paint59_linear_26_374)"/>
<path d="M89.8324 192.351C90.9309 190.017 89.9273 187.235 87.5906 186.137C85.254 185.04 82.4692 186.042 81.3707 188.377C80.2721 190.711 81.2758 193.493 83.6124 194.591C85.9491 195.689 88.7338 194.686 89.8324 192.351Z" fill="url(#paint60_linear_26_374)"/>
<path opacity="0.23" d="M87.8184 188.058C87.8184 188.67 87.3218 189.166 86.7093 189.166C86.0967 189.166 85.6001 188.67 85.6001 188.058C85.6001 187.446 86.0967 186.95 86.7093 186.95C87.3218 186.95 87.8184 187.446 87.8184 188.058Z" fill="url(#paint61_linear_26_374)"/>
<path opacity="0.23" d="M85.7708 193.035C85.7708 193.435 85.4463 193.76 85.0457 193.76C84.645 193.76 84.3206 193.435 84.3206 193.035C84.3206 192.635 84.645 192.311 85.0457 192.311C85.4463 192.311 85.7708 192.635 85.7708 193.035Z" fill="url(#paint62_linear_26_374)"/>
<path opacity="0.23" d="M83.7301 189.786C83.5611 189.955 83.2877 189.955 83.1187 189.786C82.9497 189.617 82.9497 189.344 83.1187 189.175C83.2877 189.006 83.5611 189.006 83.7301 189.175C83.8991 189.344 83.8991 189.617 83.7301 189.786Z" fill="url(#paint63_linear_26_374)"/>
<path opacity="0.23" d="M88.3705 191.789C88.2015 191.957 87.9281 191.957 87.7591 191.789C87.5901 191.62 87.5901 191.347 87.7591 191.178C87.9281 191.009 88.2015 191.009 88.3705 191.178C88.5395 191.347 88.5395 191.62 88.3705 191.789Z" fill="url(#paint64_linear_26_374)"/>
<path d="M157.323 235.175L129.921 250.826L190.823 285.951L218.225 270.301V268.176L157.323 235.176V235.175ZM133.563 250.826L157.321 237.274L214.583 270.298L190.825 283.851L133.563 250.826Z" fill="url(#paint65_linear_26_374)"/>
<path d="M157.322 237.274L212.665 269.25L190.824 281.725L135.216 249.653L157.322 237.274Z" fill="#83CE67"/>
<path d="M157.323 233.048L129.921 248.699L190.823 283.824L218.225 268.175L157.323 233.049V233.048ZM133.563 248.699L157.321 235.147L214.583 268.171L190.825 281.724L133.563 248.699Z" fill="url(#paint66_linear_26_374)"/>
<path opacity="0.3" d="M156.469 253.033C158.639 253.033 160.399 252.034 160.399 250.801C160.399 249.569 158.639 248.57 156.469 248.57C154.298 248.57 152.539 249.569 152.539 250.801C152.539 252.034 154.298 253.033 156.469 253.033Z" fill="url(#paint67_linear_26_374)"/>
<path d="M156.994 241.929H155.944C155.912 241.929 155.886 241.955 155.886 241.987V250.489C155.886 250.521 155.912 250.547 155.944 250.547H156.994C157.026 250.547 157.052 250.521 157.052 250.489V241.987C157.052 241.955 157.026 241.929 156.994 241.929Z" fill="#825737"/>
<path d="M156.187 246.617C156.037 246.334 156.146 245.98 156.431 245.829L161.165 243.334C161.448 243.185 161.803 243.294 161.953 243.577C162.104 243.86 161.995 244.214 161.71 244.364L156.975 246.86C156.692 247.009 156.338 246.9 156.187 246.617Z" fill="#825737"/>
<path d="M160.891 240.712C162.643 238.273 162.085 234.876 159.643 233.125C157.202 231.375 153.802 231.933 152.05 234.372C150.297 236.811 150.856 240.208 153.297 241.959C155.739 243.709 159.138 243.151 160.891 240.712Z" fill="url(#paint68_linear_26_374)"/>
<path opacity="0.23" d="M158.955 235.388C159.228 234.731 158.916 233.977 158.259 233.704C157.601 233.431 156.846 233.743 156.573 234.4C156.3 235.057 156.611 235.811 157.269 236.084C157.927 236.357 158.682 236.046 158.955 235.388Z" fill="url(#paint69_linear_26_374)"/>
<path opacity="0.23" d="M156.666 240.671C156.666 241.137 156.289 241.514 155.822 241.514C155.355 241.514 154.978 241.137 154.978 240.671C154.978 240.204 155.355 239.827 155.822 239.827C156.289 239.827 156.666 240.204 156.666 240.671Z" fill="url(#paint70_linear_26_374)"/>
<path opacity="0.23" d="M154.291 236.889C154.094 237.086 153.776 237.086 153.579 236.889C153.381 236.692 153.381 236.374 153.579 236.177C153.776 235.98 154.094 235.98 154.291 236.177C154.488 236.374 154.488 236.692 154.291 236.889Z" fill="url(#paint71_linear_26_374)"/>
<path opacity="0.23" d="M159.693 239.219C159.495 239.416 159.177 239.416 158.98 239.219C158.783 239.022 158.783 238.705 158.98 238.508C159.177 238.311 159.495 238.311 159.693 238.508C159.89 238.705 159.89 239.022 159.693 239.219Z" fill="url(#paint72_linear_26_374)"/>
<path d="M164.701 243.539C166.215 241.761 165.999 239.094 164.22 237.582C162.441 236.07 159.771 236.285 158.258 238.062C156.744 239.84 156.959 242.507 158.738 244.019C160.518 245.531 163.187 245.316 164.701 243.539Z" fill="url(#paint73_linear_26_374)"/>
<path opacity="0.23" d="M163.486 238.713C163.486 239.267 163.037 239.715 162.483 239.715C161.928 239.715 161.479 239.267 161.479 238.713C161.479 238.158 161.928 237.71 162.483 237.71C163.037 237.71 163.486 238.158 163.486 238.713Z" fill="url(#paint74_linear_26_374)"/>
<path opacity="0.23" d="M161.634 243.215C161.634 243.577 161.341 243.87 160.978 243.87C160.616 243.87 160.323 243.577 160.323 243.215C160.323 242.852 160.616 242.56 160.978 242.56C161.341 242.56 161.634 242.852 161.634 243.215Z" fill="url(#paint75_linear_26_374)"/>
<path opacity="0.23" d="M159.788 240.274C159.636 240.427 159.387 240.427 159.235 240.274C159.082 240.122 159.082 239.874 159.235 239.722C159.387 239.569 159.636 239.569 159.788 239.722C159.941 239.874 159.941 240.122 159.788 240.274Z" fill="url(#paint76_linear_26_374)"/>
<path opacity="0.23" d="M163.985 242.087C163.833 242.239 163.584 242.239 163.432 242.087C163.28 241.935 163.28 241.687 163.432 241.534C163.584 241.382 163.833 241.382 163.985 241.534C164.138 241.687 164.138 241.935 163.985 242.087Z" fill="url(#paint77_linear_26_374)"/>
<path opacity="0.3" d="M172.631 261.84C175.138 261.84 177.169 260.687 177.169 259.265C177.169 257.842 175.138 256.689 172.631 256.689C170.125 256.689 168.094 257.842 168.094 259.265C168.094 260.687 170.125 261.84 172.631 261.84Z" fill="url(#paint78_linear_26_374)"/>
<path d="M173.239 249.02H172.025C171.989 249.02 171.959 249.05 171.959 249.086V258.906C171.959 258.942 171.989 258.972 172.025 258.972H173.239C173.275 258.972 173.305 258.942 173.305 258.906V249.086C173.305 249.05 173.275 249.02 173.239 249.02Z" fill="#825737"/>
<path d="M172.305 254.433C172.131 254.106 172.259 253.697 172.585 253.525L178.053 250.643C178.381 250.471 178.79 250.596 178.964 250.924C179.137 251.251 179.01 251.66 178.684 251.832L173.216 254.715C172.888 254.887 172.479 254.761 172.305 254.433Z" fill="#825737"/>
<path d="M177.94 247.321C179.796 244.391 178.924 240.512 175.991 238.658C173.058 236.804 169.176 237.676 167.32 240.606C165.464 243.536 166.337 247.414 169.269 249.268C172.202 251.123 176.084 250.251 177.94 247.321Z" fill="url(#paint79_linear_26_374)"/>
<path opacity="0.23" d="M175.613 240.878C175.613 241.7 174.946 242.366 174.123 242.366C173.3 242.366 172.633 241.7 172.633 240.878C172.633 240.056 173.3 239.389 174.123 239.389C174.946 239.389 175.613 240.056 175.613 240.878Z" fill="url(#paint80_linear_26_374)"/>
<path opacity="0.23" d="M172.86 247.566C172.86 248.104 172.423 248.54 171.885 248.54C171.347 248.54 170.91 248.104 170.91 247.566C170.91 247.029 171.347 246.592 171.885 246.592C172.423 246.592 172.86 247.029 172.86 247.566Z" fill="url(#paint81_linear_26_374)"/>
<path opacity="0.23" d="M170.115 243.198C169.888 243.425 169.521 243.425 169.294 243.198C169.067 242.971 169.067 242.604 169.294 242.378C169.521 242.151 169.888 242.151 170.115 242.378C170.342 242.604 170.342 242.971 170.115 243.198Z" fill="url(#paint82_linear_26_374)"/>
<path opacity="0.23" d="M176.353 245.889C176.126 246.116 175.758 246.116 175.532 245.889C175.305 245.663 175.305 245.295 175.532 245.069C175.758 244.842 176.126 244.842 176.353 245.069C176.58 245.295 176.58 245.663 176.353 245.889Z" fill="url(#paint83_linear_26_374)"/>
<path d="M182.596 250.232C183.992 247.927 183.253 244.927 180.945 243.532C178.637 242.137 175.635 242.876 174.239 245.182C172.843 247.487 173.582 250.487 175.89 251.882C178.197 253.276 181.2 252.538 182.596 250.232Z" fill="url(#paint84_linear_26_374)"/>
<path opacity="0.23" d="M180.735 245.305C180.735 245.944 180.217 246.463 179.576 246.463C178.935 246.463 178.417 245.945 178.417 245.305C178.417 244.665 178.935 244.147 179.576 244.147C180.217 244.147 180.735 244.665 180.735 245.305Z" fill="url(#paint85_linear_26_374)"/>
<path opacity="0.23" d="M177.84 251.26C178.257 251.26 178.596 250.921 178.596 250.504C178.596 250.086 178.257 249.748 177.84 249.748C177.422 249.748 177.083 250.086 177.083 250.504C177.083 250.921 177.422 251.26 177.84 251.26Z" fill="url(#paint86_linear_26_374)"/>
<path opacity="0.23" d="M176.464 247.109C176.289 247.284 176.002 247.284 175.825 247.109C175.649 246.932 175.647 246.647 175.825 246.47C176 246.293 176.287 246.293 176.464 246.47C176.64 246.647 176.642 246.932 176.464 247.109Z" fill="url(#paint87_linear_26_374)"/>
<path opacity="0.23" d="M181.312 249.201C181.136 249.378 180.85 249.378 180.672 249.201C180.495 249.024 180.495 248.739 180.672 248.562C180.848 248.385 181.135 248.385 181.312 248.562C181.487 248.737 181.489 249.024 181.312 249.201Z" fill="url(#paint88_linear_26_374)"/>
<path opacity="0.3" d="M189.684 270.361C192.083 270.361 194.028 269.257 194.028 267.895C194.028 266.533 192.083 265.429 189.684 265.429C187.285 265.429 185.34 266.533 185.34 267.895C185.34 269.257 187.285 270.361 189.684 270.361Z" fill="url(#paint89_linear_26_374)"/>
<path d="M190.264 258.087H189.105C189.069 258.087 189.04 258.116 189.04 258.152V267.549C189.04 267.585 189.069 267.614 189.105 267.614H190.264C190.299 267.614 190.328 267.585 190.328 267.549V258.152C190.328 258.116 190.299 258.087 190.264 258.087Z" fill="#825737"/>
<path d="M189.371 263.269C189.206 262.956 189.327 262.564 189.64 262.399L194.874 259.638C195.187 259.473 195.579 259.594 195.745 259.906C195.911 260.219 195.79 260.611 195.477 260.776L190.242 263.537C189.929 263.702 189.537 263.581 189.371 263.269Z" fill="#825737"/>
<path d="M195.421 255.083C196.426 251.918 194.674 248.538 191.506 247.533C188.338 246.529 184.955 248.28 183.949 251.445C182.944 254.61 184.697 257.99 187.865 258.994C191.032 259.999 194.415 258.248 195.421 255.083Z" fill="url(#paint90_linear_26_374)"/>
<path opacity="0.23" d="M191.111 251.716C191.899 251.716 192.538 251.078 192.538 250.29C192.538 249.503 191.899 248.864 191.111 248.864C190.323 248.864 189.684 249.503 189.684 250.29C189.684 251.078 190.323 251.716 191.111 251.716Z" fill="url(#paint91_linear_26_374)"/>
<path opacity="0.23" d="M189.903 256.694C189.903 257.209 189.485 257.627 188.969 257.627C188.452 257.627 188.035 257.21 188.035 256.694C188.035 256.178 188.452 255.761 188.969 255.761C189.485 255.761 189.903 256.178 189.903 256.694Z" fill="url(#paint92_linear_26_374)"/>
<path opacity="0.23" d="M187.275 252.513C187.059 252.73 186.706 252.73 186.489 252.513C186.272 252.296 186.272 251.944 186.489 251.727C186.706 251.511 187.059 251.511 187.275 251.727C187.492 251.944 187.492 252.296 187.275 252.513Z" fill="url(#paint93_linear_26_374)"/>
<path opacity="0.23" d="M193.247 255.09C193.03 255.307 192.677 255.307 192.46 255.09C192.243 254.873 192.243 254.521 192.46 254.304C192.677 254.088 193.03 254.088 193.247 254.304C193.463 254.521 193.463 254.873 193.247 255.09Z" fill="url(#paint94_linear_26_374)"/>
<path d="M199.573 258.59C200.53 256.194 199.363 253.476 196.965 252.52C194.567 251.563 191.847 252.729 190.889 255.125C189.932 257.521 191.099 260.238 193.497 261.195C195.895 262.152 198.615 260.985 199.573 258.59Z" fill="url(#paint95_linear_26_374)"/>
<path opacity="0.23" d="M197.442 254.529C197.442 255.141 196.945 255.638 196.332 255.638C195.72 255.638 195.223 255.141 195.223 254.529C195.223 253.917 195.72 253.421 196.332 253.421C196.945 253.421 197.442 253.917 197.442 254.529Z" fill="url(#paint96_linear_26_374)"/>
<path opacity="0.23" d="M195.394 259.506C195.394 259.906 195.069 260.23 194.669 260.23C194.268 260.23 193.944 259.906 193.944 259.506C193.944 259.106 194.268 258.782 194.669 258.782C195.069 258.782 195.394 259.106 195.394 259.506Z" fill="url(#paint97_linear_26_374)"/>
<path opacity="0.23" d="M193.353 256.257C193.184 256.426 192.911 256.426 192.742 256.257C192.573 256.088 192.573 255.815 192.742 255.646C192.911 255.477 193.184 255.477 193.353 255.646C193.522 255.815 193.522 256.088 193.353 256.257Z" fill="url(#paint98_linear_26_374)"/>
<path opacity="0.23" d="M197.994 258.26C197.825 258.428 197.551 258.428 197.382 258.26C197.213 258.091 197.213 257.818 197.382 257.649C197.551 257.48 197.825 257.48 197.994 257.649C198.163 257.818 198.163 258.091 197.994 258.26Z" fill="url(#paint99_linear_26_374)"/>
<path d="M264.471 211.657V213.782L291.873 229.432L352.775 194.307L325.374 178.656L264.471 211.655V211.657ZM291.871 227.335L268.114 213.782L325.375 180.758L349.133 194.31L291.871 227.335Z" fill="url(#paint100_linear_26_374)"/>
<path d="M325.374 180.758L270.031 212.734L291.871 225.21L347.481 193.136L325.374 180.758Z" fill="#83CE67"/>
<path d="M264.471 211.657L291.873 227.307L352.775 192.182L325.374 176.53L264.471 211.655V211.657ZM291.871 225.208L268.114 211.655L325.375 178.631L349.133 192.183L291.871 225.208Z" fill="url(#paint101_linear_26_374)"/>
<path opacity="0.3" d="M326.226 196.517C328.397 196.517 330.156 195.518 330.156 194.286C330.156 193.053 328.397 192.054 326.226 192.054C324.055 192.054 322.296 193.053 322.296 194.286C322.296 195.518 324.055 196.517 326.226 196.517Z" fill="url(#paint102_linear_26_374)"/>
<path d="M325.701 194.031H326.751C326.783 194.031 326.809 194.005 326.809 193.973V185.472C326.809 185.44 326.783 185.414 326.751 185.414H325.701C325.669 185.414 325.643 185.44 325.643 185.472V193.973C325.643 194.005 325.669 194.031 325.701 194.031Z" fill="#825737"/>
<path d="M326.507 190.101C326.658 189.818 326.549 189.464 326.264 189.314L321.529 186.818C321.246 186.669 320.892 186.778 320.741 187.061C320.591 187.344 320.7 187.698 320.985 187.848L325.719 190.344C326.002 190.493 326.357 190.384 326.507 190.101Z" fill="#825737"/>
<path d="M320.783 181.049C320.783 184.052 323.22 186.485 326.224 186.485C329.229 186.485 331.666 184.051 331.666 181.049C331.666 178.045 329.229 175.612 326.224 175.612C323.218 175.612 320.783 178.047 320.783 181.049Z" fill="url(#paint103_linear_26_374)"/>
<path opacity="0.23" d="M325.147 179.62C325.85 179.506 326.327 178.844 326.213 178.142C326.099 177.439 325.436 176.962 324.733 177.076C324.03 177.19 323.553 177.852 323.667 178.555C323.781 179.257 324.444 179.734 325.147 179.62Z" fill="url(#paint104_linear_26_374)"/>
<path opacity="0.23" d="M326.871 184.999C327.338 184.999 327.716 184.621 327.716 184.155C327.716 183.689 327.338 183.311 326.871 183.311C326.405 183.311 326.027 183.689 326.027 184.155C326.027 184.621 326.405 184.999 326.871 184.999Z" fill="url(#paint105_linear_26_374)"/>
<path opacity="0.23" d="M328.405 180.373C328.602 180.57 328.92 180.57 329.117 180.373C329.314 180.176 329.314 179.858 329.117 179.661C328.92 179.464 328.602 179.464 328.405 179.661C328.208 179.858 328.208 180.176 328.405 180.373Z" fill="url(#paint106_linear_26_374)"/>
<path opacity="0.23" d="M323.003 182.704C323.2 182.901 323.518 182.901 323.716 182.704C323.913 182.507 323.913 182.189 323.716 181.992C323.518 181.795 323.2 181.795 323.003 181.992C322.806 182.189 322.806 182.507 323.003 182.704Z" fill="url(#paint107_linear_26_374)"/>
<path d="M323.233 188.029C325.286 186.915 326.047 184.35 324.932 182.298C323.817 180.247 321.249 179.488 319.196 180.601C317.144 181.715 316.383 184.28 317.498 186.331C318.612 188.382 321.18 189.142 323.233 188.029Z" fill="url(#paint108_linear_26_374)"/>
<path opacity="0.23" d="M319.208 182.197C319.208 182.751 319.657 183.199 320.212 183.199C320.766 183.199 321.215 182.751 321.215 182.197C321.215 181.643 320.766 181.194 320.212 181.194C319.657 181.194 319.208 181.643 319.208 182.197Z" fill="url(#paint109_linear_26_374)"/>
<path opacity="0.23" d="M321.061 186.699C321.061 187.061 321.354 187.354 321.717 187.354C322.079 187.354 322.372 187.061 322.372 186.699C322.372 186.337 322.079 186.044 321.717 186.044C321.354 186.044 321.061 186.337 321.061 186.699Z" fill="url(#paint110_linear_26_374)"/>
<path opacity="0.23" d="M322.907 183.759C323.059 183.911 323.308 183.911 323.46 183.759C323.613 183.606 323.613 183.358 323.46 183.206C323.308 183.053 323.059 183.053 322.907 183.206C322.754 183.358 322.754 183.606 322.907 183.759Z" fill="url(#paint111_linear_26_374)"/>
<path opacity="0.23" d="M318.711 185.57C318.863 185.722 319.112 185.722 319.264 185.57C319.417 185.417 319.417 185.169 319.264 185.017C319.112 184.865 318.863 184.865 318.711 185.017C318.558 185.169 318.558 185.417 318.711 185.57Z" fill="url(#paint112_linear_26_374)"/>
<path opacity="0.3" d="M310.064 205.324C312.57 205.324 314.602 204.171 314.602 202.749C314.602 201.327 312.57 200.174 310.064 200.174C307.558 200.174 305.526 201.327 305.526 202.749C305.526 204.171 307.558 205.324 310.064 205.324Z" fill="url(#paint113_linear_26_374)"/>
<path d="M309.458 202.456H310.671C310.708 202.456 310.738 202.426 310.738 202.39V192.57C310.738 192.534 310.708 192.504 310.671 192.504H309.458C309.421 192.504 309.392 192.534 309.392 192.57V202.39C309.392 202.426 309.421 202.456 309.458 202.456Z" fill="#825737"/>
<path d="M310.39 197.916C310.563 197.588 310.436 197.18 310.11 197.008L304.642 194.125C304.314 193.953 303.905 194.079 303.731 194.406C303.557 194.734 303.685 195.142 304.011 195.314L309.479 198.197C309.807 198.369 310.216 198.243 310.39 197.916Z" fill="#825737"/>
<path d="M312.942 193.059C316.027 191.47 317.238 187.683 315.647 184.601C314.056 181.519 310.266 180.309 307.181 181.899C304.097 183.488 302.886 187.275 304.477 190.356C306.067 193.438 309.857 194.648 312.942 193.059Z" fill="url(#paint114_linear_26_374)"/>
<path opacity="0.23" d="M308.574 185.849C309.397 185.849 310.064 185.182 310.064 184.36C310.064 183.538 309.397 182.872 308.574 182.872C307.751 182.872 307.084 183.538 307.084 184.36C307.084 185.182 307.751 185.849 308.574 185.849Z" fill="url(#paint115_linear_26_374)"/>
<path opacity="0.23" d="M310.81 192.025C311.349 192.025 311.785 191.588 311.785 191.05C311.785 190.512 311.349 190.076 310.81 190.076C310.272 190.076 309.835 190.512 309.835 191.05C309.835 191.588 310.272 192.025 310.81 192.025Z" fill="url(#paint116_linear_26_374)"/>
<path opacity="0.23" d="M312.58 186.682C312.807 186.909 313.174 186.909 313.401 186.682C313.628 186.456 313.628 186.089 313.401 185.862C313.174 185.635 312.807 185.635 312.58 185.862C312.353 186.089 312.353 186.456 312.58 186.682Z" fill="url(#paint117_linear_26_374)"/>
<path opacity="0.23" d="M306.342 189.373C306.569 189.6 306.937 189.6 307.163 189.373C307.39 189.147 307.39 188.78 307.163 188.553C306.937 188.326 306.569 188.326 306.342 188.553C306.115 188.78 306.115 189.147 306.342 189.373Z" fill="url(#paint118_linear_26_374)"/>
<path d="M305.967 195.767C308.498 194.836 309.794 192.031 308.862 189.502C307.929 186.973 305.122 185.679 302.591 186.61C300.06 187.541 298.764 190.346 299.696 192.875C300.628 195.403 303.436 196.698 305.967 195.767Z" fill="url(#paint119_linear_26_374)"/>
<path opacity="0.23" d="M301.96 188.789C301.96 189.428 302.478 189.947 303.119 189.947C303.759 189.947 304.277 189.429 304.277 188.789C304.277 188.151 303.759 187.632 303.119 187.632C302.478 187.632 301.96 188.149 301.96 188.789Z" fill="url(#paint120_linear_26_374)"/>
<path opacity="0.23" d="M304.856 194.744C305.274 194.744 305.612 194.405 305.612 193.988C305.612 193.57 305.274 193.232 304.856 193.232C304.438 193.232 304.099 193.57 304.099 193.988C304.099 194.405 304.438 194.744 304.856 194.744Z" fill="url(#paint121_linear_26_374)"/>
<path opacity="0.23" d="M306.231 190.593C306.407 190.77 306.693 190.77 306.871 190.593C307.048 190.416 307.048 190.131 306.871 189.954C306.695 189.777 306.408 189.777 306.231 189.954C306.054 190.131 306.054 190.416 306.231 190.593Z" fill="url(#paint122_linear_26_374)"/>
<path opacity="0.23" d="M301.384 192.685C301.56 192.861 301.847 192.861 302.024 192.685C302.201 192.508 302.201 192.223 302.024 192.046C301.848 191.869 301.562 191.869 301.384 192.046C301.209 192.223 301.207 192.508 301.384 192.685Z" fill="url(#paint123_linear_26_374)"/>
<path opacity="0.3" d="M293.011 213.844C295.41 213.844 297.355 212.739 297.355 211.377C297.355 210.016 295.41 208.911 293.011 208.911C290.611 208.911 288.667 210.016 288.667 211.377C288.667 212.739 290.611 213.844 293.011 213.844Z" fill="url(#paint124_linear_26_374)"/>
<path d="M292.434 211.095H293.593C293.629 211.095 293.658 211.066 293.658 211.03V201.632C293.658 201.597 293.629 201.568 293.593 201.568H292.434C292.399 201.568 292.37 201.597 292.37 201.632V211.03C292.37 211.066 292.399 211.095 292.434 211.095Z" fill="#825737"/>
<path d="M293.324 206.751C293.489 206.439 293.368 206.047 293.055 205.881L287.821 203.121C287.508 202.956 287.116 203.076 286.95 203.389C286.784 203.701 286.905 204.093 287.218 204.259L292.453 207.019C292.766 207.185 293.158 207.064 293.324 206.751Z" fill="#825737"/>
<path d="M295.225 202.36C298.314 201.135 299.824 197.64 298.598 194.554C297.372 191.468 293.873 189.959 290.784 191.184C287.695 192.409 286.185 195.904 287.411 198.99C288.637 202.076 292.136 203.585 295.225 202.36Z" fill="url(#paint125_linear_26_374)"/>
<path opacity="0.23" d="M290.158 193.774C290.158 194.562 290.797 195.2 291.585 195.2C292.373 195.2 293.012 194.562 293.012 193.774C293.012 192.987 292.373 192.349 291.585 192.349C290.797 192.349 290.158 192.987 290.158 193.774Z" fill="url(#paint126_linear_26_374)"/>
<path opacity="0.23" d="M292.792 200.179C292.792 200.693 293.209 201.111 293.726 201.111C294.242 201.111 294.66 200.695 294.66 200.179C294.66 199.662 294.242 199.246 293.726 199.246C293.209 199.246 292.792 199.662 292.792 200.179Z" fill="url(#paint127_linear_26_374)"/>
<path opacity="0.23" d="M295.419 195.997C295.636 196.214 295.989 196.214 296.206 195.997C296.422 195.781 296.422 195.428 296.206 195.212C295.989 194.995 295.636 194.995 295.419 195.212C295.202 195.428 295.202 195.781 295.419 195.997Z" fill="url(#paint128_linear_26_374)"/>
<path opacity="0.23" d="M289.448 198.573C289.665 198.789 290.018 198.789 290.234 198.573C290.451 198.356 290.451 198.004 290.234 197.787C290.018 197.57 289.665 197.57 289.448 197.787C289.231 198.004 289.231 198.356 289.448 198.573Z" fill="url(#paint129_linear_26_374)"/>
<path d="M289.743 204.421C291.999 203.166 292.81 200.32 291.553 198.066C290.297 195.811 287.449 195.001 285.192 196.257C282.936 197.512 282.125 200.357 283.381 202.612C284.638 204.866 287.486 205.676 289.743 204.421Z" fill="url(#paint130_linear_26_374)"/>
<path opacity="0.23" d="M285.253 198.014C285.253 198.626 285.749 199.122 286.362 199.122C286.974 199.122 287.471 198.626 287.471 198.014C287.471 197.402 286.974 196.905 286.362 196.905C285.749 196.905 285.253 197.402 285.253 198.014Z" fill="url(#paint131_linear_26_374)"/>
<path opacity="0.23" d="M287.301 202.99C287.301 203.391 287.626 203.715 288.026 203.715C288.427 203.715 288.751 203.391 288.751 202.99C288.751 202.59 288.427 202.266 288.026 202.266C287.626 202.266 287.301 202.59 287.301 202.99Z" fill="url(#paint132_linear_26_374)"/>
<path opacity="0.23" d="M289.342 199.741C289.511 199.91 289.784 199.91 289.953 199.741C290.122 199.572 290.122 199.299 289.953 199.13C289.784 198.961 289.511 198.961 289.342 199.13C289.173 199.299 289.173 199.572 289.342 199.741Z" fill="url(#paint133_linear_26_374)"/>
<path opacity="0.23" d="M284.702 201.744C284.871 201.913 285.144 201.913 285.313 201.744C285.482 201.575 285.482 201.302 285.313 201.133C285.144 200.964 284.871 200.964 284.702 201.133C284.533 201.302 284.533 201.575 284.702 201.744Z" fill="url(#paint134_linear_26_374)"/>
</g>
<defs>
<linearGradient id="paint0_linear_26_374" x1="274.922" y1="239.202" x2="281.265" y2="250.962" gradientUnits="userSpaceOnUse">
<stop stop-color="#F3F4FB"/>
<stop offset="1" stop-color="#BCC2E6"/>
</linearGradient>
<linearGradient id="paint1_linear_26_374" x1="149.605" y1="313.541" x2="195.809" y2="143.35" gradientUnits="userSpaceOnUse">
<stop stop-color="white"/>
<stop offset="1" stop-color="#DFE2F3"/>
</linearGradient>
<linearGradient id="paint2_linear_26_374" x1="188.061" y1="330.846" x2="183.705" y2="178.76" gradientUnits="userSpaceOnUse">
<stop stop-color="white"/>
<stop offset="1" stop-color="#DFE2F3"/>
</linearGradient>
<linearGradient id="paint3_linear_26_374" x1="94.0798" y1="284.461" x2="94.0798" y2="213.407" gradientUnits="userSpaceOnUse">
<stop stop-color="#526CAB"/>
<stop offset="1" stop-color="#BCC2E6"/>
</linearGradient>
<linearGradient id="paint4_linear_26_374" x1="166.701" y1="250.682" x2="199.367" y2="130.36" gradientUnits="userSpaceOnUse">
<stop stop-color="#6F83BB"/>
<stop offset="1" stop-color="#BCC2E6"/>
</linearGradient>
<linearGradient id="paint5_linear_26_374" x1="90.4429" y1="195.615" x2="353.158" y2="195.615" gradientUnits="userSpaceOnUse">
<stop stop-color="#1B1B66"/>
<stop offset="1" stop-color="#414791"/>
</linearGradient>
<linearGradient id="paint6_linear_26_374" x1="98.0117" y1="47.1643" x2="308.585" y2="47.1643" gradientUnits="userSpaceOnUse">
<stop stop-color="white"/>
<stop offset="1" stop-color="#DFE2F3"/>
</linearGradient>
<linearGradient id="paint7_linear_26_374" x1="105.514" y1="26.0035" x2="301.081" y2="26.0035" gradientUnits="userSpaceOnUse">
<stop stop-color="#DFE2F3"/>
<stop offset="1" stop-color="#BCC2E6"/>
</linearGradient>
<linearGradient id="paint8_linear_26_374" x1="223.387" y1="16.9613" x2="179.949" y2="81.3078" gradientUnits="userSpaceOnUse">
<stop stop-color="white"/>
<stop offset="1" stop-color="#DFE2F3"/>
</linearGradient>
<linearGradient id="paint9_linear_26_374" x1="98.0117" y1="178.196" x2="308.585" y2="178.196" gradientUnits="userSpaceOnUse">
<stop stop-color="white"/>
<stop offset="1" stop-color="#DFE2F3"/>
</linearGradient>
<linearGradient id="paint10_linear_26_374" x1="138.763" y1="55.2951" x2="82.4851" y2="178.817" gradientUnits="userSpaceOnUse">
<stop stop-color="#DFE2F3"/>
<stop offset="1" stop-color="#BCC2E6"/>
</linearGradient>
<linearGradient id="paint11_linear_26_374" x1="192.593" y1="87.7127" x2="143.152" y2="205.597" gradientUnits="userSpaceOnUse">
<stop stop-color="#DFE2F3"/>
<stop offset="1" stop-color="#BCC2E6"/>
</linearGradient>
<linearGradient id="paint12_linear_26_374" x1="122.17" y1="120.926" x2="137.671" y2="120.926" gradientUnits="userSpaceOnUse">
<stop stop-color="white"/>
<stop offset="1" stop-color="#DFE2F3"/>
</linearGradient>
<linearGradient id="paint13_linear_26_374" x1="137.076" y1="204.76" x2="150.076" y2="66.8325" gradientUnits="userSpaceOnUse">
<stop stop-color="#DFE2F3"/>
<stop offset="1" stop-color="#BCC2E6"/>
</linearGradient>
<linearGradient id="paint14_linear_26_374" x1="237.848" y1="68.2886" x2="178.099" y2="217.105" gradientUnits="userSpaceOnUse">
<stop stop-color="white"/>
<stop offset="1" stop-color="#DFE2F3"/>
</linearGradient>
<linearGradient id="paint15_linear_26_374" x1="239.121" y1="72.1175" x2="235.637" y2="167.411" gradientUnits="userSpaceOnUse">
<stop stop-color="#DFE2F3"/>
<stop offset="1" stop-color="#BCC2E6"/>
</linearGradient>
<linearGradient id="paint16_linear_26_374" x1="238.435" y1="72.9643" x2="298.265" y2="157.56" gradientUnits="userSpaceOnUse">
<stop stop-color="white"/>
<stop offset="1" stop-color="#DFE2F3"/>
</linearGradient>
<linearGradient id="paint17_linear_26_374" x1="249.059" y1="97.2329" x2="230.58" y2="206.489" gradientUnits="userSpaceOnUse">
<stop stop-color="#628FC4"/>
<stop offset="1" stop-color="#414791"/>
</linearGradient>
<linearGradient id="paint18_linear_26_374" x1="245.374" y1="136.294" x2="308.585" y2="136.294" gradientUnits="userSpaceOnUse">
<stop stop-color="#628FC4"/>
<stop offset="1" stop-color="#4F66A7"/>
</linearGradient>
<linearGradient id="paint19_linear_26_374" x1="156.244" y1="71.7834" x2="171.552" y2="71.7834" gradientUnits="userSpaceOnUse">
<stop stop-color="#DFE2F3"/>
<stop offset="1" stop-color="#BCC2E6"/>
</linearGradient>
<linearGradient id="paint20_linear_26_374" x1="134.937" y1="72.6087" x2="86.1686" y2="179.651" gradientUnits="userSpaceOnUse">
<stop stop-color="#628FC4"/>
<stop offset="1" stop-color="#414791"/>
</linearGradient>
<linearGradient id="paint21_linear_26_374" x1="189.11" y1="104.935" x2="146.207" y2="207.228" gradientUnits="userSpaceOnUse">
<stop stop-color="#628FC4"/>
<stop offset="1" stop-color="#414791"/>
</linearGradient>
<linearGradient id="paint22_linear_26_374" x1="122.17" y1="129.859" x2="137.671" y2="129.859" gradientUnits="userSpaceOnUse">
<stop stop-color="#628FC4"/>
<stop offset="1" stop-color="#4F66A7"/>
</linearGradient>
<linearGradient id="paint23_linear_26_374" x1="183.973" y1="160.479" x2="213.901" y2="160.479" gradientUnits="userSpaceOnUse">
<stop stop-color="#628FC4"/>
<stop offset="1" stop-color="#4F66A7"/>
</linearGradient>
<linearGradient id="paint24_linear_26_374" x1="167.691" y1="75.1757" x2="119.435" y2="181.094" gradientUnits="userSpaceOnUse">
<stop stop-color="#628FC4"/>
<stop offset="1" stop-color="#414791"/>
</linearGradient>
<linearGradient id="paint25_linear_26_374" x1="210.593" y1="153.008" x2="213.901" y2="153.008" gradientUnits="userSpaceOnUse">
<stop stop-color="#1B1B66"/>
<stop offset="1" stop-color="#414791"/>
</linearGradient>
<linearGradient id="paint26_linear_26_374" x1="234.406" y1="149.427" x2="237.713" y2="149.427" gradientUnits="userSpaceOnUse">
<stop stop-color="#1B1B66"/>
<stop offset="1" stop-color="#414791"/>
</linearGradient>
<linearGradient id="paint27_linear_26_374" x1="245.374" y1="154.887" x2="308.623" y2="154.887" gradientUnits="userSpaceOnUse">
<stop stop-color="#1B1B66"/>
<stop offset="1" stop-color="#414791"/>
</linearGradient>
<linearGradient id="paint28_linear_26_374" x1="183.973" y1="181.644" x2="208.774" y2="181.644" gradientUnits="userSpaceOnUse">
<stop stop-color="#1B1B66"/>
<stop offset="1" stop-color="#414791"/>
</linearGradient>
<linearGradient id="paint29_linear_26_374" x1="161.303" y1="144.776" x2="114.037" y2="144.776" gradientUnits="userSpaceOnUse">
<stop stop-color="#1B1B66"/>
<stop offset="1" stop-color="#414791"/>
</linearGradient>
<linearGradient id="paint30_linear_26_374" x1="20.2983" y1="194.09" x2="108.602" y2="194.09" gradientUnits="userSpaceOnUse">
<stop stop-color="#6F83BB"/>
<stop offset="1" stop-color="#BCC2E6"/>
</linearGradient>
<linearGradient id="paint31_linear_26_374" x1="20.2983" y1="191.965" x2="108.602" y2="191.965" gradientUnits="userSpaceOnUse">
<stop stop-color="white"/>
<stop offset="1" stop-color="#DFE2F3"/>
</linearGradient>
<linearGradient id="paint32_linear_26_374" x1="42.9169" y1="184.33" x2="50.7755" y2="184.33" gradientUnits="userSpaceOnUse">
<stop stop-color="#1B1B66"/>
<stop offset="1" stop-color="#414791"/>
</linearGradient>
<linearGradient id="paint33_linear_26_374" x1="41.4079" y1="171.101" x2="52.2928" y2="171.101" gradientUnits="userSpaceOnUse">
<stop stop-color="#83CE67"/>
<stop offset="1" stop-color="#388736"/>
</linearGradient>
<linearGradient id="paint34_linear_26_374" x1="46.8463" y1="168.408" x2="49.4272" y2="168.408" gradientUnits="userSpaceOnUse">
<stop stop-color="white"/>
<stop offset="1" stop-color="#DFE2F3"/>
</linearGradient>
<linearGradient id="paint35_linear_26_374" x1="45.3552" y1="174.2" x2="47.0438" y2="174.2" gradientUnits="userSpaceOnUse">
<stop stop-color="white"/>
<stop offset="1" stop-color="#DFE2F3"/>
</linearGradient>
<linearGradient id="paint36_linear_26_374" x1="42.2263" y1="171.422" x2="42.9426" y2="172.139" gradientUnits="userSpaceOnUse">
<stop stop-color="white"/>
<stop offset="1" stop-color="#DFE2F3"/>
</linearGradient>
<linearGradient id="paint37_linear_26_374" x1="47.6635" y1="173.768" x2="48.3799" y2="174.485" gradientUnits="userSpaceOnUse">
<stop stop-color="white"/>
<stop offset="1" stop-color="#DFE2F3"/>
</linearGradient>
<linearGradient id="paint38_linear_26_374" x1="47.6343" y1="174.336" x2="56.0923" y2="174.336" gradientUnits="userSpaceOnUse">
<stop stop-color="#83CE67"/>
<stop offset="1" stop-color="#388736"/>
</linearGradient>
<linearGradient id="paint39_linear_26_374" x1="51.8581" y1="172.242" x2="53.8629" y2="172.242" gradientUnits="userSpaceOnUse">
<stop stop-color="white"/>
<stop offset="1" stop-color="#DFE2F3"/>
</linearGradient>
<linearGradient id="paint40_linear_26_374" x1="50.6992" y1="176.744" x2="52.0104" y2="176.744" gradientUnits="userSpaceOnUse">
<stop stop-color="white"/>
<stop offset="1" stop-color="#DFE2F3"/>
</linearGradient>
<linearGradient id="paint41_linear_26_374" x1="47.9192" y1="174.99" x2="48.4755" y2="175.547" gradientUnits="userSpaceOnUse">
<stop stop-color="white"/>
<stop offset="1" stop-color="#DFE2F3"/>
</linearGradient>
<linearGradient id="paint42_linear_26_374" x1="52.1453" y1="176.813" x2="52.7015" y2="177.37" gradientUnits="userSpaceOnUse">
<stop stop-color="white"/>
<stop offset="1" stop-color="#DFE2F3"/>
</linearGradient>
<linearGradient id="paint43_linear_26_374" x1="58.4702" y1="192.794" x2="67.5473" y2="192.794" gradientUnits="userSpaceOnUse">
<stop stop-color="#1B1B66"/>
<stop offset="1" stop-color="#414791"/>
</linearGradient>
<linearGradient id="paint44_linear_26_374" x1="56.7227" y1="177.508" x2="69.2928" y2="177.508" gradientUnits="userSpaceOnUse">
<stop stop-color="#83CE67"/>
<stop offset="1" stop-color="#388736"/>
</linearGradient>
<linearGradient id="paint45_linear_26_374" x1="63.0097" y1="174.405" x2="65.9896" y2="174.405" gradientUnits="userSpaceOnUse">
<stop stop-color="white"/>
<stop offset="1" stop-color="#DFE2F3"/>
</linearGradient>
<linearGradient id="paint46_linear_26_374" x1="61.288" y1="181.095" x2="63.2365" y2="181.095" gradientUnits="userSpaceOnUse">
<stop stop-color="white"/>
<stop offset="1" stop-color="#DFE2F3"/>
</linearGradient>
<linearGradient id="paint47_linear_26_374" x1="58.0471" y1="177.661" x2="58.873" y2="178.488" gradientUnits="userSpaceOnUse">
<stop stop-color="white"/>
<stop offset="1" stop-color="#DFE2F3"/>
</linearGradient>
<linearGradient id="paint48_linear_26_374" x1="64.3262" y1="180.37" x2="65.1528" y2="181.197" gradientUnits="userSpaceOnUse">
<stop stop-color="white"/>
<stop offset="1" stop-color="#DFE2F3"/>
</linearGradient>
<linearGradient id="paint49_linear_26_374" x1="63.9223" y1="181.256" x2="73.6913" y2="181.256" gradientUnits="userSpaceOnUse">
<stop stop-color="#83CE67"/>
<stop offset="1" stop-color="#388736"/>
</linearGradient>
<linearGradient id="paint50_linear_26_374" x1="68.7958" y1="178.834" x2="71.1135" y2="178.834" gradientUnits="userSpaceOnUse">
<stop stop-color="white"/>
<stop offset="1" stop-color="#DFE2F3"/>
</linearGradient>
<linearGradient id="paint51_linear_26_374" x1="67.4581" y1="184.033" x2="68.9728" y2="184.033" gradientUnits="userSpaceOnUse">
<stop stop-color="white"/>
<stop offset="1" stop-color="#DFE2F3"/>
</linearGradient>
<linearGradient id="paint52_linear_26_374" x1="64.6212" y1="181.782" x2="65.2638" y2="182.426" gradientUnits="userSpaceOnUse">
<stop stop-color="white"/>
<stop offset="1" stop-color="#DFE2F3"/>
</linearGradient>
<linearGradient id="paint53_linear_26_374" x1="69.5002" y1="183.888" x2="70.1428" y2="184.532" gradientUnits="userSpaceOnUse">
<stop stop-color="white"/>
<stop offset="1" stop-color="#DFE2F3"/>
</linearGradient>
<linearGradient id="paint54_linear_26_374" x1="75.7168" y1="201.422" x2="84.4065" y2="201.422" gradientUnits="userSpaceOnUse">
<stop stop-color="#1B1B66"/>
<stop offset="1" stop-color="#414791"/>
</linearGradient>
<linearGradient id="paint55_linear_26_374" x1="74.0547" y1="186.799" x2="86.0885" y2="186.799" gradientUnits="userSpaceOnUse">
<stop stop-color="#83CE67"/>
<stop offset="1" stop-color="#388736"/>
</linearGradient>
<linearGradient id="paint56_linear_26_374" x1="80.061" y1="183.819" x2="82.9151" y2="183.819" gradientUnits="userSpaceOnUse">
<stop stop-color="white"/>
<stop offset="1" stop-color="#DFE2F3"/>
</linearGradient>
<linearGradient id="paint57_linear_26_374" x1="78.4138" y1="190.223" x2="80.2795" y2="190.223" gradientUnits="userSpaceOnUse">
<stop stop-color="white"/>
<stop offset="1" stop-color="#DFE2F3"/>
</linearGradient>
<linearGradient id="paint58_linear_26_374" x1="75.3551" y1="187.072" x2="76.1459" y2="187.863" gradientUnits="userSpaceOnUse">
<stop stop-color="white"/>
<stop offset="1" stop-color="#DFE2F3"/>
</linearGradient>
<linearGradient id="paint59_linear_26_374" x1="81.3677" y1="189.665" x2="82.1585" y2="190.457" gradientUnits="userSpaceOnUse">
<stop stop-color="white"/>
<stop offset="1" stop-color="#DFE2F3"/>
</linearGradient>
<linearGradient id="paint60_linear_26_374" x1="80.9251" y1="190.365" x2="90.277" y2="190.365" gradientUnits="userSpaceOnUse">
<stop stop-color="#83CE67"/>
<stop offset="1" stop-color="#388736"/>
</linearGradient>
<linearGradient id="paint61_linear_26_374" x1="85.6018" y1="188.058" x2="87.8201" y2="188.058" gradientUnits="userSpaceOnUse">
<stop stop-color="white"/>
<stop offset="1" stop-color="#DFE2F3"/>
</linearGradient>
<linearGradient id="paint62_linear_26_374" x1="84.3222" y1="193.035" x2="85.7708" y2="193.035" gradientUnits="userSpaceOnUse">
<stop stop-color="white"/>
<stop offset="1" stop-color="#DFE2F3"/>
</linearGradient>
<linearGradient id="paint63_linear_26_374" x1="81.6486" y1="191.018" x2="82.2638" y2="191.634" gradientUnits="userSpaceOnUse">
<stop stop-color="white"/>
<stop offset="1" stop-color="#DFE2F3"/>
</linearGradient>
<linearGradient id="paint64_linear_26_374" x1="86.3201" y1="193.033" x2="86.9353" y2="193.649" gradientUnits="userSpaceOnUse">
<stop stop-color="white"/>
<stop offset="1" stop-color="#DFE2F3"/>
</linearGradient>
<linearGradient id="paint65_linear_26_374" x1="129.921" y1="260.561" x2="218.225" y2="260.561" gradientUnits="userSpaceOnUse">
<stop stop-color="#6F83BB"/>
<stop offset="1" stop-color="#BCC2E6"/>
</linearGradient>
<linearGradient id="paint66_linear_26_374" x1="129.921" y1="258.436" x2="218.225" y2="258.436" gradientUnits="userSpaceOnUse">
<stop stop-color="white"/>
<stop offset="1" stop-color="#DFE2F3"/>
</linearGradient>
<linearGradient id="paint67_linear_26_374" x1="152.54" y1="250.801" x2="160.399" y2="250.801" gradientUnits="userSpaceOnUse">
<stop stop-color="#1B1B66"/>
<stop offset="1" stop-color="#414791"/>
</linearGradient>
<linearGradient id="paint68_linear_26_374" x1="151.009" y1="237.551" x2="161.894" y2="237.551" gradientUnits="userSpaceOnUse">
<stop stop-color="#83CE67"/>
<stop offset="1" stop-color="#388736"/>
</linearGradient>
<linearGradient id="paint69_linear_26_374" x1="156.488" y1="234.886" x2="159.069" y2="234.886" gradientUnits="userSpaceOnUse">
<stop stop-color="white"/>
<stop offset="1" stop-color="#DFE2F3"/>
</linearGradient>
<linearGradient id="paint70_linear_26_374" x1="154.979" y1="240.671" x2="156.668" y2="240.671" gradientUnits="userSpaceOnUse">
<stop stop-color="white"/>
<stop offset="1" stop-color="#DFE2F3"/>
</linearGradient>
<linearGradient id="paint71_linear_26_374" x1="152.574" y1="238.33" x2="153.291" y2="239.047" gradientUnits="userSpaceOnUse">
<stop stop-color="white"/>
<stop offset="1" stop-color="#DFE2F3"/>
</linearGradient>
<linearGradient id="paint72_linear_26_374" x1="158.012" y1="240.675" x2="158.728" y2="241.392" gradientUnits="userSpaceOnUse">
<stop stop-color="white"/>
<stop offset="1" stop-color="#DFE2F3"/>
</linearGradient>
<linearGradient id="paint73_linear_26_374" x1="157.251" y1="240.8" x2="165.709" y2="240.8" gradientUnits="userSpaceOnUse">
<stop stop-color="#83CE67"/>
<stop offset="1" stop-color="#388736"/>
</linearGradient>
<linearGradient id="paint74_linear_26_374" x1="161.481" y1="238.713" x2="163.486" y2="238.713" gradientUnits="userSpaceOnUse">
<stop stop-color="white"/>
<stop offset="1" stop-color="#DFE2F3"/>
</linearGradient>
<linearGradient id="paint75_linear_26_374" x1="160.323" y1="243.215" x2="161.634" y2="243.215" gradientUnits="userSpaceOnUse">
<stop stop-color="white"/>
<stop offset="1" stop-color="#DFE2F3"/>
</linearGradient>
<linearGradient id="paint76_linear_26_374" x1="158.267" y1="241.897" x2="158.824" y2="242.455" gradientUnits="userSpaceOnUse">
<stop stop-color="white"/>
<stop offset="1" stop-color="#DFE2F3"/>
</linearGradient>
<linearGradient id="paint77_linear_26_374" x1="162.493" y1="243.72" x2="163.049" y2="244.277" gradientUnits="userSpaceOnUse">
<stop stop-color="white"/>
<stop offset="1" stop-color="#DFE2F3"/>
</linearGradient>
<linearGradient id="paint78_linear_26_374" x1="168.094" y1="259.265" x2="177.171" y2="259.265" gradientUnits="userSpaceOnUse">
<stop stop-color="#1B1B66"/>
<stop offset="1" stop-color="#414791"/>
</linearGradient>
<linearGradient id="paint79_linear_26_374" x1="166.332" y1="243.97" x2="178.902" y2="243.97" gradientUnits="userSpaceOnUse">
<stop stop-color="#83CE67"/>
<stop offset="1" stop-color="#388736"/>
</linearGradient>
<linearGradient id="paint80_linear_26_374" x1="172.631" y1="240.878" x2="175.613" y2="240.878" gradientUnits="userSpaceOnUse">
<stop stop-color="white"/>
<stop offset="1" stop-color="#DFE2F3"/>
</linearGradient>
<linearGradient id="paint81_linear_26_374" x1="170.911" y1="247.566" x2="172.86" y2="247.566" gradientUnits="userSpaceOnUse">
<stop stop-color="white"/>
<stop offset="1" stop-color="#DFE2F3"/>
</linearGradient>
<linearGradient id="paint82_linear_26_374" x1="168.395" y1="244.568" x2="169.22" y2="245.395" gradientUnits="userSpaceOnUse">
<stop stop-color="white"/>
<stop offset="1" stop-color="#DFE2F3"/>
</linearGradient>
<linearGradient id="paint83_linear_26_374" x1="174.673" y1="247.277" x2="175.5" y2="248.104" gradientUnits="userSpaceOnUse">
<stop stop-color="white"/>
<stop offset="1" stop-color="#DFE2F3"/>
</linearGradient>
<linearGradient id="paint84_linear_26_374" x1="173.526" y1="247.711" x2="183.295" y2="247.711" gradientUnits="userSpaceOnUse">
<stop stop-color="#83CE67"/>
<stop offset="1" stop-color="#388736"/>
</linearGradient>
<linearGradient id="paint85_linear_26_374" x1="178.419" y1="245.305" x2="180.737" y2="245.305" gradientUnits="userSpaceOnUse">
<stop stop-color="white"/>
<stop offset="1" stop-color="#DFE2F3"/>
</linearGradient>
<linearGradient id="paint86_linear_26_374" x1="177.081" y1="250.504" x2="178.596" y2="250.504" gradientUnits="userSpaceOnUse">
<stop stop-color="white"/>
<stop offset="1" stop-color="#DFE2F3"/>
</linearGradient>
<linearGradient id="paint87_linear_26_374" x1="174.968" y1="248.69" x2="175.611" y2="249.333" gradientUnits="userSpaceOnUse">
<stop stop-color="white"/>
<stop offset="1" stop-color="#DFE2F3"/>
</linearGradient>
<linearGradient id="paint88_linear_26_374" x1="179.848" y1="250.796" x2="180.491" y2="251.439" gradientUnits="userSpaceOnUse">
<stop stop-color="white"/>
<stop offset="1" stop-color="#DFE2F3"/>
</linearGradient>
<linearGradient id="paint89_linear_26_374" x1="185.34" y1="267.895" x2="194.03" y2="267.895" gradientUnits="userSpaceOnUse">
<stop stop-color="#1B1B66"/>
<stop offset="1" stop-color="#414791"/>
</linearGradient>
<linearGradient id="paint90_linear_26_374" x1="183.672" y1="253.263" x2="195.706" y2="253.263" gradientUnits="userSpaceOnUse">
<stop stop-color="#83CE67"/>
<stop offset="1" stop-color="#388736"/>
</linearGradient>
<linearGradient id="paint91_linear_26_374" x1="189.684" y1="250.29" x2="192.538" y2="250.29" gradientUnits="userSpaceOnUse">
<stop stop-color="white"/>
<stop offset="1" stop-color="#DFE2F3"/>
</linearGradient>
<linearGradient id="paint92_linear_26_374" x1="188.037" y1="256.694" x2="189.903" y2="256.694" gradientUnits="userSpaceOnUse">
<stop stop-color="white"/>
<stop offset="1" stop-color="#DFE2F3"/>
</linearGradient>
<linearGradient id="paint93_linear_26_374" x1="185.702" y1="253.979" x2="186.493" y2="254.77" gradientUnits="userSpaceOnUse">
<stop stop-color="white"/>
<stop offset="1" stop-color="#DFE2F3"/>
</linearGradient>
<linearGradient id="paint94_linear_26_374" x1="191.714" y1="256.572" x2="192.505" y2="257.364" gradientUnits="userSpaceOnUse">
<stop stop-color="white"/>
<stop offset="1" stop-color="#DFE2F3"/>
</linearGradient>
<linearGradient id="paint95_linear_26_374" x1="190.571" y1="256.849" x2="199.922" y2="256.849" gradientUnits="userSpaceOnUse">
<stop stop-color="#83CE67"/>
<stop offset="1" stop-color="#388736"/>
</linearGradient>
<linearGradient id="paint96_linear_26_374" x1="195.225" y1="254.529" x2="197.443" y2="254.529" gradientUnits="userSpaceOnUse">
<stop stop-color="white"/>
<stop offset="1" stop-color="#DFE2F3"/>
</linearGradient>
<linearGradient id="paint97_linear_26_374" x1="193.944" y1="259.506" x2="195.394" y2="259.506" gradientUnits="userSpaceOnUse">
<stop stop-color="white"/>
<stop offset="1" stop-color="#DFE2F3"/>
</linearGradient>
<linearGradient id="paint98_linear_26_374" x1="191.997" y1="257.925" x2="192.612" y2="258.541" gradientUnits="userSpaceOnUse">
<stop stop-color="white"/>
<stop offset="1" stop-color="#DFE2F3"/>
</linearGradient>
<linearGradient id="paint99_linear_26_374" x1="196.668" y1="259.941" x2="197.283" y2="260.556" gradientUnits="userSpaceOnUse">
<stop stop-color="white"/>
<stop offset="1" stop-color="#DFE2F3"/>
</linearGradient>
<linearGradient id="paint100_linear_26_374" x1="352.775" y1="204.046" x2="264.471" y2="204.046" gradientUnits="userSpaceOnUse">
<stop stop-color="#6F83BB"/>
<stop offset="1" stop-color="#BCC2E6"/>
</linearGradient>
<linearGradient id="paint101_linear_26_374" x1="352.775" y1="201.92" x2="264.471" y2="201.92" gradientUnits="userSpaceOnUse">
<stop stop-color="white"/>
<stop offset="1" stop-color="#DFE2F3"/>
</linearGradient>
<linearGradient id="paint102_linear_26_374" x1="330.156" y1="194.286" x2="322.296" y2="194.286" gradientUnits="userSpaceOnUse">
<stop stop-color="#1B1B66"/>
<stop offset="1" stop-color="#414791"/>
</linearGradient>
<linearGradient id="paint103_linear_26_374" x1="331.668" y1="181.049" x2="320.784" y2="181.049" gradientUnits="userSpaceOnUse">
<stop stop-color="#83CE67"/>
<stop offset="1" stop-color="#388736"/>
</linearGradient>
<linearGradient id="paint104_linear_26_374" x1="326.224" y1="178.322" x2="323.643" y2="178.322" gradientUnits="userSpaceOnUse">
<stop stop-color="white"/>
<stop offset="1" stop-color="#DFE2F3"/>
</linearGradient>
<linearGradient id="paint105_linear_26_374" x1="327.716" y1="184.155" x2="326.029" y2="184.155" gradientUnits="userSpaceOnUse">
<stop stop-color="white"/>
<stop offset="1" stop-color="#DFE2F3"/>
</linearGradient>
<linearGradient id="paint106_linear_26_374" x1="326.934" y1="181.442" x2="326.217" y2="182.159" gradientUnits="userSpaceOnUse">
<stop stop-color="white"/>
<stop offset="1" stop-color="#DFE2F3"/>
</linearGradient>
<linearGradient id="paint107_linear_26_374" x1="321.496" y1="183.789" x2="320.781" y2="184.505" gradientUnits="userSpaceOnUse">
<stop stop-color="white"/>
<stop offset="1" stop-color="#DFE2F3"/>
</linearGradient>
<linearGradient id="paint108_linear_26_374" x1="325.461" y1="184.366" x2="317.001" y2="184.366" gradientUnits="userSpaceOnUse">
<stop stop-color="#83CE67"/>
<stop offset="1" stop-color="#388736"/>
</linearGradient>
<linearGradient id="paint109_linear_26_374" x1="321.215" y1="182.197" x2="319.208" y2="182.197" gradientUnits="userSpaceOnUse">
<stop stop-color="white"/>
<stop offset="1" stop-color="#DFE2F3"/>
</linearGradient>
<linearGradient id="paint110_linear_26_374" x1="322.374" y1="186.699" x2="321.061" y2="186.699" gradientUnits="userSpaceOnUse">
<stop stop-color="white"/>
<stop offset="1" stop-color="#DFE2F3"/>
</linearGradient>
<linearGradient id="paint111_linear_26_374" x1="321.241" y1="185.01" x2="320.684" y2="185.568" gradientUnits="userSpaceOnUse">
<stop stop-color="white"/>
<stop offset="1" stop-color="#DFE2F3"/>
</linearGradient>
<linearGradient id="paint112_linear_26_374" x1="317.016" y1="186.833" x2="316.459" y2="187.391" gradientUnits="userSpaceOnUse">
<stop stop-color="white"/>
<stop offset="1" stop-color="#DFE2F3"/>
</linearGradient>
<linearGradient id="paint113_linear_26_374" x1="314.602" y1="202.749" x2="305.526" y2="202.749" gradientUnits="userSpaceOnUse">
<stop stop-color="#1B1B66"/>
<stop offset="1" stop-color="#414791"/>
</linearGradient>
<linearGradient id="paint114_linear_26_374" x1="316.356" y1="187.508" x2="303.786" y2="187.508" gradientUnits="userSpaceOnUse">
<stop stop-color="#83CE67"/>
<stop offset="1" stop-color="#388736"/>
</linearGradient>
<linearGradient id="paint115_linear_26_374" x1="310.064" y1="184.36" x2="307.084" y2="184.36" gradientUnits="userSpaceOnUse">
<stop stop-color="white"/>
<stop offset="1" stop-color="#DFE2F3"/>
</linearGradient>
<linearGradient id="paint116_linear_26_374" x1="311.785" y1="191.05" x2="309.835" y2="191.05" gradientUnits="userSpaceOnUse">
<stop stop-color="white"/>
<stop offset="1" stop-color="#DFE2F3"/>
</linearGradient>
<linearGradient id="paint117_linear_26_374" x1="311.116" y1="187.682" x2="310.29" y2="188.509" gradientUnits="userSpaceOnUse">
<stop stop-color="white"/>
<stop offset="1" stop-color="#DFE2F3"/>
</linearGradient>
<linearGradient id="paint118_linear_26_374" x1="304.837" y1="190.391" x2="304.011" y2="191.218" gradientUnits="userSpaceOnUse">
<stop stop-color="white"/>
<stop offset="1" stop-color="#DFE2F3"/>
</linearGradient>
<linearGradient id="paint119_linear_26_374" x1="309.156" y1="191.169" x2="299.388" y2="191.169" gradientUnits="userSpaceOnUse">
<stop stop-color="#83CE67"/>
<stop offset="1" stop-color="#388736"/>
</linearGradient>
<linearGradient id="paint120_linear_26_374" x1="304.276" y1="188.789" x2="301.96" y2="188.789" gradientUnits="userSpaceOnUse">
<stop stop-color="white"/>
<stop offset="1" stop-color="#DFE2F3"/>
</linearGradient>
<linearGradient id="paint121_linear_26_374" x1="305.614" y1="193.988" x2="304.099" y2="193.988" gradientUnits="userSpaceOnUse">
<stop stop-color="white"/>
<stop offset="1" stop-color="#DFE2F3"/>
</linearGradient>
<linearGradient id="paint122_linear_26_374" x1="304.54" y1="191.803" x2="303.897" y2="192.446" gradientUnits="userSpaceOnUse">
<stop stop-color="white"/>
<stop offset="1" stop-color="#DFE2F3"/>
</linearGradient>
<linearGradient id="paint123_linear_26_374" x1="299.66" y1="193.908" x2="299.018" y2="194.551" gradientUnits="userSpaceOnUse">
<stop stop-color="white"/>
<stop offset="1" stop-color="#DFE2F3"/>
</linearGradient>
<linearGradient id="paint124_linear_26_374" x1="297.356" y1="211.377" x2="288.667" y2="211.377" gradientUnits="userSpaceOnUse">
<stop stop-color="#1B1B66"/>
<stop offset="1" stop-color="#414791"/>
</linearGradient>
<linearGradient id="paint125_linear_26_374" x1="299.037" y1="196.823" x2="287.003" y2="196.823" gradientUnits="userSpaceOnUse">
<stop stop-color="#83CE67"/>
<stop offset="1" stop-color="#388736"/>
</linearGradient>
<linearGradient id="paint126_linear_26_374" x1="293.011" y1="193.774" x2="290.158" y2="193.774" gradientUnits="userSpaceOnUse">
<stop stop-color="white"/>
<stop offset="1" stop-color="#DFE2F3"/>
</linearGradient>
<linearGradient id="paint127_linear_26_374" x1="294.66" y1="200.178" x2="292.794" y2="200.178" gradientUnits="userSpaceOnUse">
<stop stop-color="white"/>
<stop offset="1" stop-color="#DFE2F3"/>
</linearGradient>
<linearGradient id="paint128_linear_26_374" x1="293.807" y1="197.091" x2="293.016" y2="197.884" gradientUnits="userSpaceOnUse">
<stop stop-color="white"/>
<stop offset="1" stop-color="#DFE2F3"/>
</linearGradient>
<linearGradient id="paint129_linear_26_374" x1="287.796" y1="199.686" x2="287.005" y2="200.477" gradientUnits="userSpaceOnUse">
<stop stop-color="white"/>
<stop offset="1" stop-color="#DFE2F3"/>
</linearGradient>
<linearGradient id="paint130_linear_26_374" x1="292.155" y1="200.372" x2="282.804" y2="200.372" gradientUnits="userSpaceOnUse">
<stop stop-color="#83CE67"/>
<stop offset="1" stop-color="#388736"/>
</linearGradient>
<linearGradient id="paint131_linear_26_374" x1="287.471" y1="198.014" x2="285.253" y2="198.014" gradientUnits="userSpaceOnUse">
<stop stop-color="white"/>
<stop offset="1" stop-color="#DFE2F3"/>
</linearGradient>
<linearGradient id="paint132_linear_26_374" x1="288.751" y1="202.99" x2="287.301" y2="202.99" gradientUnits="userSpaceOnUse">
<stop stop-color="white"/>
<stop offset="1" stop-color="#DFE2F3"/>
</linearGradient>
<linearGradient id="paint133_linear_26_374" x1="287.511" y1="201.038" x2="286.896" y2="201.654" gradientUnits="userSpaceOnUse">
<stop stop-color="white"/>
<stop offset="1" stop-color="#DFE2F3"/>
</linearGradient>
<linearGradient id="paint134_linear_26_374" x1="282.84" y1="203.054" x2="282.225" y2="203.67" gradientUnits="userSpaceOnUse">
<stop stop-color="white"/>
<stop offset="1" stop-color="#DFE2F3"/>
</linearGradient>
<clipPath id="clip0_26_374">
<rect width="367.944" height="300" fill="white"/>
</clipPath>
</defs>
</svg>
