<svg width="350" height="332" viewBox="0 0 350 332" fill="none" xmlns="http://www.w3.org/2000/svg">
<g clip-path="url(#clip0_40_847)">
<path opacity="0.2" d="M199.005 329.876C226.942 317.419 302.465 282.112 333.2 267.717C338.486 265.241 338.491 257.726 333.211 255.237L158.197 172.762C151.946 169.815 144.712 169.806 138.454 172.737C111.271 185.472 35.2721 221.027 3.97025 235.096C-1.27512 237.453 -1.33632 244.875 3.86604 247.327L178.574 329.656C185.031 332.698 192.488 332.781 199.007 329.875L199.005 329.876Z" fill="url(#paint0_linear_40_847)"/>
<path d="M323.041 226.285L158.195 148.602C151.944 145.656 144.71 145.646 138.452 148.578C113.018 160.496 44.8395 192.392 10.5353 207.969L-0.00170898 207.352V219.197L0.406871 219.368C0.96598 220.943 2.10736 222.34 3.86408 223.169L178.572 305.499C185.029 308.541 192.486 308.623 199.005 305.717C226.942 293.259 302.465 257.953 333.199 243.558C335.806 242.338 337.123 239.891 337.161 237.428H337.168V227.114L323.041 226.285Z" fill="url(#paint1_linear_40_847)"/>
<path d="M323.041 225.688L158.195 148.005C151.944 145.059 144.71 145.049 138.452 147.98C113.018 159.899 44.8395 191.794 10.5353 207.372L-0.00170898 206.755V218.6L0.406871 218.771C0.96598 220.345 2.10736 221.743 3.86408 222.572L178.572 304.902C185.029 307.944 192.486 308.026 199.005 305.12C226.942 292.662 302.465 257.356 333.199 242.961C335.806 241.74 337.123 239.294 337.161 236.831H337.168V226.517L323.041 225.688Z" fill="url(#paint2_linear_40_847)"/>
<path d="M199.005 294.98C226.942 282.522 302.465 247.216 333.2 232.821C338.486 230.345 338.491 222.83 333.211 220.34L158.197 137.865C151.946 134.919 144.712 134.909 138.454 137.84C111.271 150.576 35.2721 186.131 3.97025 200.199C-1.27512 202.556 -1.33632 209.979 3.86604 212.43L178.574 294.76C185.031 297.802 192.488 297.885 199.007 294.978L199.005 294.98Z" fill="url(#paint3_linear_40_847)"/>
<path d="M189.03 290.952C186.341 290.952 183.631 290.345 181.196 289.198L6.48793 206.867C6.36056 206.808 6.14883 206.707 6.15214 206.333C6.15545 205.964 6.36718 205.868 6.4929 205.812C37.4044 191.918 110.899 157.545 141.063 143.413C143.344 142.345 145.779 141.802 148.297 141.802C150.814 141.802 153.31 142.366 155.573 143.431L330.588 225.907C330.727 225.973 331.016 226.11 331.016 226.583C331.016 227.053 330.728 227.187 330.591 227.253C299.545 241.793 224.33 276.956 196.501 289.365C194.135 290.421 191.621 290.955 189.032 290.955L189.03 290.952Z" fill="url(#paint4_linear_40_847)"/>
<path d="M333.199 231.013C302.465 245.409 226.942 280.716 199.005 293.172C192.486 296.078 185.029 295.996 178.573 292.954L3.866 210.624C1.60806 209.56 0.344273 207.559 0.0630639 205.441C-0.292582 208.158 0.967894 211.066 3.866 212.432L178.574 294.762C185.031 297.804 192.488 297.886 199.007 294.98C226.944 282.522 302.467 247.216 333.201 232.821C336.169 231.432 337.471 228.456 337.11 225.67C336.83 227.855 335.529 229.921 333.201 231.012L333.199 231.013Z" fill="url(#paint5_linear_40_847)"/>
<g opacity="0.5">
<path opacity="0.03" d="M214.105 300.285C216.726 294.541 202.867 282.591 183.151 273.593C163.434 264.595 145.326 261.957 142.704 267.701C140.083 273.445 153.942 285.396 173.658 294.393C193.375 303.391 211.483 306.029 214.105 300.285Z" fill="#2D2D40"/>
<path opacity="0.07" d="M213.51 300.014C216.088 294.366 202.46 282.614 183.072 273.766C163.684 264.918 145.877 262.324 143.299 267.972C140.721 273.621 154.349 285.372 173.737 294.22C193.126 303.068 210.933 305.662 213.51 300.014Z" fill="#2D2D40"/>
<path opacity="0.1" d="M212.917 299.743C215.451 294.191 202.054 282.638 182.993 273.939C163.932 265.24 146.426 262.69 143.892 268.243C141.358 273.796 154.756 285.349 173.816 294.047C192.877 302.746 210.383 305.296 212.917 299.743Z" fill="#2D2D40"/>
<path opacity="0.14" d="M212.323 299.472C214.813 294.015 201.646 282.661 182.914 274.112C164.181 265.563 146.977 263.057 144.486 268.514C141.996 273.971 155.163 285.325 173.895 293.874C192.628 302.423 209.832 304.929 212.323 299.472Z" fill="#2D2D40"/>
<path opacity="0.17" d="M211.729 299.201C214.175 293.839 201.239 282.684 182.835 274.285C164.431 265.886 147.528 263.424 145.081 268.785C142.634 274.147 155.57 285.302 173.974 293.701C192.379 302.1 209.282 304.562 211.729 299.201Z" fill="#2D2D40"/>
<path opacity="0.21" d="M211.134 298.93C213.537 293.664 200.832 282.708 182.756 274.458C164.68 266.209 148.078 263.791 145.675 269.057C143.272 274.323 155.977 285.279 174.053 293.528C192.129 301.777 208.731 304.196 211.134 298.93Z" fill="#2D2D40"/>
<path opacity="0.24" d="M210.541 298.659C212.901 293.489 200.426 282.731 182.677 274.631C164.929 266.532 148.628 264.157 146.268 269.327C143.909 274.498 156.384 285.255 174.132 293.355C191.881 301.455 208.182 303.829 210.541 298.659Z" fill="#2D2D40"/>
<path opacity="0.28" d="M209.947 298.388C212.263 293.313 200.018 282.754 182.598 274.804C165.178 266.855 149.178 264.524 146.863 269.599C144.547 274.673 156.791 285.232 174.211 293.182C191.631 301.132 207.631 303.462 209.947 298.388Z" fill="#2D2D40"/>
<path opacity="0.31" d="M209.352 298.116C211.625 293.137 199.611 282.778 182.519 274.977C165.427 267.177 149.729 264.891 147.457 269.87C145.185 274.849 157.198 285.209 174.29 293.009C191.382 300.809 207.08 303.096 209.352 298.116Z" fill="#2D2D40"/>
<path opacity="0.34" d="M208.758 297.845C210.987 292.962 199.204 282.801 182.44 275.151C165.677 267.5 150.28 265.258 148.052 270.141C145.823 275.025 157.606 285.186 174.369 292.836C191.133 300.486 206.529 302.729 208.758 297.845Z" fill="#2D2D40"/>
<path opacity="0.38" d="M208.165 297.575C210.35 292.787 198.797 282.824 182.361 275.324C165.925 267.823 150.829 265.624 148.644 270.412C146.459 275.2 158.012 285.162 174.448 292.663C190.884 300.164 205.98 302.363 208.165 297.575Z" fill="#2D2D40"/>
<path opacity="0.41" d="M207.571 297.303C209.712 292.611 198.39 282.848 182.282 275.497C166.174 268.146 151.38 265.991 149.239 270.683C147.097 275.376 158.419 285.139 174.527 292.49C190.635 299.841 205.429 301.996 207.571 297.303Z" fill="#2D2D40"/>
<path opacity="0.45" d="M206.976 297.032C209.074 292.435 197.983 282.871 182.203 275.67C166.424 268.469 151.931 266.357 149.833 270.954C147.736 275.551 158.827 285.116 174.606 292.317C190.386 299.518 204.878 301.629 206.976 297.032Z" fill="#2D2D40"/>
<path opacity="0.48" d="M206.382 296.761C208.436 292.259 197.576 282.894 182.124 275.843C166.673 268.791 152.482 266.724 150.428 271.226C148.374 275.727 159.234 285.092 174.685 292.144C190.137 299.195 204.328 301.262 206.382 296.761Z" fill="#2D2D40"/>
<path opacity="0.52" d="M205.789 296.49C207.799 292.084 197.169 282.918 182.045 276.016C166.921 269.114 153.031 267.09 151.021 271.496C149.01 275.902 159.64 285.069 174.764 291.97C189.888 298.872 203.778 300.896 205.789 296.49Z" fill="#2D2D40"/>
<path opacity="0.55" d="M205.194 296.219C207.161 291.909 196.762 282.941 181.966 276.189C167.171 269.437 153.582 267.457 151.615 271.768C149.648 276.078 160.048 285.045 174.843 291.797C189.639 298.55 203.227 300.529 205.194 296.219Z" fill="#2D2D40"/>
<path opacity="0.59" d="M204.6 295.948C206.524 291.733 196.355 282.964 181.887 276.362C167.42 269.76 154.133 267.824 152.21 272.039C150.286 276.253 160.455 285.022 174.922 291.624C189.39 298.227 202.677 300.162 204.6 295.948Z" fill="#2D2D40"/>
<path opacity="0.62" d="M204.006 295.676C205.885 291.557 195.947 282.988 181.808 276.535C167.669 270.083 154.684 268.191 152.804 272.31C150.924 276.429 160.862 284.999 175.001 291.451C189.14 297.904 202.126 299.795 204.006 295.676Z" fill="#2D2D40"/>
<path opacity="0.66" d="M203.413 295.406C205.249 291.382 195.541 283.011 181.729 276.708C167.918 270.405 155.233 268.557 153.397 272.581C151.561 276.604 161.269 284.975 175.08 291.278C188.892 297.581 201.577 299.429 203.413 295.406Z" fill="#2D2D40"/>
<path opacity="0.69" d="M202.818 295.134C204.611 291.207 195.134 283.034 181.65 276.881C168.167 270.728 155.784 268.924 153.991 272.852C152.199 276.78 161.676 284.952 175.159 291.105C188.642 297.258 201.026 299.062 202.818 295.134Z" fill="#2D2D40"/>
<path opacity="0.72" d="M202.224 294.863C203.973 291.031 194.727 283.058 181.572 277.054C168.417 271.051 156.335 269.291 154.586 273.123C152.837 276.955 162.083 284.929 175.238 290.932C188.393 296.936 200.475 298.696 202.224 294.863Z" fill="#2D2D40"/>
<path opacity="0.76" d="M201.629 294.592C203.335 290.855 194.319 283.081 181.492 277.227C168.666 271.374 156.885 269.658 155.18 273.395C153.475 277.131 162.49 284.906 175.317 290.759C188.144 296.613 199.924 298.329 201.629 294.592Z" fill="#2D2D40"/>
<path opacity="0.79" d="M201.037 294.321C202.698 290.68 193.913 283.105 181.414 277.4C168.914 271.696 157.435 270.024 155.773 273.665C154.111 277.306 162.897 284.882 175.396 290.586C187.895 296.29 199.375 297.963 201.037 294.321Z" fill="#2D2D40"/>
<path opacity="0.83" d="M200.442 294.05C202.06 290.505 193.505 283.128 181.334 277.573C169.163 272.019 157.985 270.391 156.367 273.936C154.749 277.482 163.304 284.859 175.475 290.413C187.646 295.967 198.824 297.596 200.442 294.05Z" fill="#2D2D40"/>
<path opacity="0.86" d="M199.848 293.779C201.422 290.329 193.098 283.151 181.255 277.747C169.413 272.342 158.536 270.758 156.962 274.208C155.387 277.658 163.711 284.836 175.554 290.24C187.397 295.644 198.273 297.229 199.848 293.779Z" fill="#2D2D40"/>
<path opacity="0.9" d="M199.253 293.508C200.784 290.153 192.691 283.174 181.176 277.92C169.662 272.665 159.087 271.124 157.556 274.479C156.025 277.833 164.119 284.812 175.633 290.067C187.147 295.322 197.722 296.862 199.253 293.508Z" fill="#2D2D40"/>
<path opacity="0.93" d="M198.66 293.237C200.147 289.978 192.284 283.198 181.097 278.093C169.911 272.987 159.636 271.491 158.149 274.749C156.662 278.008 164.525 284.789 175.712 289.894C186.899 294.999 197.173 296.496 198.66 293.237Z" fill="#2D2D40"/>
<path opacity="0.97" d="M198.066 292.966C199.509 289.803 191.877 283.221 181.018 278.266C170.16 273.31 160.187 271.858 158.743 275.021C157.3 278.184 164.932 284.765 175.791 289.721C186.649 294.676 196.622 296.129 198.066 292.966Z" fill="#2D2D40"/>
<path d="M197.471 292.694C198.871 289.627 191.47 283.244 180.939 278.439C170.409 273.633 160.738 272.224 159.338 275.292C157.938 278.36 165.339 284.742 175.87 289.548C186.4 294.353 196.071 295.762 197.471 292.694Z" fill="#2D2D40"/>
</g>
<g opacity="0.5">
<path opacity="0.03" d="M94.5652 242.828C97.1865 237.085 83.328 225.134 63.6114 216.136C43.8948 207.138 25.7864 204.501 23.1651 210.244C20.5439 215.988 34.4024 227.939 54.119 236.937C73.8356 245.934 91.944 248.572 94.5652 242.828Z" fill="#2D2D40"/>
<path opacity="0.07" d="M93.971 242.557C96.5486 236.909 82.9209 225.157 63.5326 216.309C44.1443 207.461 26.3374 204.867 23.7598 210.516C21.1821 216.164 34.8099 227.915 54.1981 236.763C73.5864 245.611 91.3933 248.205 93.971 242.557Z" fill="#2D2D40"/>
<path opacity="0.1" d="M93.3778 242.287C95.9118 236.734 82.5142 225.181 63.4534 216.482C44.3925 207.784 26.8864 205.233 24.3524 210.786C21.8184 216.339 35.216 227.892 54.2769 236.59C73.3377 245.289 90.8438 247.839 93.3778 242.287Z" fill="#2D2D40"/>
<path opacity="0.14" d="M92.7836 242.015C95.274 236.558 82.1071 225.204 63.3746 216.655C44.642 208.107 27.4374 205.6 24.947 211.057C22.4566 216.515 35.6235 227.869 54.356 236.417C73.0886 244.966 90.2932 247.472 92.7836 242.015Z" fill="#2D2D40"/>
<path opacity="0.17" d="M92.1891 241.744C94.6359 236.382 81.6998 225.227 63.2955 216.828C44.8913 208.429 27.9882 205.967 25.5414 211.329C23.0946 216.69 36.0307 227.845 54.4349 236.244C72.8392 244.643 89.7423 247.105 92.1891 241.744Z" fill="#2D2D40"/>
<path opacity="0.21" d="M91.5946 241.473C93.9978 236.207 81.2924 225.251 63.2165 217.002C45.1405 208.752 28.5389 206.334 26.1357 211.6C23.7326 216.866 36.4379 227.822 54.5138 236.071C72.5898 244.32 89.1914 246.739 91.5946 241.473Z" fill="#2D2D40"/>
<path opacity="0.24" d="M91.0019 241.202C93.3614 236.032 80.8862 225.274 63.1377 217.175C45.3892 209.075 29.0884 206.7 26.7289 211.871C24.3693 217.041 36.8446 227.799 54.5931 235.898C72.3416 243.998 88.6423 246.373 91.0019 241.202Z" fill="#2D2D40"/>
<path opacity="0.28" d="M90.4074 240.931C92.7233 235.856 80.4789 225.298 63.0587 217.348C45.6385 209.398 29.6392 207.067 27.3232 212.142C25.0073 217.217 37.2518 227.775 54.672 235.725C72.0922 243.675 88.0915 246.006 90.4074 240.931Z" fill="#2D2D40"/>
<path opacity="0.31" d="M89.8127 240.66C92.085 235.68 80.0713 225.321 62.9794 217.521C45.8875 209.721 30.1897 207.434 27.9174 212.413C25.6451 217.392 37.6587 227.752 54.7506 235.552C71.8426 243.352 87.5404 245.639 89.8127 240.66Z" fill="#2D2D40"/>
<path opacity="0.34" d="M89.2182 240.388C91.4469 235.505 79.664 225.344 62.9004 217.694C46.1368 210.044 30.7404 207.801 28.5117 212.684C26.283 217.568 38.0659 227.729 54.8296 235.379C71.5932 243.029 86.9895 245.272 89.2182 240.388Z" fill="#2D2D40"/>
<path opacity="0.38" d="M88.6253 240.118C90.8103 235.33 79.2575 225.368 62.8214 217.867C46.3852 210.366 31.2897 208.167 29.1046 212.955C26.9195 217.743 38.4723 227.705 54.9085 235.206C71.3447 242.707 86.4402 244.906 88.6253 240.118Z" fill="#2D2D40"/>
<path opacity="0.41" d="M88.031 239.847C90.1725 235.154 78.8505 225.391 62.7426 218.04C46.6347 210.689 31.8407 208.534 29.6992 213.226C27.5578 217.919 38.8798 227.682 54.9877 235.033C71.0956 242.384 85.8896 244.539 88.031 239.847Z" fill="#2D2D40"/>
<path opacity="0.45" d="M87.4365 239.575C89.5344 234.978 78.4431 225.414 62.6635 218.213C46.8839 211.012 32.3914 208.901 30.2936 213.498C28.1958 218.095 39.287 227.659 55.0666 234.86C70.8462 242.061 85.3387 244.172 87.4365 239.575Z" fill="#2D2D40"/>
<path opacity="0.48" d="M86.8423 239.304C88.8965 234.803 78.036 225.437 62.5847 218.386C47.1334 211.335 32.9424 209.267 30.8882 213.769C28.834 218.27 39.6945 227.635 55.1458 234.687C70.597 241.738 84.7881 243.805 86.8423 239.304Z" fill="#2D2D40"/>
<path opacity="0.52" d="M86.2491 239.033C88.2597 234.628 77.6293 225.461 62.5055 218.559C47.3817 211.657 33.4915 209.634 31.4809 214.039C29.4702 218.445 40.1006 227.612 55.2245 234.514C70.3483 241.415 84.2385 243.439 86.2491 239.033Z" fill="#2D2D40"/>
<path opacity="0.55" d="M85.6549 238.762C87.6219 234.452 77.2223 225.484 62.4267 218.732C47.6312 211.98 34.0424 210 32.0755 214.311C30.1085 218.621 40.5081 227.589 55.3036 234.341C70.0992 241.093 83.6879 243.072 85.6549 238.762Z" fill="#2D2D40"/>
<path opacity="0.59" d="M85.0604 238.491C86.9837 234.276 76.8149 225.507 62.3477 218.905C47.8804 212.303 34.5932 210.367 32.6698 214.582C30.7465 218.796 40.9153 227.565 55.3825 234.167C69.8498 240.77 83.137 242.705 85.0604 238.491Z" fill="#2D2D40"/>
<path opacity="0.62" d="M84.4661 238.219C86.3459 234.1 76.4078 225.531 62.2689 219.078C48.1299 212.626 35.1442 210.734 33.2644 214.853C31.3847 218.972 41.3227 227.542 55.4617 233.994C69.6007 240.447 82.5864 242.339 84.4661 238.219Z" fill="#2D2D40"/>
<path opacity="0.66" d="M83.8729 237.949C85.7091 233.926 76.0011 225.554 62.1896 219.251C48.3781 212.948 35.6932 211.1 33.8571 215.124C32.0209 219.147 41.7289 227.519 55.5404 233.822C69.3519 240.125 82.0368 241.972 83.8729 237.949Z" fill="#2D2D40"/>
<path opacity="0.69" d="M83.2787 237.678C85.0712 233.75 75.594 225.578 62.1108 219.424C48.6276 213.271 36.2442 211.467 34.4517 215.395C32.6592 219.323 42.1364 227.495 55.6196 233.648C69.1028 239.802 81.4862 241.606 83.2787 237.678Z" fill="#2D2D40"/>
<path opacity="0.72" d="M82.6842 237.406C84.4331 233.574 75.1867 225.601 62.0318 219.597C48.8769 213.594 36.7949 211.834 35.046 215.666C33.2972 219.499 42.5436 227.472 55.6985 233.475C68.8534 239.479 80.9353 241.239 82.6842 237.406Z" fill="#2D2D40"/>
<path opacity="0.76" d="M82.09 237.135C83.7953 233.398 74.7796 225.624 61.953 219.77C49.1264 213.917 37.3459 212.201 35.6407 215.937C33.9354 219.674 42.951 227.449 55.7777 233.302C68.6043 239.156 80.3847 240.872 82.09 237.135Z" fill="#2D2D40"/>
<path opacity="0.79" d="M81.497 236.865C83.1587 233.223 74.3732 225.648 61.874 219.944C49.3748 214.239 37.8952 212.567 36.2336 216.208C34.5719 219.849 43.3574 227.425 55.8566 233.129C68.3558 238.833 79.8354 240.506 81.497 236.865Z" fill="#2D2D40"/>
<path opacity="0.83" d="M80.9026 236.593C82.5206 233.048 73.9658 225.671 61.795 220.117C49.6241 214.562 38.446 212.934 36.8279 216.48C35.2099 220.025 43.7646 227.402 55.9355 232.956C68.1064 238.511 79.2845 240.139 80.9026 236.593Z" fill="#2D2D40"/>
<path opacity="0.86" d="M80.3081 236.322C81.8825 232.872 73.5585 225.694 61.7159 220.29C49.8733 214.885 38.9967 213.301 37.4223 216.751C35.8479 220.201 44.1718 227.379 56.0144 232.783C67.857 238.188 78.7336 239.772 80.3081 236.322Z" fill="#2D2D40"/>
<path opacity="0.9" d="M79.7138 236.051C81.2446 232.696 73.1514 225.717 61.6371 220.463C50.1228 215.208 39.5477 213.668 38.0169 217.022C36.4861 220.376 44.5793 227.355 56.0936 232.61C67.6079 237.865 78.183 239.405 79.7138 236.051Z" fill="#2D2D40"/>
<path opacity="0.93" d="M79.1209 235.78C80.6081 232.521 72.745 225.741 61.5581 220.636C50.3713 215.531 40.097 214.034 38.6098 217.293C37.1226 220.551 44.9857 227.332 56.1725 232.437C67.3594 237.542 77.6337 239.039 79.1209 235.78Z" fill="#2D2D40"/>
<path opacity="0.97" d="M78.5264 235.509C79.97 232.346 72.3376 225.764 61.4791 220.809C50.6205 215.853 40.6477 214.401 39.2041 217.564C37.7606 220.727 45.3929 227.309 56.2515 232.264C67.11 237.219 77.0828 238.672 78.5264 235.509Z" fill="#2D2D40"/>
<path d="M77.9317 235.238C79.3316 232.17 71.9301 225.787 61.3998 220.982C50.8696 216.176 41.1982 214.767 39.7983 217.835C38.3983 220.903 45.7999 227.285 56.3301 232.091C66.8604 236.896 76.5317 238.305 77.9317 235.238Z" fill="#2D2D40"/>
</g>
<g opacity="0.5">
<path opacity="0.03" d="M272.62 242.825C275.242 237.081 261.383 225.131 241.667 216.133C221.95 207.135 203.842 204.497 201.22 210.241C198.599 215.985 212.458 227.935 232.174 236.933C251.891 245.931 269.999 248.569 272.62 242.825Z" fill="#2D2D40"/>
<path opacity="0.07" d="M272.026 242.554C274.604 236.906 260.976 225.154 241.588 216.306C222.199 207.458 204.392 204.864 201.815 210.512C199.237 216.161 212.865 227.912 232.253 236.76C251.641 245.608 269.448 248.202 272.026 242.554Z" fill="#2D2D40"/>
<path opacity="0.1" d="M271.433 242.283C273.967 236.731 260.569 225.178 241.509 216.479C222.448 207.781 204.942 205.23 202.408 210.783C199.874 216.336 213.271 227.889 232.332 236.587C251.393 245.286 268.899 247.836 271.433 242.283Z" fill="#2D2D40"/>
<path opacity="0.14" d="M270.838 242.012C273.329 236.555 260.162 225.201 241.429 216.652C222.697 208.103 205.492 205.597 203.002 211.054C200.512 216.511 213.678 227.865 232.411 236.414C251.144 244.963 268.348 247.469 270.838 242.012Z" fill="#2D2D40"/>
<path opacity="0.17" d="M270.244 241.741C272.691 236.379 259.755 225.224 241.351 216.825C222.946 208.426 206.043 205.964 203.597 211.326C201.15 216.687 214.086 227.842 232.49 236.241C250.894 244.64 267.797 247.102 270.244 241.741Z" fill="#2D2D40"/>
<path opacity="0.21" d="M269.65 241.469C272.053 236.203 259.348 225.247 241.272 216.998C223.196 208.749 206.594 206.331 204.191 211.597C201.788 216.863 214.493 227.819 232.569 236.068C250.645 244.317 267.247 246.735 269.65 241.469Z" fill="#2D2D40"/>
<path opacity="0.24" d="M269.057 241.199C271.416 236.029 258.941 225.271 241.193 217.171C223.444 209.072 207.143 206.697 204.784 211.867C202.424 217.038 214.899 227.795 232.648 235.895C250.396 243.995 266.697 246.369 269.057 241.199Z" fill="#2D2D40"/>
<path opacity="0.28" d="M268.462 240.928C270.778 235.853 258.534 225.294 241.114 217.344C223.693 209.395 207.694 207.064 205.378 212.139C203.062 217.213 215.307 227.772 232.727 235.722C250.147 243.672 266.146 246.002 268.462 240.928Z" fill="#2D2D40"/>
<path opacity="0.31" d="M267.868 240.656C270.14 235.677 258.126 225.318 241.035 217.518C223.943 209.717 208.245 207.431 205.973 212.41C203.7 217.389 215.714 227.749 232.806 235.549C249.898 243.349 265.596 245.636 267.868 240.656Z" fill="#2D2D40"/>
<path opacity="0.34" d="M267.274 240.385C269.502 235.501 257.719 225.341 240.956 217.691C224.192 210.04 208.796 207.798 206.567 212.681C204.338 217.565 216.121 227.726 232.885 235.376C249.649 243.026 265.045 245.269 267.274 240.385Z" fill="#2D2D40"/>
<path opacity="0.38" d="M266.681 240.115C268.866 235.326 257.313 225.364 240.877 217.864C224.441 210.363 209.345 208.164 207.16 212.952C204.975 217.74 216.528 227.702 232.964 235.203C249.4 242.704 264.496 244.903 266.681 240.115Z" fill="#2D2D40"/>
<path opacity="0.41" d="M266.086 239.843C268.228 235.151 256.906 225.388 240.798 218.037C224.69 210.686 209.896 208.531 207.754 213.223C205.613 217.916 216.935 227.679 233.043 235.03C249.151 242.381 263.945 244.536 266.086 239.843Z" fill="#2D2D40"/>
<path opacity="0.45" d="M265.492 239.572C267.59 234.975 256.499 225.411 240.719 218.21C224.939 211.009 210.447 208.897 208.349 213.494C206.251 218.091 217.342 227.655 233.122 234.857C248.902 242.058 263.394 244.169 265.492 239.572Z" fill="#2D2D40"/>
<path opacity="0.48" d="M264.897 239.301C266.951 234.799 256.091 225.434 240.64 218.383C225.188 211.332 210.997 209.264 208.943 213.766C206.889 218.267 217.749 227.632 233.201 234.684C248.652 241.735 262.843 243.802 264.897 239.301Z" fill="#2D2D40"/>
<path opacity="0.52" d="M264.305 239.03C266.315 234.624 255.685 225.458 240.561 218.556C225.437 211.654 211.547 209.63 209.536 214.036C207.526 218.442 218.156 227.609 233.28 234.511C248.404 241.412 262.294 243.436 264.305 239.03Z" fill="#2D2D40"/>
<path opacity="0.55" d="M263.71 238.759C265.677 234.449 255.277 225.481 240.482 218.729C225.686 211.977 212.097 209.997 210.13 214.307C208.163 218.618 218.563 227.585 233.359 234.337C248.154 241.089 261.743 243.069 263.71 238.759Z" fill="#2D2D40"/>
<path opacity="0.59" d="M263.115 238.488C265.039 234.273 254.87 225.504 240.403 218.902C225.935 212.3 212.648 210.364 210.725 214.579C208.801 218.793 218.97 227.562 233.437 234.164C247.905 240.767 261.192 242.702 263.115 238.488Z" fill="#2D2D40"/>
<path opacity="0.62" d="M262.521 238.216C264.401 234.097 254.463 225.527 240.324 219.075C226.185 212.623 213.199 210.731 211.319 214.85C209.44 218.969 219.378 227.539 233.517 233.991C247.656 240.444 260.641 242.335 262.521 238.216Z" fill="#2D2D40"/>
<path opacity="0.66" d="M261.928 237.946C263.764 233.922 254.056 225.551 240.245 219.248C226.433 212.945 213.748 211.097 211.912 215.121C210.076 219.144 219.784 227.515 233.596 233.818C247.407 240.121 260.092 241.969 261.928 237.946Z" fill="#2D2D40"/>
<path opacity="0.69" d="M261.334 237.675C263.126 233.747 253.649 225.574 240.166 219.421C226.683 213.268 214.299 211.464 212.507 215.392C210.714 219.32 220.191 227.492 233.674 233.645C247.158 239.798 259.541 241.602 261.334 237.675Z" fill="#2D2D40"/>
<path opacity="0.72" d="M260.739 237.403C262.488 233.571 253.242 225.598 240.087 219.594C226.932 213.591 214.85 211.831 213.101 215.663C211.352 219.495 220.599 227.469 233.754 233.472C246.909 239.475 258.991 241.235 260.739 237.403Z" fill="#2D2D40"/>
<path opacity="0.76" d="M260.145 237.132C261.85 233.395 252.835 225.621 240.008 219.767C227.181 213.914 215.401 212.198 213.696 215.934C211.99 219.671 221.006 227.446 233.833 233.299C246.659 239.153 258.44 240.869 260.145 237.132Z" fill="#2D2D40"/>
<path opacity="0.79" d="M259.552 236.861C261.214 233.22 252.428 225.644 239.929 219.94C227.43 214.236 215.95 212.564 214.288 216.205C212.627 219.846 221.412 227.422 233.912 233.126C246.411 238.83 257.89 240.503 259.552 236.861Z" fill="#2D2D40"/>
<path opacity="0.83" d="M258.957 236.59C260.576 233.045 252.021 225.668 239.85 220.113C227.679 214.559 216.501 212.931 214.883 216.476C213.265 220.022 221.82 227.399 233.99 232.953C246.161 238.507 257.339 240.136 258.957 236.59Z" fill="#2D2D40"/>
<path opacity="0.86" d="M258.363 236.319C259.938 232.869 251.614 225.691 239.771 220.286C227.929 214.882 217.052 213.298 215.477 216.748C213.903 220.198 222.227 227.375 234.07 232.78C245.912 238.184 256.789 239.769 258.363 236.319Z" fill="#2D2D40"/>
<path opacity="0.9" d="M257.769 236.048C259.3 232.693 251.206 225.714 239.692 220.46C228.178 215.205 217.603 213.664 216.072 217.019C214.541 220.373 222.634 227.352 234.149 232.607C245.663 237.862 256.238 239.402 257.769 236.048Z" fill="#2D2D40"/>
<path opacity="0.93" d="M257.176 235.777C258.663 232.518 250.8 225.738 239.613 220.633C228.426 215.527 218.152 214.031 216.665 217.289C215.178 220.548 223.041 227.329 234.227 232.434C245.414 237.539 255.689 239.036 257.176 235.777Z" fill="#2D2D40"/>
<path opacity="0.97" d="M256.581 235.506C258.025 232.342 250.393 225.761 239.534 220.806C228.675 215.85 218.703 214.397 217.259 217.561C215.816 220.724 223.448 227.305 234.306 232.261C245.165 237.216 255.138 238.669 256.581 235.506Z" fill="#2D2D40"/>
<path d="M255.987 235.234C257.387 232.167 249.985 225.784 239.455 220.979C228.925 216.173 219.254 214.764 217.854 217.832C216.454 220.9 223.855 227.282 234.386 232.088C244.916 236.893 254.587 238.302 255.987 235.234Z" fill="#2D2D40"/>
</g>
<g opacity="0.5">
<path opacity="0.03" d="M165.888 254.125C168.509 248.381 154.65 236.43 134.934 227.432C115.217 218.435 97.1087 215.797 94.4874 221.541C91.8662 227.284 105.725 239.235 125.441 248.233C145.158 257.231 163.266 259.868 165.888 254.125Z" fill="#2D2D40"/>
<path opacity="0.07" d="M165.293 253.853C167.871 248.205 154.243 236.453 134.855 227.605C115.466 218.757 97.6594 216.163 95.0818 221.812C92.5041 227.46 106.132 239.212 125.52 248.06C144.908 256.908 162.715 259.501 165.293 253.853Z" fill="#2D2D40"/>
<path opacity="0.1" d="M164.7 253.583C167.234 248.03 153.837 236.477 134.776 227.778C115.715 219.08 98.2089 216.53 95.6749 222.082C93.1409 227.635 106.539 239.188 125.599 247.887C144.66 256.585 162.166 259.135 164.7 253.583Z" fill="#2D2D40"/>
<path opacity="0.14" d="M164.106 253.311C166.596 247.854 153.429 236.5 134.697 227.952C115.964 219.403 98.7597 216.897 96.2693 222.354C93.7789 227.811 106.946 239.165 125.678 247.714C144.411 256.262 161.615 258.769 164.106 253.311Z" fill="#2D2D40"/>
<path opacity="0.17" d="M163.511 253.04C165.958 247.679 153.022 236.523 134.618 228.125C116.214 219.726 99.3104 217.263 96.8636 222.625C94.4169 227.986 107.353 239.141 125.757 247.54C144.161 255.939 161.065 258.402 163.511 253.04Z" fill="#2D2D40"/>
<path opacity="0.21" d="M162.917 252.769C165.32 247.503 152.615 236.547 134.539 228.298C116.463 220.049 99.8612 217.63 97.458 222.896C95.0548 228.162 107.76 239.118 125.836 247.367C143.912 255.617 160.514 258.035 162.917 252.769Z" fill="#2D2D40"/>
<path opacity="0.24" d="M162.324 252.498C164.683 247.328 152.208 236.57 134.46 228.471C116.711 220.371 100.41 217.996 98.0509 223.167C95.6914 228.337 108.167 239.095 125.915 247.194C143.664 255.294 159.964 257.669 162.324 252.498Z" fill="#2D2D40"/>
<path opacity="0.28" d="M161.73 252.227C164.046 247.152 151.801 236.594 134.381 228.644C116.961 220.694 100.961 218.363 98.6455 223.438C96.3296 228.513 108.574 239.071 125.994 247.021C143.414 254.971 159.414 257.302 161.73 252.227Z" fill="#2D2D40"/>
<path opacity="0.31" d="M161.135 251.956C163.407 246.977 151.394 236.617 134.302 228.817C117.21 221.017 101.512 218.73 99.2399 223.709C96.9676 228.689 108.981 239.048 126.073 246.848C143.165 254.648 158.863 256.935 161.135 251.956Z" fill="#2D2D40"/>
<path opacity="0.34" d="M160.541 251.685C162.769 246.801 150.987 236.64 134.223 228.99C117.459 221.34 102.063 219.097 99.8342 223.981C97.6055 228.864 109.388 239.025 126.152 246.675C142.916 254.325 158.312 256.568 160.541 251.685Z" fill="#2D2D40"/>
<path opacity="0.38" d="M159.948 251.414C162.133 246.626 150.58 236.664 134.144 229.163C117.708 221.662 102.612 219.463 100.427 224.251C98.2421 229.039 109.795 239.001 126.231 246.502C142.667 254.003 157.763 256.202 159.948 251.414Z" fill="#2D2D40"/>
<path opacity="0.41" d="M159.353 251.143C161.495 246.45 150.173 236.687 134.065 229.336C117.957 221.985 103.163 219.83 101.021 224.522C98.88 229.215 110.202 238.978 126.31 246.329C142.418 253.68 157.212 255.835 159.353 251.143Z" fill="#2D2D40"/>
<path opacity="0.45" d="M158.759 250.871C160.857 246.275 149.766 236.71 133.986 229.509C118.206 222.308 103.714 220.197 101.616 224.794C99.5183 229.391 110.61 238.955 126.389 246.156C142.169 253.357 156.661 255.468 158.759 250.871Z" fill="#2D2D40"/>
<path opacity="0.48" d="M158.165 250.6C160.219 246.099 149.358 236.733 133.907 229.682C118.456 222.631 104.265 220.564 102.21 225.065C100.156 229.566 111.017 238.932 126.468 245.983C141.919 253.034 156.11 255.101 158.165 250.6Z" fill="#2D2D40"/>
<path opacity="0.52" d="M157.572 250.329C159.582 245.924 148.952 236.757 133.828 229.855C118.704 222.953 104.814 220.93 102.803 225.335C100.793 229.741 111.423 238.908 126.547 245.81C141.671 252.712 155.561 254.735 157.572 250.329Z" fill="#2D2D40"/>
<path opacity="0.55" d="M156.977 250.058C158.944 245.748 148.545 236.78 133.749 230.028C118.954 223.276 105.365 221.297 103.398 225.607C101.431 229.917 111.831 238.885 126.626 245.637C141.422 252.389 155.01 254.368 156.977 250.058Z" fill="#2D2D40"/>
<path opacity="0.59" d="M156.383 249.787C158.306 245.572 148.137 236.803 133.67 230.201C119.203 223.599 105.916 221.663 103.992 225.878C102.069 230.093 112.238 238.861 126.705 245.464C141.172 252.066 154.46 254.001 156.383 249.787Z" fill="#2D2D40"/>
<path opacity="0.62" d="M155.789 249.516C157.668 245.397 147.73 236.827 133.591 230.374C119.452 223.922 106.467 222.03 104.587 226.149C102.707 230.268 112.645 238.838 126.784 245.291C140.923 251.743 153.909 253.635 155.789 249.516Z" fill="#2D2D40"/>
<path opacity="0.66" d="M155.195 249.245C157.032 245.222 147.324 236.851 133.512 230.548C119.701 224.245 107.016 222.397 105.18 226.42C103.343 230.443 113.051 238.815 126.863 245.118C140.674 251.421 153.359 253.269 155.195 249.245Z" fill="#2D2D40"/>
<path opacity="0.69" d="M154.601 248.974C156.394 245.046 146.916 236.874 133.433 230.721C119.95 224.567 107.566 222.763 105.774 226.691C103.981 230.619 113.459 238.791 126.942 244.945C140.425 251.098 152.808 252.902 154.601 248.974Z" fill="#2D2D40"/>
<path opacity="0.72" d="M154.007 248.703C155.756 244.87 146.509 236.897 133.354 230.894C120.199 224.89 108.117 223.13 106.369 226.963C104.62 230.795 113.866 238.768 127.021 244.772C140.176 250.775 152.258 252.535 154.007 248.703Z" fill="#2D2D40"/>
<path opacity="0.76" d="M153.412 248.431C155.117 244.694 146.102 236.92 133.275 231.067C120.448 225.213 108.668 223.497 106.963 227.234C105.257 230.97 114.273 238.745 127.1 244.598C139.926 250.452 151.707 252.168 153.412 248.431Z" fill="#2D2D40"/>
<path opacity="0.79" d="M152.819 248.161C154.481 244.52 145.695 236.944 133.196 231.24C120.697 225.536 109.217 223.863 107.556 227.504C105.894 231.146 114.68 238.721 127.179 244.425C139.678 250.13 151.158 251.802 152.819 248.161Z" fill="#2D2D40"/>
<path opacity="0.83" d="M152.225 247.89C153.843 244.344 145.288 236.967 133.117 231.413C120.947 225.859 109.768 224.23 108.15 227.776C106.532 231.321 115.087 238.698 127.258 244.252C139.429 249.807 150.607 251.435 152.225 247.89Z" fill="#2D2D40"/>
<path opacity="0.86" d="M151.63 247.618C153.205 244.168 144.881 236.99 133.038 231.586C121.196 226.181 110.319 224.597 108.745 228.047C107.17 231.497 115.494 238.675 127.337 244.079C139.179 249.484 150.056 251.068 151.63 247.618Z" fill="#2D2D40"/>
<path opacity="0.9" d="M151.036 247.347C152.567 243.993 144.473 237.014 132.959 231.759C121.445 226.504 110.87 224.964 109.339 228.318C107.808 231.673 115.901 238.652 127.416 243.906C138.93 249.161 149.505 250.701 151.036 247.347Z" fill="#2D2D40"/>
<path opacity="0.93" d="M150.443 247.076C151.93 243.817 144.067 237.037 132.88 231.932C121.693 226.827 111.419 225.33 109.932 228.589C108.445 231.847 116.308 238.628 127.495 243.733C138.681 248.838 148.956 250.335 150.443 247.076Z" fill="#2D2D40"/>
<path opacity="0.97" d="M149.849 246.805C151.292 243.642 143.66 237.06 132.801 232.105C121.943 227.15 111.97 225.697 110.526 228.86C109.083 232.023 116.715 238.605 127.574 243.56C138.432 248.515 148.405 249.968 149.849 246.805Z" fill="#2D2D40"/>
<path d="M149.254 246.534C150.654 243.466 143.253 237.084 132.722 232.278C122.192 227.472 112.521 226.064 111.121 229.131C109.721 232.199 117.122 238.581 127.653 243.387C138.183 248.193 147.854 249.601 149.254 246.534Z" fill="#2D2D40"/>
</g>
<path d="M285.219 245.671L191.512 199.996C189.444 198.987 187.767 196.494 187.767 194.425V118.67C187.767 116.603 189.444 115.743 191.512 116.75L285.219 162.426C287.286 163.434 288.964 165.928 288.964 167.998V243.752C288.964 245.82 287.286 246.68 285.219 245.673V245.671Z" fill="url(#paint6_linear_40_847)"/>
<path d="M283.767 245.863L190.059 200.186C187.992 199.179 186.314 196.684 186.314 194.615V118.861C186.314 116.793 187.992 115.933 190.059 116.94L283.767 162.617C285.834 163.626 287.512 166.119 287.512 168.188V243.942C287.512 246.01 285.834 246.87 283.767 245.863Z" fill="url(#paint7_linear_40_847)"/>
<path d="M215.383 139.634L197.559 131.001C196.951 130.709 196.451 129.975 196.451 129.365C196.451 128.756 196.949 128.494 197.559 128.786L215.383 137.419C215.992 137.708 216.491 138.444 216.491 139.055C216.491 139.663 215.994 139.925 215.383 139.634Z" fill="#9F9FA5"/>
<path d="M227.541 151.239L197.561 136.952C196.952 136.663 196.453 135.927 196.453 135.316C196.453 134.708 196.951 134.446 197.561 134.737L227.541 149.024C228.15 149.314 228.649 150.05 228.649 150.66C228.649 151.269 228.151 151.531 227.541 151.239Z" fill="#9F9FA5"/>
<path d="M227.541 157.193L197.561 142.906C196.952 142.616 196.453 141.88 196.453 141.27C196.453 140.661 196.951 140.4 197.561 140.691L227.541 154.978C228.15 155.267 228.649 156.003 228.649 156.614C228.649 157.223 228.151 157.484 227.541 157.193Z" fill="#9F9FA5"/>
<path d="M190.478 191.947L279.638 237.815V197.794C279.638 197.794 279.282 181.567 274.824 180.26C270.366 178.955 270.869 191.829 264.181 189.52C257.495 187.212 260.114 158.696 251.581 158.337C244.412 158.036 247.062 198.206 234.557 194.961C222.051 191.715 230.352 181.901 223.171 179.425C215.989 176.948 213.512 190.084 208.064 189.212C202.615 188.341 190.48 169.199 190.48 169.199V191.945L190.478 191.947Z" fill="url(#paint8_linear_40_847)"/>
<path d="M190.478 174.763L206.472 173.253L218.463 189.216L235.941 181.211L238.365 202.204L254.792 173.253L261.47 199.114L273.645 183.602L285.035 186.94" stroke="#68CDB5" stroke-width="0.827084" stroke-miterlimit="10"/>
<path d="M192.618 181.307L219.14 181.211L223.677 189.897L235.058 188.633L244.311 199.749L254.107 181.942L272.078 195.467L283.892 181.211" stroke="#FEA509" stroke-width="0.827084" stroke-miterlimit="10"/>
<path d="M30.23 132.752L30.0993 132.807L30.0911 132.76C30.1374 132.76 30.1837 132.752 30.23 132.752Z" fill="url(#paint9_linear_40_847)"/>
<path d="M64.834 49.9593L60.4885 47.837V38.1783L64.834 40.3023V49.9593Z" fill="#DED9EA"/>
<path d="M72.5606 53.7358L68.2151 51.6119V39.5381L72.5606 41.662V53.7358Z" fill="#DED9EA"/>
<path d="M80.2886 57.5106L75.9414 55.3866V37.4224L80.2886 39.5463V57.5106Z" fill="#DED9EA"/>
<path d="M88.0154 61.2872L83.6682 59.1632V33.7601L88.0154 35.8841V61.2872Z" fill="#DED9EA"/>
<path d="M95.7419 65.062L91.3948 62.938V44.9738L95.7419 47.0977V65.062Z" fill="#DED9EA"/>
<path d="M165.283 186.432C165.283 186.432 163.835 191.523 159.725 194.569C155.614 197.614 149.595 199.455 153.33 201.557C157.065 203.66 164.424 206.101 167.878 200.891C171.332 195.68 171.815 195.636 174.839 194.569C177.861 193.502 178.802 192.172 179.239 189.876C179.676 187.578 178.379 185.926 178.379 185.926C178.379 185.926 170.358 188.552 165.283 186.433V186.432Z" fill="url(#paint10_linear_40_847)"/>
<path d="M191.093 192.603C191.093 192.603 188.746 198.931 184.029 202.383C179.313 205.835 177.095 208.374 182.013 210.43C186.931 212.487 190.317 210.672 192.977 207.044C195.637 203.417 196.604 202.8 199.023 202.383C201.441 201.966 202.892 200.757 203.254 197.614C203.616 194.469 202.698 191.823 202.698 191.823L191.093 192.603Z" fill="url(#paint11_linear_40_847)"/>
<path d="M163.435 92.465C163.435 92.465 161.586 122.614 162.548 144.71C163.511 166.808 165.283 186.432 165.283 186.432C165.283 186.432 168.538 188.774 173.099 187.714C177.659 186.652 178.976 185.555 178.976 185.555C178.976 185.555 176.123 172.917 178.976 160.251C181.829 147.585 186.297 118.859 185.599 118.078C184.901 117.297 188.193 93.8016 188.193 93.8016C188.193 93.8016 163.228 84.9816 163.433 92.4667L163.435 92.465Z" fill="url(#paint12_linear_40_847)"/>
<path d="M176.809 98.4696C176.809 98.4696 179.27 128.322 182.015 141.232C184.759 154.141 190.066 191.283 190.066 191.283C190.066 191.283 192.11 195.172 196.92 194.486C201.732 193.799 203.104 191.283 203.104 191.283C203.104 191.283 205.396 172.785 203.337 159.451C201.277 146.116 198.985 137.796 198.985 137.796C198.985 137.796 204.194 117.282 202.374 105.548C201.187 97.889 199.309 94.1969 199.309 94.1969C199.309 94.1969 190.014 98.2992 176.807 98.4696H176.809Z" fill="url(#paint13_linear_40_847)"/>
<path d="M168.431 32.5991C168.431 32.5991 155.798 58.9814 153.237 58.9814C150.677 58.9814 130.198 55.7227 130.198 55.7227L127.871 66.6601C127.871 66.6601 148.116 74.6894 153.818 74.4562C159.52 74.2229 172.551 60.9581 172.551 60.9581L168.429 32.5974L168.431 32.5991Z" fill="url(#paint14_linear_40_847)"/>
<path d="M184.033 32.3392C184.033 32.3392 173.918 30.0052 170.158 31.3021C166.398 32.5989 164.322 42.0658 164.841 54.1246C165.361 66.1852 163.415 90.8224 163.415 90.8224C163.415 90.8224 164.841 97.6955 178.587 100.029C192.333 102.364 200.632 97.1761 200.632 97.1761C200.632 97.1761 201.152 63.9785 202.189 56.7167C203.226 49.4549 209.451 43.619 209.451 43.619L184.035 32.3376L184.033 32.3392Z" fill="url(#paint15_linear_40_847)"/>
<path d="M209.449 43.6206C206.296 44.0887 201.964 47.23 201.221 58.9829C200.479 70.7341 200.13 74.3418 198.384 74.3418C196.639 74.3418 169.412 72.2477 169.412 72.2477C169.412 72.2477 171.39 74.3418 170.575 77.9496C169.761 81.5573 169.412 81.7277 169.412 81.7277C169.412 81.7277 202.108 90.5146 207.692 87.4908C213.277 84.4653 216.302 53.3984 215.139 49.0926C213.977 44.7868 209.449 43.6206 209.449 43.6206Z" fill="url(#paint16_linear_40_847)"/>
<path d="M170.022 73.1526C170.022 73.1526 167.799 73.5678 165.753 71.2602C163.707 68.9526 163.759 64.3226 160.716 63.9554C157.672 63.5882 153.034 62.1921 151.271 63.4509C149.507 64.7097 149.332 68.9146 154.167 70.6283C159.002 72.342 159.401 79.5972 161.723 80.6509C164.046 81.7046 169.413 81.7245 169.413 81.7245C169.413 81.7245 172.53 77.9381 170.024 73.1493L170.022 73.1526Z" fill="url(#paint17_linear_40_847)"/>
<path d="M156.155 51.8833L124.036 38.3687C122.526 37.7335 120.868 38.8815 120.933 40.5192L121.874 64.6171C121.921 65.7949 122.643 66.8403 123.73 67.2968L157.123 81.3474C158.178 81.7923 159.339 80.9884 159.295 79.8437L158.325 55.0146C158.273 53.6384 157.426 52.416 156.155 51.8817V51.8833Z" fill="url(#paint18_linear_40_847)"/>
<path d="M155.187 52.3911L123.068 38.8766C121.558 38.2414 119.901 39.3893 119.965 41.027L120.906 65.1249C120.953 66.3027 121.676 67.3481 122.762 67.8047L156.155 81.8552C157.21 82.3001 158.372 81.4962 158.327 80.3515L157.358 55.5225C157.305 54.1462 156.458 52.9238 155.187 52.3895V52.3911Z" fill="url(#paint19_linear_40_847)"/>
<path d="M118.372 53.5308C118.372 53.5308 119.401 48.9702 120.294 49.4466C121.187 49.923 120.625 54.5067 121.268 54.6672C121.912 54.8276 125.45 52.0718 126.818 53.5308C128.186 54.9897 128.62 57.4098 124.727 60.3393C120.835 63.2705 118.132 60.9993 118.374 53.5308H118.372Z" fill="url(#paint20_linear_40_847)"/>
<path d="M177.833 9.80782C177.833 9.80782 176.534 14.896 176.759 15.4039C176.984 15.9117 177.61 17.6205 177.538 18.1283C177.467 18.6361 176.902 20.0041 176.902 21.1885C176.902 22.3729 176.281 29.8166 177.634 30.8323C178.988 31.848 182.372 31.9604 182.372 31.9604L182.033 36.4151C182.033 36.4151 181.017 37.98 185.586 38.5788C190.153 39.1776 194.158 37.3166 194.158 37.3166C194.158 37.3166 194.778 20.7369 195.738 16.9025C196.697 13.0682 188.238 8.61185 187.617 8.66975C186.997 8.72599 177.833 9.80782 177.833 9.80782Z" fill="url(#paint21_linear_40_847)"/>
<path d="M190.099 11.9402C190.099 11.9402 187.505 14.4214 182.711 14.0261C177.917 13.6307 173.736 8.66823 173.736 8.66823C173.736 8.66823 178.199 4.72139 185.417 1.33696C192.636 -2.04747 198.783 1.7323 200.192 4.43852C201.602 7.14474 200.629 9.00568 200.629 9.00568C200.629 9.00568 204.816 9.56975 204.816 14.3073C204.816 19.0448 198.838 23.4433 197.203 25.6996C195.567 27.9558 194.102 29.7605 193.877 27.7855C193.652 25.812 196.189 20.0026 194.497 19.2136C192.805 18.4245 192.128 19.9464 192.355 21.9198C192.58 23.8932 192.58 24.7964 191.678 24.7401C190.777 24.6839 190.042 20.7354 190.946 16.9573C191.847 13.1792 190.1 11.9385 190.1 11.9385L190.099 11.9402Z" fill="url(#paint22_linear_40_847)"/>
<path d="M182.347 32.2979C182.347 32.2979 184.577 32.5841 187.821 31.2376L191.063 29.8911C191.063 29.8911 188.749 31.6379 186.704 33.3004C184.66 34.9628 183.644 38.1818 183.644 38.1818C183.644 38.1818 181.793 37.9337 181.939 36.8287C182.086 35.7237 182.345 32.2963 182.345 32.2963L182.347 32.2979Z" fill="#FFACA6"/>
<path d="M108.297 202.37L60.6467 179.115C58.7064 178.169 57.1316 175.829 57.1316 173.888V73.7398C57.1316 71.7995 58.7047 70.9923 60.6467 71.9384L108.297 95.1927C110.237 96.1389 111.812 98.4796 111.812 100.42V200.568C111.812 202.509 110.239 203.316 108.297 202.37Z" fill="url(#paint23_linear_40_847)"/>
<path d="M106.934 202.55L59.2839 179.296C57.3436 178.35 55.7688 176.009 55.7688 174.069V73.9203C55.7688 71.9799 57.3419 71.1727 59.2839 72.1189L106.934 95.3732C108.874 96.3194 110.449 98.66 110.449 100.6V200.749C110.449 202.689 108.876 203.496 106.934 202.55Z" fill="url(#paint24_linear_40_847)"/>
<path d="M67.3429 120.531L62.1819 118.01V106.544L67.3429 109.065V120.531Z" fill="url(#paint25_linear_40_847)"/>
<path d="M76.5153 125.013L71.356 122.492V108.158L76.5153 110.679V125.013Z" fill="url(#paint26_linear_40_847)"/>
<path d="M85.6893 129.495L80.5283 126.974V105.646L85.6893 108.168V129.495Z" fill="url(#paint27_linear_40_847)"/>
<path d="M94.8617 133.978L89.7024 131.455V101.298L94.8617 103.821V133.978Z" fill="url(#paint28_linear_40_847)"/>
<path d="M104.036 138.459L98.8765 135.938V114.611L104.036 117.132V138.459Z" fill="url(#paint29_linear_40_847)"/>
<path d="M79.3358 143.865L61.5899 135.268C60.9828 134.979 60.4866 134.246 60.4866 133.641C60.4866 133.033 60.9828 132.774 61.5899 133.063L79.3358 141.66C79.9429 141.949 80.4392 142.682 80.4392 143.288C80.4392 143.895 79.9429 144.154 79.3358 143.865Z" fill="#9F9FA5"/>
<path d="M91.4413 155.423L61.5901 141.197C60.9831 140.907 60.4868 140.174 60.4868 139.569C60.4868 138.962 60.9831 138.702 61.5901 138.992L91.4413 153.218C92.0484 153.507 92.5446 154.24 92.5446 154.845C92.5446 155.452 92.0484 155.712 91.4413 155.423Z" fill="#9F9FA5"/>
<path d="M91.4413 161.349L61.5901 147.124C60.9831 146.834 60.4868 146.101 60.4868 145.496C60.4868 144.889 60.9831 144.629 61.5901 144.919L91.4413 159.144C92.0484 159.434 92.5446 160.167 92.5446 160.772C92.5446 161.379 92.0484 161.639 91.4413 161.349Z" fill="#9F9FA5"/>
<path d="M200.226 267.233L100.85 218.794C98.6564 217.725 96.8782 215.08 96.8782 212.887V132.552C96.8782 130.358 98.6564 129.447 100.85 130.516L200.226 178.955C202.419 180.023 204.197 182.668 204.197 184.862V265.196C204.197 267.39 202.419 268.301 200.226 267.233Z" fill="url(#paint30_linear_40_847)"/>
<path d="M198.686 267.436L99.3098 218.997C97.1164 217.929 95.3381 215.283 95.3381 213.09V132.755C95.3381 130.562 97.1164 129.65 99.3098 130.719L198.686 179.158C200.879 180.227 202.657 182.872 202.657 185.065V265.4C202.657 267.593 200.879 268.505 198.686 267.436Z" fill="url(#paint31_linear_40_847)"/>
<path d="M94.9678 207.042C94.9678 207.042 103.528 177.651 109.357 177.651C115.187 177.651 113.357 190.941 118.644 191.21C123.932 191.48 126.005 180.119 131.09 181.287C136.175 182.455 137.791 205.893 147.16 202.743C156.529 199.594 162.742 173.148 168.583 173.253C175.575 173.377 170.51 194.964 176.809 196.697C186.648 199.405 194.713 182.647 194.713 182.647V256.676L94.9678 207.042Z" fill="url(#paint32_linear_40_847)"/>
<path d="M164.833 192.673C170.71 193.182 166.562 215.118 173.407 216.377C180.252 217.636 183.414 202.669 187.813 204.318C194.714 206.904 194.714 256.677 194.714 256.677L94.9692 207.044C94.9692 207.044 104.507 184.855 108.204 186.023C111.903 187.191 110.345 202.568 117.158 204.125C123.97 205.681 127.32 197.915 130.504 198.876C134.226 199.999 133.731 211.33 143.977 213.148C154.222 214.966 157.285 192.019 164.835 192.674L164.833 192.673Z" fill="url(#paint33_linear_40_847)"/>
<path d="M126.166 154.782L107.266 145.626C106.619 145.319 106.091 144.538 106.091 143.893C106.091 143.246 106.619 142.97 107.266 143.277L126.166 152.433C126.813 152.741 127.341 153.522 127.341 154.167C127.341 154.814 126.813 155.09 126.166 154.782Z" fill="#9F9FA5"/>
<path d="M139.059 167.091L107.264 151.939C106.618 151.631 106.09 150.85 106.09 150.205C106.09 149.558 106.618 149.282 107.264 149.59L139.059 164.742C139.706 165.05 140.234 165.83 140.234 166.476C140.234 167.122 139.706 167.399 139.059 167.091Z" fill="#9F9FA5"/>
<path d="M139.059 173.403L107.264 158.251C106.618 157.943 106.09 157.163 106.09 156.517C106.09 155.871 106.618 155.594 107.264 155.902L139.059 171.054C139.706 171.362 140.234 172.143 140.234 172.788C140.234 173.435 139.706 173.711 139.059 173.403Z" fill="#9F9FA5"/>
<path d="M96.9281 241.573L21.8155 204.961C20.1581 204.153 18.8132 202.154 18.8132 200.497V147.838C18.8132 146.181 20.1581 145.491 21.8155 146.3L96.9281 182.911C98.5855 183.72 99.9304 185.718 99.9304 187.376V240.035C99.9304 241.692 98.5855 242.382 96.9281 241.573Z" fill="url(#paint34_linear_40_847)"/>
<path d="M95.7652 241.727L20.6527 205.115C18.9952 204.306 17.6504 202.308 17.6504 200.651V147.992C17.6504 146.334 18.9952 145.645 20.6527 146.453L95.7652 183.065C97.4227 183.874 98.7675 185.872 98.7675 187.53V240.189C98.7675 241.846 97.4227 242.536 95.7652 241.727Z" fill="url(#paint35_linear_40_847)"/>
<path d="M66.5065 199.435C66.3956 200.146 63.3321 201.536 63.0675 202.11C61.5489 205.398 60.5283 205.625 55.9694 203.402C51.2865 201.119 47.3115 196.156 45.8856 191.26L37.188 184.806C37.8116 194.942 45.9799 206.707 55.9711 211.577C66.3675 216.645 74.7972 212.324 74.7972 201.928C74.7972 201.278 74.7641 200.618 74.6996 199.953L66.5098 199.435H66.5065Z" fill="url(#paint36_linear_40_847)"/>
<path d="M63.0673 202.11C62.3179 206.894 57.8864 208.688 52.5302 206.077C47.8473 203.794 43.8723 198.831 42.4464 193.935L33.7488 187.48C34.3724 197.617 42.5407 209.382 52.5319 214.251C62.9283 219.32 71.358 214.999 71.358 204.603C71.358 203.953 71.3249 203.293 71.2604 202.628L63.0706 202.11H63.0673Z" fill="url(#paint37_linear_40_847)"/>
<path d="M37.1861 184.807L33.7471 187.482L42.4447 193.936L45.8854 191.262L37.1861 184.807Z" fill="url(#paint38_linear_40_847)"/>
<path d="M71.2572 202.628L63.0675 202.11C63.0625 202.146 63.0542 202.181 63.0476 202.218L71.0422 202.722C71.1067 203.387 71.1398 204.047 71.1398 204.697C71.1398 210.058 68.8984 213.803 65.3039 215.479C69.0241 213.853 71.3548 210.068 71.3548 204.601C71.3548 203.951 71.3218 203.291 71.2572 202.626V202.628Z" fill="url(#paint39_linear_40_847)"/>
<path d="M42.2314 194.033C43.6573 198.929 47.6322 203.891 52.3152 206.174C55.1868 207.574 57.7905 207.706 59.706 206.791C57.8136 207.597 55.296 207.426 52.5302 206.078C47.8473 203.795 43.8723 198.833 42.4464 193.937L33.7488 187.482C33.7537 187.571 33.762 187.662 33.7686 187.752L42.2314 194.033Z" fill="url(#paint40_linear_40_847)"/>
<path d="M45.3329 188.094C45.3246 187.916 45.3196 187.737 45.3196 187.562C45.3196 181.679 50.0886 179.236 55.9708 182.103C61.2443 184.673 65.6212 190.64 66.4698 196.087L70.6929 199.324L74.1319 196.65C71.9567 187.598 64.6519 178.159 55.9708 173.928C46.0723 169.103 37.9652 172.792 37.2092 182.126L41.8938 190.769L45.3329 188.094Z" fill="url(#paint41_linear_40_847)"/>
<path d="M41.8924 190.769C41.8842 190.59 41.8792 190.412 41.8792 190.236C41.8792 184.354 46.6482 181.909 52.5304 184.778C57.8039 187.348 62.1808 193.315 63.0294 198.762L70.6915 199.324C68.5163 190.273 61.2115 180.834 52.5304 176.603C42.6318 171.778 34.5248 175.466 33.7688 184.801L41.8941 190.769H41.8924Z" fill="url(#paint42_linear_40_847)"/>
<path d="M52.5304 176.935C61.1023 181.113 68.3294 190.369 70.6038 199.316L70.6915 199.323C68.5163 190.271 61.2115 180.832 52.5304 176.601C42.6318 171.776 34.5248 175.464 33.7688 184.799L33.7986 184.82C34.7084 175.716 42.7443 172.163 52.5304 176.933V176.935Z" fill="url(#paint43_linear_40_847)"/>
<path d="M41.8792 190.569C41.8792 190.633 41.8825 190.698 41.8841 190.762L41.8924 190.769C41.8874 190.647 41.8858 190.526 41.8841 190.405C41.8841 190.46 41.8792 190.514 41.8792 190.569Z" fill="url(#paint44_linear_40_847)"/>
<path d="M214.519 266.765C214.829 270.2 214.334 273.138 213.181 275.505C212.022 277.872 210.209 279.667 207.88 280.81L207.833 280.827C207.603 280.941 207.365 281.05 207.122 281.148L194.59 286.767L191.859 287.991L182.678 275.734C172.9 269.148 164.979 258.697 162.565 248.872L154.22 237.729L167.427 231.504C171.807 228.749 178.412 228.629 186.041 231.791C193.419 234.854 200.34 240.394 205.519 246.849C210.543 253.108 213.934 260.226 214.521 266.765H214.519Z" fill="url(#paint45_linear_40_847)"/>
<path d="M214.519 266.765C214.828 270.2 214.334 273.138 213.181 275.505C212.021 277.872 210.208 279.667 207.879 280.81L207.833 280.827C207.603 280.941 207.365 281.05 207.122 281.148L194.59 286.767L192.458 253.015L205.519 246.847C210.543 253.106 213.934 260.224 214.521 266.763L214.519 266.765Z" fill="url(#paint46_linear_40_847)"/>
<path d="M173.418 261.997L194.608 287.053C190.271 289.088 184.2 288.917 177.291 286.052C162.76 280.026 150.012 264.369 148.817 251.083C147.623 237.797 158.433 231.91 172.965 237.934C180.349 240.998 187.277 246.549 192.458 253.015L173.42 261.996L173.418 261.997Z" fill="url(#paint47_linear_40_847)"/>
<path d="M201.438 272.91C202.065 279.879 199.39 284.812 194.608 287.053L173.418 261.997L192.456 253.017C197.467 259.271 200.851 266.376 201.438 272.912V272.91Z" fill="url(#paint48_linear_40_847)"/>
<path d="M173.782 262.427L173.418 262.599L194.239 287.22C194.363 287.167 194.487 287.112 194.608 287.055L173.782 262.427Z" fill="url(#paint49_linear_40_847)"/>
<path d="M172.965 238.536C180.184 241.532 186.964 246.903 192.104 253.182L192.458 253.015C187.277 246.549 180.349 240.999 172.965 237.934C159.055 232.166 148.556 237.317 148.732 249.421C148.909 237.749 159.289 232.864 172.965 238.536Z" fill="url(#paint50_linear_40_847)"/>
<path d="M201.438 272.91C200.851 266.376 197.467 259.27 192.456 253.015L173.418 261.996L173.458 262.042L192.241 253.182C197.251 259.437 200.636 266.541 201.223 273.077C201.743 278.855 199.991 283.232 196.653 285.837C200.133 283.253 201.971 278.812 201.44 272.911L201.438 272.91Z" fill="url(#paint51_linear_40_847)"/>
<path d="M317.043 121.653V167.111C317.043 169.319 315.619 170.454 313.864 169.643L236.343 133.842C234.588 133.032 233.18 130.59 233.18 128.38V82.9219C233.18 80.7136 234.588 79.5706 236.343 80.3811L313.864 116.182C315.619 116.993 317.043 119.443 317.043 121.651V121.653Z" fill="url(#paint52_linear_40_847)"/>
<g opacity="0.64">
<path d="M271.052 133.998L271.806 136.269L273.494 137.357L272.273 138.29L272.561 140.538L271.052 138.843L269.543 139.145L269.831 137.164L268.612 135.103L270.298 135.572L271.052 133.998Z" fill="white"/>
<path d="M278.72 137.539L279.475 139.81L281.162 140.899L279.941 141.832L280.229 144.08L278.72 142.384L277.212 142.687L277.5 140.705L276.281 138.644L277.966 139.114L278.72 137.539Z" fill="white"/>
<path d="M286.389 141.081L287.143 143.354L288.831 144.441L287.61 145.374L287.898 147.622L286.389 145.926L284.881 146.229L285.168 144.247L283.949 142.186L285.635 142.656L286.389 141.081Z" fill="white"/>
<path d="M294.058 144.623L294.812 146.895L296.499 147.982L295.279 148.917L295.566 151.163L294.058 149.469L292.549 149.77L292.837 147.789L291.618 145.728L293.304 146.197L294.058 144.623Z" fill="white"/>
<path d="M301.727 148.164L302.481 150.437L304.168 151.524L302.947 152.458L303.235 154.705L301.727 153.011L300.218 153.312L300.506 151.33L299.287 149.269L300.972 149.74L301.727 148.164Z" fill="white"/>
</g>
<g opacity="0.64">
<path d="M302.589 127.412L268.677 111.751C268.64 111.734 268.61 111.69 268.61 111.653V109.911C268.61 109.875 268.64 109.858 268.677 109.875L302.589 125.537C302.625 125.553 302.655 125.598 302.655 125.634V127.376C302.655 127.412 302.625 127.429 302.589 127.412Z" fill="white"/>
<path d="M302.588 141.385L268.676 125.724C268.64 125.707 268.61 125.662 268.61 125.626V123.884C268.61 123.848 268.64 123.831 268.676 123.848L302.588 139.509C302.625 139.526 302.655 139.571 302.655 139.607V141.349C302.655 141.385 302.625 141.402 302.588 141.385Z" fill="white"/>
<path d="M312.917 137.199L268.678 116.768C268.642 116.751 268.612 116.707 268.612 116.67V114.929C268.612 114.892 268.642 114.876 268.678 114.892L312.917 135.323C312.953 135.339 312.983 135.384 312.983 135.42V137.162C312.983 137.199 312.953 137.215 312.917 137.199Z" fill="white"/>
<path d="M297.73 134.525L268.678 121.108C268.642 121.092 268.612 121.047 268.612 121.011V119.269C268.612 119.233 268.642 119.216 268.678 119.233L297.73 132.65C297.767 132.666 297.796 132.711 297.796 132.747V134.489C297.796 134.525 297.767 134.542 297.73 134.525Z" fill="white"/>
</g>
<path d="M317.043 121.653V125.05L233.181 86.3196V82.9219C233.181 80.7136 234.589 79.5706 236.344 80.3811L313.865 116.182C315.62 116.993 317.044 119.443 317.044 121.651L317.043 121.653Z" fill="url(#paint53_linear_40_847)"/>
<path d="M248.502 115.1V117.692C248.502 117.692 248.942 118.743 251.006 119.666C253.071 120.589 253.357 120.063 253.357 120.063V116.74L248.502 115.1Z" fill="url(#paint54_linear_40_847)"/>
<path d="M255.4 107.184C255.4 107.184 256.586 119.477 251.05 117.8L250.81 117.689C245.273 114.252 246.459 103.053 246.459 103.053L255.4 107.182V107.184Z" fill="url(#paint55_linear_40_847)"/>
<path d="M260.415 127.449C258.121 129.763 254.725 130.324 250.94 128.575C247.142 126.82 243.745 123.123 241.45 118.69C241.736 118.047 242.009 117.433 242.267 116.975C242.568 116.482 242.841 116.121 243.099 116.005C244.519 115.344 248.231 116.968 248.504 117.094L248.518 117.1C248.518 117.1 248.375 117.539 249.379 118.508C249.852 118.961 252.03 119.967 252.488 119.944C253.291 119.917 253.364 119.535 253.364 119.391V119.337C253.364 119.337 257.305 121.193 258.783 123.247C259.041 123.601 259.314 124.213 259.6 124.977C259.873 125.681 260.144 126.546 260.417 127.447L260.415 127.449Z" fill="url(#paint56_linear_40_847)"/>
<path d="M256.028 106.289C256.028 106.289 256.04 106.289 256.038 106.289C256.01 106.141 255.683 102.019 251.764 99.9697C247.845 97.9202 247.121 100.492 247.121 100.492C247.121 100.492 245.348 99.5379 245.381 103.774C245.414 108.011 246.586 109.67 246.586 109.67C246.586 109.67 246.264 107.122 246.692 107.299C247.121 107.476 246.821 109.718 247.086 109.658C247.351 109.599 247.875 107.607 247.596 105.314C247.596 105.314 250.206 107.372 252.077 107.782C253.948 108.193 254.095 109.749 254.235 111.115C254.376 112.48 254.407 114.123 254.67 113.162C254.933 112.201 254.844 110.981 255.294 111.337C255.744 111.691 254.722 113.694 255.172 113.747C255.491 113.785 256.727 109.739 256.025 106.29L256.028 106.289Z" fill="url(#paint57_linear_40_847)"/>
<path d="M248.519 117.1L250.639 119.262L248.96 119.962L247.528 116.644C247.528 116.644 247.91 116.106 248.519 117.1Z" fill="#F3F7F6"/>
<path d="M252.762 119.061L250.641 119.262L252.32 121.512L253.752 119.517C253.752 119.517 253.37 118.625 252.762 119.061Z" fill="#F3F7F6"/>
<path d="M251.372 120.728L251.655 120.622L250.639 119.262L249.625 119.684L249.908 120.053L249.177 127.604L250.639 128.428L252.103 128.956L251.372 120.728Z" fill="url(#paint58_linear_40_847)"/>
<path d="M250.941 97.2553C244.061 94.0776 238.485 98.5025 238.485 107.162C238.485 111.041 239.603 115.112 241.452 118.69C243.747 123.123 247.143 126.82 250.942 128.575C254.727 130.324 258.123 129.763 260.418 127.449C262.267 125.578 263.385 122.541 263.385 118.662C263.385 110.002 257.809 100.426 250.942 97.2553H250.941ZM259.599 124.979C257.65 127.416 254.496 128.125 250.941 126.483C247.386 124.84 244.233 121.219 242.268 116.975C240.935 114.103 240.147 110.944 240.147 107.93C240.147 100.425 244.977 96.5936 250.941 99.3478C256.889 102.095 261.721 110.388 261.721 117.894C261.721 120.908 260.932 123.34 259.6 124.979H259.599Z" fill="white"/>
<path d="M349.384 110.537C349.384 113.491 348.59 115.774 347.342 117.109C346.095 118.488 344.367 118.862 342.468 117.985L230.34 66.2C226.514 64.4333 223.396 58.2137 223.396 52.3496C223.396 49.44 224.161 47.1423 225.437 45.8206C226.684 44.4857 228.413 44.0672 230.34 44.9572L342.468 96.7426C346.266 98.496 349.384 104.716 349.384 110.537Z" fill="white" stroke="#BFBFBF" stroke-width="0.124063" stroke-miterlimit="10"/>
<path d="M349.383 110.537C349.383 113.491 348.589 115.774 347.342 117.109C346.095 118.489 344.366 118.862 342.467 117.986L320.955 108.051V86.8079L342.467 96.7428C346.265 98.4962 349.383 104.716 349.383 110.537Z" fill="url(#paint59_linear_40_847)"/>
<path d="M337.346 107.917L337.229 108.001L334.658 103.354C334.827 103.234 334.835 102.906 334.678 102.622L334.478 102.261C335.381 100.828 335.252 98.3307 333.912 96.1207C332.557 93.8859 330.424 92.7925 328.974 93.5998C327.259 94.5559 327.107 97.6607 328.587 100.336C329.77 102.473 331.593 103.569 333.055 103.277L333.255 103.637C333.413 103.922 333.677 104.054 333.844 103.933L336.415 108.58L336.297 108.664C336.22 108.719 336.216 108.871 336.288 109.002L339.255 114.365C339.343 114.525 339.492 114.599 339.588 114.532L340.573 113.827C340.668 113.759 340.673 113.574 340.585 113.415L337.618 108.052C337.545 107.922 337.424 107.86 337.346 107.915V107.917ZM329.274 100.395C327.775 98.0495 327.855 95.1464 329.438 94.3524C330.609 93.7652 332.286 94.6104 333.394 96.3457C334.891 98.6913 334.814 101.593 333.231 102.387C332.06 102.974 330.382 102.129 329.274 100.393V100.395Z" fill="#F3F7F6"/>
<path d="M304.923 92.5213L229.582 57.7258C229.474 57.6762 229.387 57.5488 229.387 57.4413V52.8377C229.387 52.7302 229.474 52.6839 229.582 52.7335L304.923 87.529C305.03 87.5786 305.118 87.706 305.118 87.8135V92.417C305.118 92.5246 305.03 92.5709 304.923 92.5213Z" fill="#DBDBDB"/>
<path d="M48.3534 141.382L12.276 125.82C9.02718 124.418 6.39209 120.647 6.39209 117.398V76.1201C6.39209 72.8713 9.02553 71.3726 12.276 72.7753L48.3534 88.3378C51.6022 89.7388 54.2373 93.5103 54.2373 96.7591V138.037C54.2373 141.286 51.6038 142.785 48.3534 141.382Z" fill="url(#paint60_linear_40_847)"/>
<path d="M51.2016 96.1421V136.047C51.2016 137.533 50.3481 138.398 49.2844 137.938L11.3295 121.565C10.2824 121.113 9.41235 119.504 9.41235 118.02V78.1149C9.41235 76.608 10.2824 75.7726 11.3295 76.2242L49.2844 92.5972C50.3481 93.0554 51.2016 94.6351 51.2016 96.1421Z" fill="#F3F7F6"/>
<path d="M51.2016 119.784V136.047C51.2016 137.533 50.3481 138.398 49.2844 137.938L11.3295 121.565C10.2824 121.113 9.41235 119.504 9.41235 118.02V99.9285L22.2834 87.7555L33.7865 113.756L42.7918 106.105L51.2016 119.784Z" fill="url(#paint61_linear_40_847)"/>
<path d="M41.5872 102.18C43.1938 101.661 43.803 99.0948 42.948 96.4476C42.093 93.8004 40.0975 92.0751 38.491 92.594C36.8844 93.1129 36.2752 95.6795 37.1302 98.3267C37.9852 100.974 39.9807 102.699 41.5872 102.18Z" fill="url(#paint62_linear_40_847)"/>
</g>
<defs>
<linearGradient id="paint0_linear_40_847" x1="278.625" y1="288.787" x2="-22.3691" y2="186.202" gradientUnits="userSpaceOnUse">
<stop stop-color="#001251"/>
<stop offset="1" stop-color="#000D56"/>
</linearGradient>
<linearGradient id="paint1_linear_40_847" x1="245.313" y1="226.606" x2="65.0849" y2="227.799" gradientUnits="userSpaceOnUse">
<stop stop-color="#55545E"/>
<stop offset="1" stop-color="#2B2B3F"/>
</linearGradient>
<linearGradient id="paint2_linear_40_847" x1="245.313" y1="226.009" x2="65.0849" y2="227.204" gradientUnits="userSpaceOnUse">
<stop stop-color="#B2B2BB"/>
<stop offset="0.15" stop-color="#EBEBF2"/>
<stop offset="0.29" stop-color="white"/>
<stop offset="0.42" stop-color="#E1E1E6"/>
<stop offset="1" stop-color="#CBCBCD"/>
</linearGradient>
<linearGradient id="paint3_linear_40_847" x1="278.625" y1="253.89" x2="-22.3691" y2="151.305" gradientUnits="userSpaceOnUse">
<stop stop-color="#55545E"/>
<stop offset="1" stop-color="#2B2B3F"/>
</linearGradient>
<linearGradient id="paint4_linear_40_847" x1="6.15214" y1="216.377" x2="331.016" y2="216.377" gradientUnits="userSpaceOnUse">
<stop stop-color="#F0F1F8"/>
<stop offset="1" stop-color="#CBCBCD"/>
</linearGradient>
<linearGradient id="paint5_linear_40_847" x1="164.31" y1="347.47" x2="168.117" y2="230.873" gradientUnits="userSpaceOnUse">
<stop stop-color="#B2B2BB"/>
<stop offset="0.15" stop-color="#EBEBF2"/>
<stop offset="0.29" stop-color="white"/>
<stop offset="0.42" stop-color="#E1E1E6"/>
<stop offset="1" stop-color="#CBCBCD"/>
</linearGradient>
<linearGradient id="paint6_linear_40_847" x1="238.364" y1="145.317" x2="238.364" y2="223.09" gradientUnits="userSpaceOnUse">
<stop stop-color="#55545E"/>
<stop offset="1" stop-color="#2B2B3F"/>
</linearGradient>
<linearGradient id="paint7_linear_40_847" x1="236.914" y1="208.303" x2="236.914" y2="155.94" gradientUnits="userSpaceOnUse">
<stop stop-color="#F0F1F8"/>
<stop offset="1" stop-color="white"/>
</linearGradient>
<linearGradient id="paint8_linear_40_847" x1="224.455" y1="232.743" x2="251.363" y2="158.551" gradientUnits="userSpaceOnUse">
<stop stop-color="#38ACA8"/>
<stop offset="1" stop-color="#5F637A"/>
</linearGradient>
<linearGradient id="paint9_linear_40_847" x1="30.0927" y1="132.78" x2="30.23" y2="132.78" gradientUnits="userSpaceOnUse">
<stop stop-color="#EA8D32"/>
<stop offset="1" stop-color="#FFC900"/>
</linearGradient>
<linearGradient id="paint10_linear_40_847" x1="153.321" y1="198.411" x2="177.173" y2="191.373" gradientUnits="userSpaceOnUse">
<stop stop-color="#245FAD"/>
<stop offset="1" stop-color="#000D56"/>
</linearGradient>
<linearGradient id="paint11_linear_40_847" x1="179.843" y1="204.657" x2="201.739" y2="198.194" gradientUnits="userSpaceOnUse">
<stop stop-color="#245FAD"/>
<stop offset="1" stop-color="#000D56"/>
</linearGradient>
<linearGradient id="paint12_linear_40_847" x1="164.823" y1="138.916" x2="183.034" y2="138.173" gradientUnits="userSpaceOnUse">
<stop stop-color="#55545E"/>
<stop offset="1" stop-color="#2B2B3F"/>
</linearGradient>
<linearGradient id="paint13_linear_40_847" x1="184.638" y1="146.214" x2="198.585" y2="144.277" gradientUnits="userSpaceOnUse">
<stop stop-color="#55545E"/>
<stop offset="1" stop-color="#2B2B3F"/>
</linearGradient>
<linearGradient id="paint14_linear_40_847" x1="150.213" y1="40.597" x2="150.213" y2="64.68" gradientUnits="userSpaceOnUse">
<stop stop-color="#FFAC06"/>
<stop offset="1" stop-color="#F87C18"/>
</linearGradient>
<linearGradient id="paint15_linear_40_847" x1="157.803" y1="59.7174" x2="202.154" y2="72.1352" gradientUnits="userSpaceOnUse">
<stop stop-color="#38ACA8"/>
<stop offset="1" stop-color="#5F637A"/>
</linearGradient>
<linearGradient id="paint16_linear_40_847" x1="181.657" y1="60.1408" x2="225.187" y2="74.3104" gradientUnits="userSpaceOnUse">
<stop stop-color="#FFAC06"/>
<stop offset="1" stop-color="#F87C18"/>
</linearGradient>
<linearGradient id="paint17_linear_40_847" x1="153.36" y1="69.7351" x2="177.709" y2="77.6618" gradientUnits="userSpaceOnUse">
<stop stop-color="#FFC7C7"/>
<stop offset="1" stop-color="#FFA4A4"/>
</linearGradient>
<linearGradient id="paint18_linear_40_847" x1="157.302" y1="82.7" x2="126.73" y2="41.8578" gradientUnits="userSpaceOnUse">
<stop stop-color="#55545E"/>
<stop offset="1" stop-color="#2B2B3F"/>
</linearGradient>
<linearGradient id="paint19_linear_40_847" x1="115.788" y1="26.4885" x2="167.619" y2="101.462" gradientUnits="userSpaceOnUse">
<stop stop-color="#F0F1F8"/>
<stop offset="1" stop-color="#CBCBCD"/>
</linearGradient>
<linearGradient id="paint20_linear_40_847" x1="119.685" y1="55.1386" x2="129.83" y2="58.442" gradientUnits="userSpaceOnUse">
<stop stop-color="#FFC7C7"/>
<stop offset="1" stop-color="#FFA4A4"/>
</linearGradient>
<linearGradient id="paint21_linear_40_847" x1="178.817" y1="21.1968" x2="203.401" y2="29.1996" gradientUnits="userSpaceOnUse">
<stop stop-color="#FFC7C7"/>
<stop offset="1" stop-color="#FFA4A4"/>
</linearGradient>
<linearGradient id="paint22_linear_40_847" x1="179.565" y1="9.70705" x2="211.884" y2="20.2276" gradientUnits="userSpaceOnUse">
<stop stop-color="#55545E"/>
<stop offset="1" stop-color="#2B2B3F"/>
</linearGradient>
<linearGradient id="paint23_linear_40_847" x1="84.4717" y1="100.857" x2="84.4717" y2="179.504" gradientUnits="userSpaceOnUse">
<stop stop-color="#55545E"/>
<stop offset="1" stop-color="#2B2B3F"/>
</linearGradient>
<linearGradient id="paint24_linear_40_847" x1="84.5199" y1="88.1891" x2="81.3075" y2="200.107" gradientUnits="userSpaceOnUse">
<stop stop-color="#F0F1F8"/>
<stop offset="1" stop-color="#BCBCBC"/>
</linearGradient>
<linearGradient id="paint25_linear_40_847" x1="67.816" y1="98.9263" x2="62.5954" y2="123.906" gradientUnits="userSpaceOnUse">
<stop stop-color="#FFAC06"/>
<stop offset="1" stop-color="#F87C18"/>
</linearGradient>
<linearGradient id="paint26_linear_40_847" x1="77.215" y1="100.89" x2="71.9961" y2="125.869" gradientUnits="userSpaceOnUse">
<stop stop-color="#FFAC06"/>
<stop offset="1" stop-color="#F87C18"/>
</linearGradient>
<linearGradient id="paint27_linear_40_847" x1="86.2021" y1="102.767" x2="80.9832" y2="127.747" gradientUnits="userSpaceOnUse">
<stop stop-color="#FFAC06"/>
<stop offset="1" stop-color="#F87C18"/>
</linearGradient>
<linearGradient id="paint28_linear_40_847" x1="95.0056" y1="104.607" x2="89.7851" y2="129.586" gradientUnits="userSpaceOnUse">
<stop stop-color="#FFAC06"/>
<stop offset="1" stop-color="#F87C18"/>
</linearGradient>
<linearGradient id="paint29_linear_40_847" x1="105.576" y1="106.815" x2="100.357" y2="131.796" gradientUnits="userSpaceOnUse">
<stop stop-color="#FFAC06"/>
<stop offset="1" stop-color="#F87C18"/>
</linearGradient>
<linearGradient id="paint30_linear_40_847" x1="150.538" y1="160.81" x2="150.538" y2="243.287" gradientUnits="userSpaceOnUse">
<stop stop-color="#55545E"/>
<stop offset="1" stop-color="#2B2B3F"/>
</linearGradient>
<linearGradient id="paint31_linear_40_847" x1="147.542" y1="151.325" x2="149.836" y2="226.55" gradientUnits="userSpaceOnUse">
<stop stop-color="#F0F1F8"/>
<stop offset="1" stop-color="#CBCBCD"/>
</linearGradient>
<linearGradient id="paint32_linear_40_847" x1="144.841" y1="175.214" x2="144.841" y2="203.552" gradientUnits="userSpaceOnUse">
<stop stop-color="#FFAC06"/>
<stop offset="1" stop-color="#F87C18"/>
</linearGradient>
<linearGradient id="paint33_linear_40_847" x1="144.146" y1="237.476" x2="149.701" y2="192.549" gradientUnits="userSpaceOnUse">
<stop stop-color="#38ACA8"/>
<stop offset="1" stop-color="#5F637A"/>
</linearGradient>
<linearGradient id="paint34_linear_40_847" x1="59.3718" y1="167.395" x2="59.3718" y2="224.902" gradientUnits="userSpaceOnUse">
<stop stop-color="#55545E"/>
<stop offset="1" stop-color="#2B2B3F"/>
</linearGradient>
<linearGradient id="paint35_linear_40_847" x1="46.7753" y1="163.152" x2="62.3692" y2="205.352" gradientUnits="userSpaceOnUse">
<stop stop-color="#F0F1F8"/>
<stop offset="1" stop-color="#BCBCBC"/>
</linearGradient>
<linearGradient id="paint36_linear_40_847" x1="72.7278" y1="217.998" x2="51.4453" y2="190.481" gradientUnits="userSpaceOnUse">
<stop stop-color="#38ACA8"/>
<stop offset="1" stop-color="#5F637A"/>
</linearGradient>
<linearGradient id="paint37_linear_40_847" x1="-174.36" y1="93.9253" x2="-136.834" y2="112.212" gradientUnits="userSpaceOnUse">
<stop stop-color="#38ACA8"/>
<stop offset="1" stop-color="#5F637A"/>
</linearGradient>
<linearGradient id="paint38_linear_40_847" x1="34.1689" y1="186.618" x2="45.4636" y2="192.124" gradientUnits="userSpaceOnUse">
<stop stop-color="#38ACA8"/>
<stop offset="1" stop-color="#5F637A"/>
</linearGradient>
<linearGradient id="paint39_linear_40_847" x1="63.0476" y1="208.796" x2="71.3548" y2="208.796" gradientUnits="userSpaceOnUse">
<stop stop-color="#38ACA8"/>
<stop offset="1" stop-color="#B9DFE0"/>
</linearGradient>
<linearGradient id="paint40_linear_40_847" x1="33.7471" y1="197.427" x2="59.706" y2="197.427" gradientUnits="userSpaceOnUse">
<stop stop-color="#38ACA8"/>
<stop offset="1" stop-color="#B9DFE0"/>
</linearGradient>
<linearGradient id="paint41_linear_40_847" x1="-163.111" y1="79.61" x2="-126.269" y2="97.5634" gradientUnits="userSpaceOnUse">
<stop stop-color="#FFEFB5"/>
<stop offset="1" stop-color="#FFC900"/>
</linearGradient>
<linearGradient id="paint42_linear_40_847" x1="33.7688" y1="186.902" x2="70.6915" y2="186.902" gradientUnits="userSpaceOnUse">
<stop stop-color="#EA8D32"/>
<stop offset="1" stop-color="#FFC900"/>
</linearGradient>
<linearGradient id="paint43_linear_40_847" x1="64.9863" y1="187.73" x2="35.2112" y2="184.256" gradientUnits="userSpaceOnUse">
<stop stop-color="white"/>
<stop offset="1" stop-color="#FFC900"/>
</linearGradient>
<linearGradient id="paint44_linear_40_847" x1="41.8792" y1="190.587" x2="41.8924" y2="190.587" gradientUnits="userSpaceOnUse">
<stop stop-color="#E9EBF7"/>
<stop offset="1" stop-color="#FFC900"/>
</linearGradient>
<linearGradient id="paint45_linear_40_847" x1="133.935" y1="258.788" x2="191.624" y2="258.788" gradientUnits="userSpaceOnUse">
<stop stop-color="#38ACA8"/>
<stop offset="1" stop-color="#5F637A"/>
</linearGradient>
<linearGradient id="paint46_linear_40_847" x1="182.122" y1="279.177" x2="173.771" y2="249.635" gradientUnits="userSpaceOnUse">
<stop stop-color="#EA8D32"/>
<stop offset="1" stop-color="#FFC900"/>
</linearGradient>
<linearGradient id="paint47_linear_40_847" x1="127.331" y1="262.072" x2="170.798" y2="262.072" gradientUnits="userSpaceOnUse">
<stop stop-color="#38ACA8"/>
<stop offset="1" stop-color="#5F637A"/>
</linearGradient>
<linearGradient id="paint48_linear_40_847" x1="146.472" y1="255.742" x2="174.108" y2="274.18" gradientUnits="userSpaceOnUse">
<stop stop-color="#EA8D32"/>
<stop offset="1" stop-color="#FFC900"/>
</linearGradient>
<linearGradient id="paint49_linear_40_847" x1="173.418" y1="274.822" x2="194.608" y2="274.822" gradientUnits="userSpaceOnUse">
<stop stop-color="#38ACA8"/>
<stop offset="1" stop-color="#B9DFE0"/>
</linearGradient>
<linearGradient id="paint50_linear_40_847" x1="148.728" y1="244.377" x2="192.456" y2="244.377" gradientUnits="userSpaceOnUse">
<stop stop-color="#38ACA8"/>
<stop offset="1" stop-color="#B9DFE0"/>
</linearGradient>
<linearGradient id="paint51_linear_40_847" x1="169.716" y1="253.683" x2="199.076" y2="272.293" gradientUnits="userSpaceOnUse">
<stop stop-color="#E9EBF7"/>
<stop offset="1" stop-color="#FFC900"/>
</linearGradient>
<linearGradient id="paint52_linear_40_847" x1="240.506" y1="109" x2="324.253" y2="147.679" gradientUnits="userSpaceOnUse">
<stop stop-color="#38ACA8"/>
<stop offset="1" stop-color="#5F637A"/>
</linearGradient>
<linearGradient id="paint53_linear_40_847" x1="249.293" y1="89.973" x2="333.04" y2="128.652" gradientUnits="userSpaceOnUse">
<stop stop-color="#38ACA8"/>
<stop offset="1" stop-color="#5F637A"/>
</linearGradient>
<linearGradient id="paint54_linear_40_847" x1="254.365" y1="119.186" x2="259.213" y2="121.425" gradientUnits="userSpaceOnUse">
<stop stop-color="#FFD9D9"/>
<stop offset="1" stop-color="#EFB4B4"/>
</linearGradient>
<linearGradient id="paint55_linear_40_847" x1="254.582" y1="113.079" x2="263.724" y2="117.301" gradientUnits="userSpaceOnUse">
<stop stop-color="#FFD9D9"/>
<stop offset="1" stop-color="#EFB4B4"/>
</linearGradient>
<linearGradient id="paint56_linear_40_847" x1="245.123" y1="120.7" x2="264.061" y2="129.446" gradientUnits="userSpaceOnUse">
<stop stop-color="#82D7DB"/>
<stop offset="1" stop-color="#5DC9A5"/>
</linearGradient>
<linearGradient id="paint57_linear_40_847" x1="255.805" y1="107.88" x2="266.649" y2="112.888" gradientUnits="userSpaceOnUse">
<stop stop-color="#55545E"/>
<stop offset="1" stop-color="#2B2B3F"/>
</linearGradient>
<linearGradient id="paint58_linear_40_847" x1="252.614" y1="124.748" x2="255.536" y2="126.097" gradientUnits="userSpaceOnUse">
<stop stop-color="#FFAC06"/>
<stop offset="1" stop-color="#F87C18"/>
</linearGradient>
<linearGradient id="paint59_linear_40_847" x1="346.763" y1="109.203" x2="375.153" y2="122.315" gradientUnits="userSpaceOnUse">
<stop stop-color="#FFAC06"/>
<stop offset="1" stop-color="#F87C18"/>
</linearGradient>
<linearGradient id="paint60_linear_40_847" x1="-21.8177" y1="84.7415" x2="26.0627" y2="105.402" gradientUnits="userSpaceOnUse">
<stop stop-color="#38ACA8"/>
<stop offset="1" stop-color="#5F637A"/>
</linearGradient>
<linearGradient id="paint61_linear_40_847" x1="-20.037" y1="88.9244" x2="21.7843" y2="106.97" gradientUnits="userSpaceOnUse">
<stop stop-color="#38ACA8"/>
<stop offset="1" stop-color="#5F637A"/>
</linearGradient>
<linearGradient id="paint62_linear_40_847" x1="13.621" y1="86.1176" x2="20.217" y2="88.9624" gradientUnits="userSpaceOnUse">
<stop stop-color="#FFAC06"/>
<stop offset="1" stop-color="#F87C18"/>
</linearGradient>
<clipPath id="clip0_40_847">
<rect width="349.447" height="332" fill="white"/>
</clipPath>
</defs>
</svg>
