<svg width="305" height="326" viewBox="0 0 305 326" fill="none" xmlns="http://www.w3.org/2000/svg">
<g clip-path="url(#clip0_41_1323)">
<path d="M209.451 202.324L263.306 33.3977C264.807 28.6919 261.583 23.8023 256.67 23.3297L193.747 6.58225C187.351 5.96687 181.388 9.881 179.405 15.9968L127.952 172.263C126.556 176.564 128.734 181.212 132.929 182.891L196.616 208.382C201.84 210.472 207.741 207.687 209.451 202.324Z" fill="url(#paint0_linear_41_1323)"/>
<path d="M209.279 202.008L263.133 33.0818C264.633 28.376 261.409 23.4864 256.497 23.0138L193.574 6.26633C187.178 5.65095 181.215 9.56508 179.231 15.6809L127.778 171.947C126.383 176.248 128.56 180.896 132.756 182.575L196.443 208.066C201.666 210.157 207.568 207.371 209.277 202.008H209.279Z" fill="url(#paint1_linear_41_1323)"/>
<path d="M205.985 197.258L259.839 28.3318C261.339 23.626 258.116 18.7364 253.203 18.2638L190.28 1.51633C183.884 0.900954 177.921 4.81508 175.938 10.9309L124.485 167.197C123.089 171.498 125.267 176.146 129.462 177.825L193.149 203.316C198.373 205.407 204.274 202.621 205.984 197.258H205.985Z" fill="url(#paint2_linear_41_1323)"/>
<path d="M196.75 200.263C195.996 200.263 195.254 200.119 194.543 199.835L130.857 174.344C128.5 173.401 127.267 170.769 128.05 168.353L179.502 12.0872C180.837 7.96799 184.639 5.20105 188.961 5.20105C189.28 5.20105 189.602 5.21624 189.921 5.24663L252.843 21.9941C254.052 22.1096 255.129 22.7584 255.797 23.7734C256.467 24.7884 256.638 26.0344 256.269 27.1922L202.415 196.118C201.624 198.598 199.346 200.263 196.748 200.263H196.75Z" fill="url(#paint3_linear_41_1323)"/>
<path d="M258.829 21.5809C260.005 23.4332 260.41 25.7807 259.675 28.0857L205.821 197.012C204.111 202.375 198.212 205.16 192.987 203.07L129.3 177.579C127.739 176.955 126.459 175.918 125.537 174.644C126.469 176.031 127.806 177.163 129.464 177.827L193.151 203.317C198.374 205.408 204.275 202.623 205.985 197.259L259.839 28.3319C260.608 25.922 260.131 23.4696 258.829 21.5809Z" fill="url(#paint4_linear_41_1323)"/>
<g opacity="0.33">
<path opacity="0.04" d="M231.639 140.92C245.622 115.384 238.721 84.685 216.224 72.3508C193.728 60.0167 164.155 70.7186 150.171 96.2541C136.188 121.79 143.089 152.489 165.586 164.823C188.082 177.157 217.655 166.456 231.639 140.92Z" fill="#4A0101"/>
<path opacity="0.08" d="M230.938 139.754C244.575 114.851 237.845 84.9125 215.906 72.884C193.967 60.8555 165.126 71.2921 151.489 96.1948C137.853 121.097 144.583 151.036 166.522 163.065C188.461 175.093 217.301 164.656 230.938 139.754Z" fill="#480202"/>
<path opacity="0.12" d="M230.237 138.584C243.527 114.315 236.968 85.1384 215.587 73.416C194.206 61.6936 166.1 71.8646 152.81 96.1336C139.52 120.403 146.079 149.579 167.46 161.302C188.841 173.024 216.947 162.853 230.237 138.584Z" fill="#460303"/>
<path opacity="0.15" d="M229.535 137.417C242.478 113.781 236.091 85.3656 215.268 73.9493C194.445 62.5329 167.073 72.439 154.129 96.0751C141.186 119.711 147.573 148.127 168.396 159.543C189.219 170.96 216.591 161.054 229.535 137.417Z" fill="#440404"/>
<path opacity="0.19" d="M228.832 136.25C241.429 113.247 235.212 85.5932 214.947 74.4825C194.682 63.3718 168.042 73.0119 155.446 96.0144C142.849 119.017 149.066 146.671 169.331 157.782C189.596 168.892 216.236 159.252 228.832 136.25Z" fill="#420505"/>
<path opacity="0.23" d="M228.132 135.081C240.382 112.712 234.336 85.8199 214.629 75.0153C194.922 64.2106 169.017 73.5852 156.767 95.9541C144.518 118.323 150.564 145.215 170.27 156.02C189.977 166.825 215.883 157.45 228.132 135.081Z" fill="#400606"/>
<path opacity="0.27" d="M227.432 133.915C239.334 112.179 233.46 86.0475 214.31 75.5486C195.161 65.0496 169.988 74.1589 158.085 95.8949C146.183 117.631 152.057 143.762 171.207 154.261C190.356 164.76 215.529 155.651 227.432 133.915Z" fill="#3E0606"/>
<path opacity="0.31" d="M226.729 132.748C238.285 111.646 232.582 86.2762 213.99 76.0833C195.399 65.8904 170.96 74.7342 159.404 95.8365C147.849 116.939 153.552 142.309 172.143 152.501C190.734 162.694 215.173 153.851 226.729 132.748Z" fill="#3C0707"/>
<path opacity="0.35" d="M226.025 131.58C237.235 111.11 231.703 86.5019 213.67 76.615C195.637 66.7282 171.932 75.307 160.722 95.7764C149.513 116.246 155.045 140.854 173.078 150.741C191.111 160.628 214.816 152.049 226.025 131.58Z" fill="#3A0808"/>
<path opacity="0.38" d="M225.326 130.411C236.188 110.575 230.827 86.7283 213.352 77.1471C195.876 67.5659 172.904 75.8789 162.042 95.7146C151.179 115.55 156.54 139.397 174.016 148.979C191.491 158.56 214.463 150.247 225.326 130.411Z" fill="#380909"/>
<path opacity="0.42" d="M224.623 129.244C235.139 110.042 229.949 86.957 213.032 77.6819C196.114 68.4067 173.876 76.4542 163.361 95.6562C152.846 114.858 158.035 137.944 174.953 147.219C191.87 156.494 214.108 148.446 224.623 129.244Z" fill="#360A0A"/>
<path opacity="0.46" d="M223.921 128.076C234.09 109.507 229.072 87.1827 212.713 78.2137C196.354 69.2447 174.849 77.0271 164.68 95.5963C154.512 114.165 159.53 136.49 175.889 145.459C192.248 154.428 213.753 146.645 223.921 128.076Z" fill="#340B0B"/>
<path opacity="0.5" d="M223.223 126.909C233.044 108.974 228.197 87.4111 212.395 78.7477C196.594 70.0843 175.822 77.6009 166.001 95.5364C156.179 113.472 161.026 135.035 176.828 143.698C192.629 152.361 213.401 144.845 223.223 126.909Z" fill="#330C0C"/>
<path opacity="0.54" d="M222.519 125.741C231.994 108.438 227.318 87.6369 212.075 79.2795C196.832 70.9222 176.793 78.1739 167.318 95.4765C157.843 112.779 162.519 133.581 177.762 141.938C193.006 150.295 213.044 143.044 222.519 125.741Z" fill="#310D0D"/>
<path opacity="0.58" d="M221.817 124.574C230.945 107.905 226.44 87.8656 211.755 79.8143C197.07 71.7631 177.766 78.7491 168.638 95.4181C159.51 112.087 164.014 132.127 178.699 140.178C193.384 148.229 212.689 141.243 221.817 124.574Z" fill="#2F0E0E"/>
<path opacity="0.62" d="M221.116 123.407C229.898 107.371 225.564 88.0917 211.436 80.3461C197.309 72.6006 178.738 79.3213 169.956 95.3574C161.174 111.393 165.508 130.672 179.636 138.418C193.763 146.164 212.334 139.443 221.116 123.407Z" fill="#2D0F0F"/>
<path opacity="0.65" d="M220.414 122.239C228.849 106.836 224.686 88.3191 211.117 80.8796C197.548 73.44 179.71 79.8952 171.276 95.2977C162.841 110.7 167.004 129.217 180.573 136.657C194.142 144.096 211.98 137.641 220.414 122.239Z" fill="#2B1010"/>
<path opacity="0.69" d="M219.713 121.071C227.801 106.302 223.809 88.5467 210.798 81.4128C197.786 74.279 180.682 80.4683 172.594 95.2371C164.506 110.006 168.498 127.762 181.51 134.895C194.522 142.029 211.626 135.84 219.713 121.071Z" fill="#291111"/>
<path opacity="0.73" d="M219.011 119.905C226.752 105.769 222.932 88.7747 210.479 81.9469C198.025 75.1191 181.654 81.0435 173.913 95.1794C166.172 109.315 169.993 126.31 182.446 133.137C194.9 139.965 211.27 134.041 219.011 119.905Z" fill="#271212"/>
<path opacity="0.77" d="M218.31 118.735C225.704 105.233 222.055 89.0006 210.16 82.4788C198.265 75.9571 182.628 81.6159 175.234 95.1182C167.84 108.62 171.489 124.853 183.384 131.375C195.279 137.897 210.916 132.238 218.31 118.735Z" fill="#251212"/>
<path opacity="0.81" d="M217.609 117.568C224.656 104.699 221.178 89.2267 209.841 83.0107C198.503 76.7946 183.599 82.1881 176.552 95.0575C169.504 107.927 172.982 123.399 184.32 129.615C195.658 135.831 210.562 130.437 217.609 117.568Z" fill="#231313"/>
<path opacity="0.85" d="M216.907 116.401C223.607 104.165 220.3 89.4553 209.521 83.5453C198.742 77.6353 184.571 82.7633 177.871 94.999C171.171 107.235 174.477 121.945 185.257 127.855C196.036 133.765 210.206 128.637 216.907 116.401Z" fill="#211414"/>
<path opacity="0.88" d="M216.203 115.233C222.556 103.631 219.421 89.6825 209.2 84.0786C198.978 78.4747 185.542 83.3371 179.189 94.9391C172.835 106.541 175.971 120.489 186.192 126.093C196.413 131.697 209.85 126.835 216.203 115.233Z" fill="#1F1515"/>
<path opacity="0.92" d="M215.504 114.065C221.51 103.096 218.546 89.909 208.882 84.6107C199.218 79.3124 186.515 83.9096 180.508 94.8787C174.501 105.848 177.466 119.035 187.13 124.333C196.793 129.632 209.497 125.035 215.504 114.065Z" fill="#1D1616"/>
<path opacity="0.96" d="M214.801 112.899C220.461 102.563 217.668 90.1375 208.562 85.1453C199.457 80.1531 187.487 84.4847 181.827 94.8202C176.167 105.156 178.961 117.581 188.066 122.573C197.171 127.566 209.141 123.234 214.801 112.899Z" fill="#1B1717"/>
<path d="M214.102 111.732C219.415 102.029 216.793 90.3645 208.245 85.678C199.697 80.9914 188.46 85.0578 183.147 94.7604C177.834 104.463 180.456 116.128 189.004 120.814C197.552 125.501 208.788 121.434 214.102 111.732Z" fill="#191818"/>
</g>
<g opacity="0.33">
<path opacity="0.04" d="M178.808 200.195C192.791 174.659 185.89 143.96 163.393 131.626C140.897 119.291 111.323 129.993 97.3399 155.529C83.3564 181.064 90.2577 211.764 112.754 224.098C135.251 236.432 164.824 225.73 178.808 200.195Z" fill="#4A0101"/>
<path opacity="0.08" d="M178.106 199.027C191.743 174.125 185.013 144.186 163.074 132.157C141.135 120.129 112.295 130.566 98.6577 155.468C85.0208 180.371 91.751 210.309 113.69 222.338C135.629 234.366 164.469 223.93 178.106 199.027Z" fill="#480202"/>
<path opacity="0.12" d="M177.405 197.859C190.695 173.59 184.136 144.413 162.755 132.691C141.374 120.969 113.268 131.14 99.9782 155.409C86.6882 179.678 93.2472 208.854 114.628 220.577C136.009 232.299 164.115 222.128 177.405 197.859Z" fill="#460303"/>
<path opacity="0.15" d="M176.703 196.691C189.646 173.055 183.259 144.639 162.436 133.223C141.614 121.806 114.241 131.712 101.297 155.349C88.354 178.985 94.7414 207.4 115.564 218.817C136.387 230.233 163.76 220.327 176.703 196.691Z" fill="#440404"/>
<path opacity="0.19" d="M176.001 195.525C188.597 172.522 182.38 144.868 162.115 133.757C141.85 122.647 115.211 132.287 102.614 155.289C90.0178 178.292 96.2346 205.946 116.5 217.057C136.765 228.167 163.404 218.527 176.001 195.525Z" fill="#420505"/>
<path opacity="0.23" d="M175.299 194.355C187.549 171.986 181.503 145.094 161.796 134.289C142.089 123.485 116.184 132.859 103.934 155.228C91.685 177.597 97.7305 204.489 117.437 215.294C137.144 226.099 163.05 216.724 175.299 194.355Z" fill="#400606"/>
<path opacity="0.27" d="M174.6 193.19C186.503 171.454 180.628 145.322 161.479 134.823C142.329 124.324 117.157 133.434 105.254 155.17C93.351 176.906 99.2256 203.037 118.375 213.536C137.524 224.035 162.697 214.926 174.6 193.19Z" fill="#3E0606"/>
<path opacity="0.31" d="M173.898 192.022C185.454 170.919 179.75 145.55 161.159 135.357C142.568 125.164 118.129 134.008 106.573 155.11C95.0173 176.212 100.721 201.582 119.312 211.775C137.903 221.968 162.342 213.124 173.898 192.022Z" fill="#3C0707"/>
<path opacity="0.35" d="M173.194 190.855C184.403 170.386 178.871 145.777 160.838 135.89C142.806 126.003 119.1 134.582 107.891 155.052C96.6816 175.521 102.213 200.129 120.246 210.016C138.279 219.903 161.985 211.324 173.194 190.855Z" fill="#3A0808"/>
<path opacity="0.38" d="M172.494 189.686C183.356 169.85 177.995 146.003 160.52 136.422C143.044 126.841 120.072 135.154 109.21 154.989C98.3476 174.825 103.709 198.672 121.184 208.253C138.659 217.835 161.632 209.522 172.494 189.686Z" fill="#380909"/>
<path opacity="0.42" d="M171.792 188.519C182.307 169.317 177.117 146.232 160.2 136.957C143.283 127.682 121.045 135.729 110.529 154.931C100.014 174.133 105.204 197.218 122.121 206.494C139.038 215.769 161.277 207.721 171.792 188.519Z" fill="#360A0A"/>
<path opacity="0.46" d="M171.089 187.351C181.258 168.782 176.24 146.458 159.881 137.488C143.522 128.519 122.017 136.302 111.849 154.871C101.68 173.44 106.698 195.764 123.057 204.733C139.416 213.702 160.921 205.92 171.089 187.351Z" fill="#340B0B"/>
<path opacity="0.5" d="M170.39 186.184C180.211 168.248 175.364 146.685 159.562 138.022C143.761 129.359 122.989 136.875 113.168 154.811C103.346 172.746 108.193 194.309 123.995 202.972C139.796 211.636 160.568 204.119 170.39 186.184Z" fill="#330C0C"/>
<path opacity="0.54" d="M169.687 185.016C179.162 167.713 174.486 146.912 159.243 138.555C144 130.197 123.962 137.449 114.487 154.752C105.012 172.054 109.688 192.856 124.931 201.213C140.174 209.57 160.212 202.319 169.687 185.016Z" fill="#310D0D"/>
<path opacity="0.58" d="M168.986 183.848C178.114 167.179 173.609 147.139 158.923 139.088C144.238 131.036 124.933 138.022 115.805 154.691C106.677 171.36 111.182 191.4 125.868 199.451C140.553 207.503 159.858 200.517 168.986 183.848Z" fill="#2F0E0E"/>
<path opacity="0.62" d="M168.284 182.682C177.066 166.646 172.732 147.367 158.605 139.621C144.477 131.876 125.906 138.596 117.124 154.633C108.343 170.669 112.677 189.947 126.804 197.693C140.932 205.439 159.503 198.718 168.284 182.682Z" fill="#2D0F0F"/>
<path opacity="0.65" d="M167.583 181.512C176.017 166.11 171.855 147.593 158.286 140.153C144.717 132.713 126.879 139.169 118.444 154.571C110.01 169.974 114.172 188.491 127.742 195.93C141.311 203.37 159.148 196.914 167.583 181.512Z" fill="#2B1010"/>
<path opacity="0.69" d="M166.88 180.346C174.968 165.577 170.976 147.821 157.964 140.688C144.953 133.554 127.848 139.743 119.761 154.512C111.673 169.281 115.665 187.036 128.677 194.17C141.688 201.304 158.793 195.115 166.88 180.346Z" fill="#291111"/>
<path opacity="0.73" d="M166.179 179.178C173.92 165.042 170.099 148.047 157.646 141.22C145.192 134.392 128.822 140.316 121.081 154.452C113.34 168.588 117.16 185.582 129.613 192.41C142.067 199.238 158.438 193.314 166.179 179.178Z" fill="#271212"/>
<path opacity="0.77" d="M165.477 178.01C172.871 164.507 169.222 148.275 157.327 141.753C145.431 135.231 129.794 140.89 122.4 154.392C115.006 167.894 118.655 184.127 130.551 190.649C142.446 197.171 158.083 191.512 165.477 178.01Z" fill="#251212"/>
<path opacity="0.81" d="M164.778 176.843C171.825 163.973 168.347 148.502 157.009 142.285C145.672 136.069 130.768 141.463 123.72 154.332C116.673 167.202 120.151 182.673 131.488 188.889C142.826 195.106 157.73 189.712 164.778 176.843Z" fill="#231313"/>
<path opacity="0.85" d="M164.075 175.676C170.776 163.44 167.469 148.73 156.69 142.82C145.91 136.91 131.74 142.038 125.04 154.274C118.339 166.51 121.646 181.22 132.425 187.13C143.205 193.04 157.375 187.912 164.075 175.676Z" fill="#211414"/>
<path opacity="0.88" d="M163.372 174.508C169.725 162.906 166.59 148.957 156.368 143.353C146.147 137.75 132.711 142.612 126.357 154.214C120.004 165.816 123.139 179.764 133.361 185.368C143.582 190.972 157.018 186.11 163.372 174.508Z" fill="#1F1515"/>
<path opacity="0.92" d="M162.672 173.339C168.679 162.37 165.714 149.182 156.05 143.884C146.387 138.586 133.683 143.183 127.676 154.152C121.67 165.121 124.634 178.309 134.298 183.607C143.961 188.905 156.665 184.308 162.672 173.339Z" fill="#1D1616"/>
<path opacity="0.96" d="M161.969 172.172C167.629 161.837 164.836 149.411 155.731 144.419C146.625 139.427 134.655 143.758 128.996 154.094C123.336 164.429 126.129 176.855 135.234 181.847C144.34 186.839 156.31 182.508 161.969 172.172Z" fill="#1B1717"/>
<path d="M161.268 171.006C166.582 161.303 163.959 149.639 155.412 144.952C146.864 140.266 135.627 144.332 130.314 154.035C125 163.737 127.623 175.402 136.171 180.088C144.719 184.775 155.955 180.709 161.268 171.006Z" fill="#191818"/>
</g>
<g opacity="0.1">
<path opacity="0.04" d="M211.068 221.642C233.229 221.642 251.194 213.746 251.194 204.006C251.194 194.265 233.229 186.369 211.068 186.369C188.907 186.369 170.942 194.265 170.942 204.006C170.942 213.746 188.907 221.642 211.068 221.642Z" fill="#4A0101"/>
<path opacity="0.08" d="M211.068 221.204C232.679 221.204 250.198 213.504 250.198 204.006C250.198 194.507 232.679 186.807 211.068 186.807C189.457 186.807 171.938 194.507 171.938 204.006C171.938 213.504 189.457 221.204 211.068 221.204Z" fill="#480202"/>
<path opacity="0.12" d="M211.068 220.767C232.13 220.767 249.203 213.263 249.203 204.006C249.203 194.749 232.13 187.245 211.068 187.245C190.006 187.245 172.933 194.749 172.933 204.006C172.933 213.263 190.006 220.767 211.068 220.767Z" fill="#460303"/>
<path opacity="0.15" d="M211.068 220.329C231.58 220.329 248.209 213.021 248.209 204.006C248.209 194.99 231.58 187.682 211.068 187.682C190.556 187.682 173.927 194.99 173.927 204.006C173.927 213.021 190.556 220.329 211.068 220.329Z" fill="#440404"/>
<path opacity="0.19" d="M211.068 219.892C231.03 219.892 247.212 212.779 247.212 204.006C247.212 195.232 231.03 188.12 211.068 188.12C191.106 188.12 174.923 195.232 174.923 204.006C174.923 212.779 191.106 219.892 211.068 219.892Z" fill="#420505"/>
<path opacity="0.23" d="M211.068 219.456C230.481 219.456 246.218 212.538 246.218 204.006C246.218 195.473 230.481 188.556 211.068 188.556C191.655 188.556 175.918 195.473 175.918 204.006C175.918 212.538 191.655 219.456 211.068 219.456Z" fill="#400606"/>
<path opacity="0.27" d="M211.068 219.018C229.932 219.018 245.223 212.297 245.223 204.006C245.223 195.715 229.932 188.993 211.068 188.993C192.205 188.993 176.913 195.715 176.913 204.006C176.913 212.297 192.205 219.018 211.068 219.018Z" fill="#3E0606"/>
<path opacity="0.31" d="M211.068 218.58C229.382 218.58 244.227 212.055 244.227 204.005C244.227 195.956 229.382 189.431 211.068 189.431C192.755 189.431 177.909 195.956 177.909 204.005C177.909 212.055 192.755 218.58 211.068 218.58Z" fill="#3C0707"/>
<path opacity="0.35" d="M211.068 218.143C228.832 218.143 243.233 211.813 243.233 204.006C243.233 196.198 228.832 189.869 211.068 189.869C193.304 189.869 178.904 196.198 178.904 204.006C178.904 211.813 193.304 218.143 211.068 218.143Z" fill="#3A0808"/>
<path opacity="0.38" d="M211.068 217.705C228.283 217.705 242.238 211.572 242.238 204.006C242.238 196.44 228.283 190.306 211.068 190.306C193.853 190.306 179.898 196.44 179.898 204.006C179.898 211.572 193.853 217.705 211.068 217.705Z" fill="#380909"/>
<path opacity="0.42" d="M211.068 217.267C227.732 217.267 241.241 211.33 241.241 204.006C241.241 196.681 227.732 190.744 211.068 190.744C194.403 190.744 180.894 196.681 180.894 204.006C180.894 211.33 194.403 217.267 211.068 217.267Z" fill="#360A0A"/>
<path opacity="0.46" d="M211.068 216.83C227.183 216.83 240.247 211.088 240.247 204.006C240.247 196.923 227.183 191.181 211.068 191.181C194.953 191.181 181.889 196.923 181.889 204.006C181.889 211.088 194.953 216.83 211.068 216.83Z" fill="#340B0B"/>
<path opacity="0.5" d="M211.068 216.392C226.633 216.392 239.251 210.847 239.251 204.006C239.251 197.165 226.633 191.619 211.068 191.619C195.503 191.619 182.885 197.165 182.885 204.006C182.885 210.847 195.503 216.392 211.068 216.392Z" fill="#330C0C"/>
<path opacity="0.54" d="M211.068 215.956C226.084 215.956 238.256 210.606 238.256 204.006C238.256 197.405 226.084 192.055 211.068 192.055C196.052 192.055 183.88 197.405 183.88 204.006C183.88 210.606 196.052 215.956 211.068 215.956Z" fill="#310D0D"/>
<path opacity="0.58" d="M211.068 215.519C225.535 215.519 237.262 210.364 237.262 204.006C237.262 197.647 225.535 192.493 211.068 192.493C196.602 192.493 184.875 197.647 184.875 204.006C184.875 210.364 196.602 215.519 211.068 215.519Z" fill="#2F0E0E"/>
<path opacity="0.62" d="M211.068 215.081C224.984 215.081 236.265 210.122 236.265 204.006C236.265 197.889 224.984 192.93 211.068 192.93C197.152 192.93 185.871 197.889 185.871 204.006C185.871 210.122 197.152 215.081 211.068 215.081Z" fill="#2D0F0F"/>
<path opacity="0.65" d="M211.068 214.643C224.435 214.643 235.271 209.881 235.271 204.006C235.271 198.131 224.435 193.368 211.068 193.368C197.701 193.368 186.865 198.131 186.865 204.006C186.865 209.881 197.701 214.643 211.068 214.643Z" fill="#2B1010"/>
<path opacity="0.69" d="M211.068 214.206C223.886 214.206 234.276 209.639 234.276 204.006C234.276 198.372 223.886 193.805 211.068 193.805C198.251 193.805 187.86 198.372 187.86 204.006C187.86 209.639 198.251 214.206 211.068 214.206Z" fill="#291111"/>
<path opacity="0.73" d="M211.068 213.768C223.335 213.768 233.28 209.397 233.28 204.006C233.28 198.614 223.335 194.243 211.068 194.243C198.801 194.243 188.856 198.614 188.856 204.006C188.856 209.397 198.801 213.768 211.068 213.768Z" fill="#271212"/>
<path opacity="0.77" d="M211.068 213.331C222.786 213.331 232.285 209.156 232.285 204.006C232.285 198.856 222.786 194.681 211.068 194.681C199.35 194.681 189.851 198.856 189.851 204.006C189.851 209.156 199.35 213.331 211.068 213.331Z" fill="#251212"/>
<path opacity="0.81" d="M211.068 212.893C222.236 212.893 231.289 208.914 231.289 204.006C231.289 199.097 222.236 195.118 211.068 195.118C199.9 195.118 190.847 199.097 190.847 204.006C190.847 208.914 199.9 212.893 211.068 212.893Z" fill="#231313"/>
<path opacity="0.85" d="M211.068 212.455C221.686 212.455 230.294 208.672 230.294 204.005C230.294 199.339 221.686 195.556 211.068 195.556C200.45 195.556 191.842 199.339 191.842 204.005C191.842 208.672 200.45 212.455 211.068 212.455Z" fill="#211414"/>
<path opacity="0.88" d="M211.068 212.019C221.137 212.019 229.3 208.431 229.3 204.006C229.3 199.58 221.137 195.992 211.068 195.992C200.999 195.992 192.836 199.58 192.836 204.006C192.836 208.431 200.999 212.019 211.068 212.019Z" fill="#1F1515"/>
<path opacity="0.92" d="M211.068 211.582C220.587 211.582 228.304 208.19 228.304 204.006C228.304 199.821 220.587 196.43 211.068 196.43C201.549 196.43 193.833 199.821 193.833 204.006C193.833 208.19 201.549 211.582 211.068 211.582Z" fill="#1D1616"/>
<path opacity="0.96" d="M211.068 211.144C220.038 211.144 227.309 207.948 227.309 204.006C227.309 200.063 220.038 196.867 211.068 196.867C202.098 196.867 194.827 200.063 194.827 204.006C194.827 207.948 202.098 211.144 211.068 211.144Z" fill="#1B1717"/>
<path d="M211.068 210.706C219.488 210.706 226.314 207.706 226.314 204.006C226.314 200.305 219.488 197.305 211.068 197.305C202.648 197.305 195.822 200.305 195.822 204.006C195.822 207.706 202.648 210.706 211.068 210.706Z" fill="#191818"/>
</g>
<g opacity="0.23">
<path opacity="0.04" d="M230.733 325.746C252.894 325.746 270.86 321.141 270.86 315.46C270.86 309.778 252.894 305.173 230.733 305.173C208.572 305.173 190.607 309.778 190.607 315.46C190.607 321.141 208.572 325.746 230.733 325.746Z" fill="#4A0101"/>
<path opacity="0.08" d="M230.733 325.491C252.345 325.491 269.865 321 269.865 315.459C269.865 309.919 252.345 305.428 230.733 305.428C209.121 305.428 191.602 309.919 191.602 315.459C191.602 321 209.121 325.491 230.733 325.491Z" fill="#480202"/>
<path opacity="0.12" d="M230.733 325.236C251.795 325.236 268.868 320.859 268.868 315.46C268.868 310.06 251.795 305.683 230.733 305.683C209.671 305.683 192.598 310.06 192.598 315.46C192.598 320.859 209.671 325.236 230.733 325.236Z" fill="#460303"/>
<path opacity="0.15" d="M230.733 324.98C251.245 324.98 267.874 320.718 267.874 315.46C267.874 310.201 251.245 305.939 230.733 305.939C210.221 305.939 193.593 310.201 193.593 315.46C193.593 320.718 210.221 324.98 230.733 324.98Z" fill="#440404"/>
<path opacity="0.19" d="M230.733 324.725C250.695 324.725 266.878 320.577 266.878 315.459C266.878 310.342 250.695 306.194 230.733 306.194C210.771 306.194 194.589 310.342 194.589 315.459C194.589 320.577 210.771 324.725 230.733 324.725Z" fill="#420505"/>
<path opacity="0.23" d="M230.733 324.47C250.146 324.47 265.883 320.436 265.883 315.46C265.883 310.483 250.146 306.449 230.733 306.449C211.32 306.449 195.583 310.483 195.583 315.46C195.583 320.436 211.32 324.47 230.733 324.47Z" fill="#400606"/>
<path opacity="0.27" d="M230.733 324.215C249.597 324.215 264.889 320.295 264.889 315.46C264.889 310.624 249.597 306.704 230.733 306.704C211.87 306.704 196.578 310.624 196.578 315.46C196.578 320.295 211.87 324.215 230.733 324.215Z" fill="#3E0606"/>
<path opacity="0.31" d="M230.733 323.959C249.046 323.959 263.892 320.154 263.892 315.46C263.892 310.765 249.046 306.96 230.733 306.96C212.42 306.96 197.574 310.765 197.574 315.46C197.574 320.154 212.42 323.959 230.733 323.959Z" fill="#3C0707"/>
<path opacity="0.35" d="M230.733 323.706C248.497 323.706 262.898 320.014 262.898 315.459C262.898 310.905 248.497 307.213 230.733 307.213C212.969 307.213 198.569 310.905 198.569 315.459C198.569 320.014 212.969 323.706 230.733 323.706Z" fill="#3A0808"/>
<path opacity="0.38" d="M230.733 323.45C247.948 323.45 261.903 319.873 261.903 315.459C261.903 311.046 247.948 307.469 230.733 307.469C213.518 307.469 199.563 311.046 199.563 315.459C199.563 319.873 213.518 323.45 230.733 323.45Z" fill="#380909"/>
<path opacity="0.42" d="M230.733 323.195C247.398 323.195 260.907 319.732 260.907 315.459C260.907 311.187 247.398 307.724 230.733 307.724C214.069 307.724 200.56 311.187 200.56 315.459C200.56 319.732 214.069 323.195 230.733 323.195Z" fill="#360A0A"/>
<path opacity="0.46" d="M230.733 322.94C246.848 322.94 259.912 319.591 259.912 315.46C259.912 311.328 246.848 307.979 230.733 307.979C214.618 307.979 201.554 311.328 201.554 315.46C201.554 319.591 214.618 322.94 230.733 322.94Z" fill="#340B0B"/>
<path opacity="0.5" d="M230.733 322.685C246.298 322.685 258.916 319.45 258.916 315.46C258.916 311.469 246.298 308.234 230.733 308.234C215.168 308.234 202.55 311.469 202.55 315.46C202.55 319.45 215.168 322.685 230.733 322.685Z" fill="#330C0C"/>
<path opacity="0.54" d="M230.733 322.429C245.749 322.429 257.921 319.309 257.921 315.459C257.921 311.61 245.749 308.49 230.733 308.49C215.718 308.49 203.545 311.61 203.545 315.459C203.545 319.309 215.718 322.429 230.733 322.429Z" fill="#310D0D"/>
<path opacity="0.58" d="M230.733 322.174C245.2 322.174 256.927 319.168 256.927 315.459C256.927 311.751 245.2 308.745 230.733 308.745C216.267 308.745 204.54 311.751 204.54 315.459C204.54 319.168 216.267 322.174 230.733 322.174Z" fill="#2F0E0E"/>
<path opacity="0.62" d="M230.733 321.919C244.649 321.919 255.931 319.027 255.931 315.46C255.931 311.892 244.649 309 230.733 309C216.817 309 205.536 311.892 205.536 315.46C205.536 319.027 216.817 321.919 230.733 321.919Z" fill="#2D0F0F"/>
<path opacity="0.65" d="M230.733 321.664C244.1 321.664 254.936 318.886 254.936 315.46C254.936 312.033 244.1 309.256 230.733 309.256C217.366 309.256 206.53 312.033 206.53 315.46C206.53 318.886 217.366 321.664 230.733 321.664Z" fill="#2B1010"/>
<path opacity="0.69" d="M230.733 321.408C243.551 321.408 253.941 318.745 253.941 315.46C253.941 312.174 243.551 309.511 230.733 309.511C217.916 309.511 207.525 312.174 207.525 315.46C207.525 318.745 217.916 321.408 230.733 321.408Z" fill="#291111"/>
<path opacity="0.73" d="M230.733 321.155C243.001 321.155 252.945 318.605 252.945 315.46C252.945 312.314 243.001 309.765 230.733 309.765C218.466 309.765 208.521 312.314 208.521 315.46C208.521 318.605 218.466 321.155 230.733 321.155Z" fill="#271212"/>
<path opacity="0.77" d="M230.733 320.899C242.451 320.899 251.95 318.464 251.95 315.46C251.95 312.455 242.451 310.02 230.733 310.02C219.015 310.02 209.516 312.455 209.516 315.46C209.516 318.464 219.015 320.899 230.733 320.899Z" fill="#251212"/>
<path opacity="0.81" d="M230.733 320.644C241.901 320.644 250.954 318.323 250.954 315.46C250.954 312.596 241.901 310.275 230.733 310.275C219.566 310.275 210.512 312.596 210.512 315.46C210.512 318.323 219.566 320.644 230.733 320.644Z" fill="#231313"/>
<path opacity="0.85" d="M230.733 320.389C241.352 320.389 249.96 318.182 249.96 315.46C249.96 312.737 241.352 310.53 230.733 310.53C220.115 310.53 211.507 312.737 211.507 315.46C211.507 318.182 220.115 320.389 230.733 320.389Z" fill="#211414"/>
<path opacity="0.88" d="M230.733 320.133C240.802 320.133 248.965 318.041 248.965 315.459C248.965 312.878 240.802 310.786 230.733 310.786C220.664 310.786 212.501 312.878 212.501 315.459C212.501 318.041 220.664 320.133 230.733 320.133Z" fill="#1F1515"/>
<path opacity="0.92" d="M230.733 319.878C240.252 319.878 247.969 317.9 247.969 315.459C247.969 313.019 240.252 311.041 230.733 311.041C221.214 311.041 213.498 313.019 213.498 315.459C213.498 317.9 221.214 319.878 230.733 319.878Z" fill="#1D1616"/>
<path opacity="0.96" d="M230.733 319.623C239.703 319.623 246.974 317.759 246.974 315.459C246.974 313.16 239.703 311.296 230.733 311.296C221.764 311.296 214.492 313.16 214.492 315.459C214.492 317.759 221.764 319.623 230.733 319.623Z" fill="#1B1717"/>
<path d="M230.733 319.368C239.154 319.368 245.98 317.618 245.98 315.46C245.98 313.301 239.154 311.552 230.733 311.552C222.313 311.552 215.487 313.301 215.487 315.46C215.487 317.618 222.313 319.368 230.733 319.368Z" fill="#191818"/>
</g>
<path d="M107.182 114.661L190.027 145.781C193.14 146.895 198.856 143.613 200.298 139.883L220.642 83.204C222.378 78.714 221.142 75.1266 217.394 73.7849L135.47 47.9359C132.008 46.6975 125.652 50.3473 124.049 54.4954L104.166 105.914C102.554 110.083 103.703 113.415 107.184 114.66L107.182 114.661Z" fill="url(#paint5_linear_41_1323)"/>
<path d="M105.666 113.263L188.511 144.384C191.624 145.497 197.34 142.215 198.782 138.485L219.127 81.8061C220.862 77.3161 219.626 73.7286 215.878 72.387L133.954 46.5379C130.492 45.2996 124.137 48.9493 122.533 53.0974L102.651 104.516C101.038 108.685 102.187 112.018 105.668 113.262L105.666 113.263Z" fill="url(#paint6_linear_41_1323)"/>
<path d="M123.996 83.3666L136.734 87.9235C137.227 88.0997 138.132 87.5801 138.361 86.989L141.538 78.7733C141.813 78.0622 141.617 77.4939 141.023 77.2812L128.48 72.7927C127.932 72.5967 126.924 73.1741 126.67 73.832L123.519 81.9809C123.264 82.6418 123.446 83.1691 123.997 83.3666H123.996Z" fill="url(#paint7_linear_41_1323)"/>
<path d="M126.239 74.9427L131.522 76.9317C131.941 77.0897 132.081 77.4954 131.889 78.0045L130.977 80.4326C130.709 81.1452 129.616 81.7803 129.013 81.5752L124.297 79.963" stroke="#FFFAFA" stroke-width="1.33273" stroke-miterlimit="10"/>
<path d="M140.316 81.9322L131.539 78.9404" stroke="#FFFAFA" stroke-width="1.33273" stroke-miterlimit="10"/>
<path d="M137.302 75.9486L132.921 86.5605" stroke="#FFFAFA" stroke-width="1.33273" stroke-miterlimit="10"/>
<path d="M208.495 83.2881C208.498 80.4064 206.668 78.0683 204.407 78.066C202.146 78.0636 200.31 80.3978 200.307 83.2795C200.304 86.1612 202.135 88.4992 204.396 88.5016C206.657 88.504 208.492 86.1698 208.495 83.2881Z" fill="url(#paint8_linear_41_1323)"/>
<path d="M125.317 100.371L114.645 96.5358C114.323 96.4204 114.481 95.764 114.997 95.0787L115.518 94.3873C116.034 93.7021 116.721 93.2356 117.042 93.3511L127.715 97.1862C128.037 97.3016 127.879 97.9581 127.363 98.6433L126.842 99.3347C126.325 100.02 125.639 100.486 125.317 100.371Z" fill="white"/>
<path d="M141.297 105.537L130.624 101.702C130.302 101.587 130.46 100.93 130.977 100.245L131.498 99.5535C132.014 98.8682 132.7 98.4017 133.022 98.5172L143.695 102.352C144.017 102.468 143.859 103.124 143.342 103.809L142.821 104.501C142.305 105.186 141.619 105.653 141.297 105.537Z" fill="white"/>
<path d="M157.275 110.702L146.602 106.867C146.28 106.751 146.438 106.095 146.954 105.409L147.475 104.718C147.992 104.033 148.678 103.566 149 103.682L159.672 107.517C159.994 107.632 159.836 108.289 159.32 108.974L158.799 109.665C158.283 110.351 157.596 110.817 157.275 110.702Z" fill="white"/>
<path d="M173.253 115.868L162.581 112.033C162.259 111.917 162.417 111.261 162.933 110.576L163.454 109.884C163.97 109.199 164.657 108.733 164.979 108.848L175.651 112.683C175.973 112.799 175.815 113.455 175.299 114.14L174.778 114.832C174.261 115.517 173.575 115.983 173.253 115.868Z" fill="white"/>
<path d="M189.233 121.034L178.56 117.199C178.238 117.083 178.396 116.427 178.913 115.742L179.433 115.05C179.95 114.365 180.636 113.899 180.958 114.014L191.63 117.849C191.952 117.965 191.794 118.621 191.278 119.306L190.757 119.998C190.241 120.683 189.555 121.15 189.233 121.034Z" fill="white"/>
<path d="M155.556 64.6575L134.428 57.4704C134.015 57.3291 134.046 56.8171 134.495 56.3308C134.945 55.8446 135.652 55.562 136.065 55.7033L157.193 62.8903C157.606 63.0316 157.576 63.5437 157.126 64.0299C156.677 64.5162 155.969 64.7988 155.556 64.6575Z" fill="white"/>
<path d="M181.541 129.066L171.034 125.488C170.829 125.418 170.814 125.146 171.001 124.883C171.188 124.62 171.51 124.462 171.715 124.533L182.221 128.112C182.426 128.182 182.442 128.454 182.255 128.716C182.068 128.979 181.746 129.137 181.541 129.066Z" fill="white"/>
<path d="M180.522 132.159L170.016 128.581C169.811 128.511 169.795 128.239 169.982 127.976C170.169 127.714 170.491 127.556 170.696 127.627L181.203 131.205C181.408 131.275 181.423 131.547 181.236 131.81C181.049 132.073 180.727 132.231 180.522 132.159Z" fill="white"/>
<path d="M121.548 110.071L111.041 106.493C110.836 106.423 110.821 106.151 111.008 105.888C111.195 105.625 111.516 105.467 111.721 105.538L122.228 109.117C122.433 109.187 122.448 109.459 122.262 109.721C122.075 109.984 121.753 110.142 121.548 110.071Z" fill="white"/>
<path d="M187.953 72.4888L177.446 68.9105C177.241 68.8406 177.225 68.5686 177.412 68.3057C177.599 68.0429 177.921 67.8848 178.126 67.9563L188.633 71.5346C188.838 71.6045 188.853 71.8765 188.666 72.1393C188.479 72.4022 188.158 72.5602 187.953 72.4888Z" fill="white"/>
<path d="M278.019 88.2518C277.794 88.4144 276.085 85.731 275.86 85.889C256.21 99.6827 240.809 96.1059 240.809 96.1059L231.482 125.143C227.143 138.649 229.028 152.751 236.446 162.286L249.039 178.471L269.202 171.087C281.081 166.736 291.006 155.807 295.344 142.3L304.671 113.264C304.671 113.264 303.488 111.171 302.512 110.901C297.914 109.625 284.815 106.39 278.018 88.2533L278.019 88.2518Z" fill="url(#paint9_linear_41_1323)"/>
<path d="M275.861 85.889C255.926 100.309 238.651 93.7431 238.651 93.7431L229.324 122.78C224.985 136.286 226.87 150.389 234.288 159.923L246.881 176.108L267.045 168.724C278.923 164.374 288.848 153.444 293.186 139.938L302.513 110.901C302.513 110.901 284.099 107.879 275.86 85.889H275.861Z" fill="url(#paint10_linear_41_1323)"/>
<path d="M274.156 91.189C274.507 91.9502 274.862 92.6902 275.237 93.4059C260.606 102.485 247.692 101.441 242.021 100.295L233.887 125.605C230.225 137.008 231.53 149.045 237.237 157.559L236.917 157.147C230.259 148.588 228.544 135.736 232.437 123.616L240.564 98.3061C246.285 99.4548 259.37 100.517 274.155 91.189H274.156Z" fill="url(#paint11_linear_41_1323)"/>
<path d="M297.785 115.087L290.073 139.099C286.175 151.227 277.138 161.181 266.48 165.085L248.278 171.746L237.237 157.559C231.527 149.045 230.221 137.008 233.887 125.605L242.019 100.295C247.689 101.438 260.605 102.486 275.239 93.4027C276.574 95.9858 278.051 98.2604 279.606 100.265C285.56 108.947 292.986 113.142 297.785 115.085V115.087Z" fill="url(#paint12_linear_41_1323)"/>
<path d="M279.605 100.265C278.051 98.2636 276.574 95.9889 275.237 93.4074C275.363 93.3359 275.485 93.2554 275.611 93.1794C276.817 95.8218 278.168 98.1724 279.605 100.266V100.265Z" fill="url(#paint13_linear_41_1323)"/>
<path d="M297.785 115.087L290.074 139.099C286.176 151.227 277.139 161.181 266.48 165.085L248.279 171.746L275.239 93.4027C276.574 95.9858 278.051 98.2604 279.606 100.265C285.561 108.947 292.986 113.142 297.785 115.085V115.087Z" fill="url(#paint14_linear_41_1323)"/>
<g opacity="0.1">
<path opacity="0.04" d="M88.0893 257.176C110.25 257.176 128.216 249.28 128.216 239.54C128.216 229.799 110.25 221.903 88.0893 221.903C65.9282 221.903 47.9631 229.799 47.9631 239.54C47.9631 249.28 65.9282 257.176 88.0893 257.176Z" fill="#4A0101"/>
<path opacity="0.08" d="M88.0895 256.738C109.7 256.738 127.219 249.038 127.219 239.54C127.219 230.041 109.7 222.341 88.0895 222.341C66.4786 222.341 48.9595 230.041 48.9595 239.54C48.9595 249.038 66.4786 256.738 88.0895 256.738Z" fill="#480202"/>
<path opacity="0.12" d="M88.0895 256.301C109.151 256.301 126.225 248.797 126.225 239.54C126.225 230.283 109.151 222.779 88.0895 222.779C67.0279 222.779 49.9541 230.283 49.9541 239.54C49.9541 248.797 67.0279 256.301 88.0895 256.301Z" fill="#460303"/>
<path opacity="0.15" d="M88.0894 255.863C108.602 255.863 125.23 248.555 125.23 239.54C125.23 230.524 108.602 223.216 88.0894 223.216C67.5772 223.216 50.9487 230.524 50.9487 239.54C50.9487 248.555 67.5772 255.863 88.0894 255.863Z" fill="#440404"/>
<path opacity="0.19" d="M88.0896 255.426C108.052 255.426 124.234 248.313 124.234 239.54C124.234 230.766 108.052 223.654 88.0896 223.654C68.1275 223.654 51.9451 230.766 51.9451 239.54C51.9451 248.313 68.1275 255.426 88.0896 255.426Z" fill="#420505"/>
<path opacity="0.23" d="M88.0896 254.99C107.502 254.99 123.239 248.072 123.239 239.54C123.239 231.007 107.502 224.09 88.0896 224.09C68.6768 224.09 52.9397 231.007 52.9397 239.54C52.9397 248.072 68.6768 254.99 88.0896 254.99Z" fill="#400606"/>
<path opacity="0.27" d="M88.0896 254.552C106.953 254.552 122.245 247.831 122.245 239.54C122.245 231.249 106.953 224.527 88.0896 224.527C69.2262 224.527 53.9343 231.249 53.9343 239.54C53.9343 247.831 69.2262 254.552 88.0896 254.552Z" fill="#3E0606"/>
<path opacity="0.31" d="M88.0895 254.114C106.403 254.114 121.249 247.589 121.249 239.54C121.249 231.49 106.403 224.965 88.0895 224.965C69.7762 224.965 54.9304 231.49 54.9304 239.54C54.9304 247.589 69.7762 254.114 88.0895 254.114Z" fill="#3C0707"/>
<path opacity="0.35" d="M88.0897 253.677C105.854 253.677 120.254 247.347 120.254 239.54C120.254 231.732 105.854 225.403 88.0897 225.403C70.3258 225.403 55.9253 231.732 55.9253 239.54C55.9253 247.347 70.3258 253.677 88.0897 253.677Z" fill="#3A0808"/>
<path opacity="0.38" d="M88.0895 253.239C105.304 253.239 119.259 247.106 119.259 239.54C119.259 231.974 105.304 225.84 88.0895 225.84C70.8749 225.84 56.9197 231.974 56.9197 239.54C56.9197 247.106 70.8749 253.239 88.0895 253.239Z" fill="#380909"/>
<path opacity="0.42" d="M88.0894 252.801C104.754 252.801 118.263 246.864 118.263 239.54C118.263 232.215 104.754 226.278 88.0894 226.278C71.425 226.278 57.9158 232.215 57.9158 239.54C57.9158 246.864 71.425 252.801 88.0894 252.801Z" fill="#360A0A"/>
<path opacity="0.46" d="M88.0896 252.364C104.205 252.364 117.269 246.622 117.269 239.54C117.269 232.457 104.205 226.715 88.0896 226.715C71.9745 226.715 58.9106 232.457 58.9106 239.54C58.9106 246.622 71.9745 252.364 88.0896 252.364Z" fill="#340B0B"/>
<path opacity="0.5" d="M88.0893 251.926C103.654 251.926 116.272 246.381 116.272 239.54C116.272 232.699 103.654 227.153 88.0893 227.153C72.5244 227.153 59.9065 232.699 59.9065 239.54C59.9065 246.381 72.5244 251.926 88.0893 251.926Z" fill="#330C0C"/>
<path opacity="0.54" d="M88.0895 251.49C103.105 251.49 115.278 246.14 115.278 239.54C115.278 232.94 103.105 227.589 88.0895 227.589C73.0739 227.589 60.9014 232.94 60.9014 239.54C60.9014 246.14 73.0739 251.49 88.0895 251.49Z" fill="#310D0D"/>
<path opacity="0.58" d="M88.0892 251.053C102.555 251.053 114.283 245.898 114.283 239.54C114.283 233.181 102.555 228.027 88.0892 228.027C73.623 228.027 61.8958 233.181 61.8958 239.54C61.8958 245.898 73.623 251.053 88.0892 251.053Z" fill="#2F0E0E"/>
<path opacity="0.62" d="M88.0896 250.615C102.006 250.615 113.287 245.656 113.287 239.54C113.287 233.423 102.006 228.464 88.0896 228.464C74.1736 228.464 62.8923 233.423 62.8923 239.54C62.8923 245.656 74.1736 250.615 88.0896 250.615Z" fill="#2D0F0F"/>
<path opacity="0.65" d="M88.0896 250.177C101.456 250.177 112.292 245.415 112.292 239.54C112.292 233.665 101.456 228.902 88.0896 228.902C74.7229 228.902 63.887 233.665 63.887 239.54C63.887 245.415 74.7229 250.177 88.0896 250.177Z" fill="#2B1010"/>
<path opacity="0.69" d="M88.0894 249.74C100.907 249.74 111.297 245.173 111.297 239.539C111.297 233.906 100.907 229.339 88.0894 229.339C75.2719 229.339 64.8813 233.906 64.8813 239.539C64.8813 245.173 75.2719 249.74 88.0894 249.74Z" fill="#291111"/>
<path opacity="0.73" d="M88.0895 249.302C100.357 249.302 110.301 244.931 110.301 239.54C110.301 234.148 100.357 229.777 88.0895 229.777C75.8223 229.777 65.8777 234.148 65.8777 239.54C65.8777 244.931 75.8223 249.302 88.0895 249.302Z" fill="#271212"/>
<path opacity="0.77" d="M88.0895 248.865C99.8074 248.865 109.307 244.69 109.307 239.54C109.307 234.39 99.8074 230.215 88.0895 230.215C76.3716 230.215 66.8723 234.39 66.8723 239.54C66.8723 244.69 76.3716 248.865 88.0895 248.865Z" fill="#251212"/>
<path opacity="0.81" d="M88.0894 248.427C99.2572 248.427 108.31 244.448 108.31 239.54C108.31 234.631 99.2572 230.652 88.0894 230.652C76.9217 230.652 67.8684 234.631 67.8684 239.54C67.8684 244.448 76.9217 248.427 88.0894 248.427Z" fill="#231313"/>
<path opacity="0.85" d="M88.0894 247.99C98.7078 247.99 107.316 244.206 107.316 239.54C107.316 234.873 98.7078 231.09 88.0894 231.09C77.471 231.09 68.863 234.873 68.863 239.54C68.863 244.206 77.471 247.99 88.0894 247.99Z" fill="#211414"/>
<path opacity="0.88" d="M88.0896 247.553C98.1587 247.553 106.321 243.965 106.321 239.54C106.321 235.114 98.1587 231.526 88.0896 231.526C78.0205 231.526 69.8579 235.114 69.8579 239.54C69.8579 243.965 78.0205 247.553 88.0896 247.553Z" fill="#1F1515"/>
<path opacity="0.92" d="M88.0893 247.116C97.6082 247.116 105.325 243.724 105.325 239.54C105.325 235.356 97.6082 231.964 88.0893 231.964C78.5704 231.964 70.8538 235.356 70.8538 239.54C70.8538 243.724 78.5704 247.116 88.0893 247.116Z" fill="#1D1616"/>
<path opacity="0.96" d="M88.0893 246.678C97.0589 246.678 104.33 243.482 104.33 239.54C104.33 235.597 97.0589 232.401 88.0893 232.401C79.1197 232.401 71.8484 235.597 71.8484 239.54C71.8484 243.482 79.1197 246.678 88.0893 246.678Z" fill="#1B1717"/>
<path d="M88.0895 246.241C96.5098 246.241 103.336 243.241 103.336 239.54C103.336 235.839 96.5098 232.839 88.0895 232.839C79.6692 232.839 72.8433 235.839 72.8433 239.54C72.8433 243.241 79.6692 246.241 88.0895 246.241Z" fill="#191818"/>
</g>
<path d="M75.8607 239.529L11.7384 215.315L11.2995 215.149C-10.3353 206.879 1.5322 175.888 26.3377 182.381L57.0079 194.313L95.8463 209.427C73.226 203.51 61.3601 228.77 75.8607 239.531V239.529Z" fill="url(#paint15_linear_41_1323)"/>
<path d="M118.416 119.06L179.845 142.963C171.472 141.566 158.084 144.545 146.999 171.015C129.434 212.961 124.916 245.915 90.6543 244.128C84.1458 243.787 79.2864 242.068 75.8712 239.54L75.8621 239.529C61.3614 228.77 73.2274 203.51 95.8477 209.426L57.0093 194.311C63.8989 181.256 69.2655 163.594 77.4915 143.967C95.0566 102.02 118.418 119.059 118.418 119.059L118.416 119.06Z" fill="url(#paint16_linear_41_1323)"/>
<path d="M102.677 128.537L148.183 147.164" stroke="#CCCCCC" stroke-width="3.70369" stroke-linecap="round" stroke-linejoin="round"/>
<path d="M89.4668 136.833L103.099 142.17" stroke="#CCCCCC" stroke-width="3.70369" stroke-linecap="round" stroke-linejoin="round"/>
<path d="M87.2012 142.129L109.897 151.013" stroke="#CCCCCC" stroke-width="3.70369" stroke-linecap="round" stroke-linejoin="round"/>
<path d="M84.9355 147.425L107.63 156.308" stroke="#CCCCCC" stroke-width="3.70369" stroke-linecap="round" stroke-linejoin="round"/>
<path d="M82.6682 152.721L105.364 161.605" stroke="#CCCCCC" stroke-width="3.70369" stroke-linecap="round" stroke-linejoin="round"/>
<path d="M80.4028 158.016L103.099 166.9" stroke="#CCCCCC" stroke-width="3.70369" stroke-linecap="round" stroke-linejoin="round"/>
<path d="M78.1372 163.311L91.7677 168.648" stroke="#CCCCCC" stroke-width="3.70369" stroke-linecap="round" stroke-linejoin="round"/>
<path d="M75.8701 168.608L98.5664 177.491" stroke="#CCCCCC" stroke-width="3.70369" stroke-linecap="round" stroke-linejoin="round"/>
<path d="M73.6042 173.904L96.3005 182.788" stroke="#CCCCCC" stroke-width="3.70369" stroke-linecap="round" stroke-linejoin="round"/>
<path d="M71.3384 179.199L89.4668 186.296" stroke="#CCCCCC" stroke-width="3.70369" stroke-linecap="round" stroke-linejoin="round"/>
<path d="M69.0715 184.496L91.7678 193.378" stroke="#CCCCCC" stroke-width="3.70369" stroke-linecap="round" stroke-linejoin="round"/>
<path d="M66.8057 189.791L86.483 197.493" stroke="#CCCCCC" stroke-width="3.70369" stroke-linecap="round" stroke-linejoin="round"/>
<path d="M121.867 151.163L135.499 156.5" stroke="#CCCCCC" stroke-width="3.70369" stroke-linecap="round" stroke-linejoin="round"/>
<path d="M119.601 156.459L142.297 165.343" stroke="#CCCCCC" stroke-width="3.70369" stroke-linecap="round" stroke-linejoin="round"/>
<path d="M117.336 161.756L140.03 170.638" stroke="#CCCCCC" stroke-width="3.70369" stroke-linecap="round" stroke-linejoin="round"/>
<path d="M115.068 167.051L137.764 175.934" stroke="#CCCCCC" stroke-width="3.70369" stroke-linecap="round" stroke-linejoin="round"/>
<path d="M112.803 172.346L135.499 181.23" stroke="#CCCCCC" stroke-width="3.70369" stroke-linecap="round" stroke-linejoin="round"/>
<path d="M110.537 177.642L124.167 182.978" stroke="#CCCCCC" stroke-width="3.70369" stroke-linecap="round" stroke-linejoin="round"/>
<path d="M108.27 182.938L130.966 191.821" stroke="#CCCCCC" stroke-width="3.70369" stroke-linecap="round" stroke-linejoin="round"/>
<path d="M106.004 188.234L128.7 197.118" stroke="#CCCCCC" stroke-width="3.70369" stroke-linecap="round" stroke-linejoin="round"/>
<path d="M103.738 193.529L121.867 200.626" stroke="#CCCCCC" stroke-width="3.70369" stroke-linecap="round" stroke-linejoin="round"/>
<path d="M101.471 198.826L124.167 207.709" stroke="#CCCCCC" stroke-width="3.70369" stroke-linecap="round" stroke-linejoin="round"/>
<path d="M99.2053 204.121L118.881 211.823" stroke="#CCCCCC" stroke-width="3.70369" stroke-linecap="round" stroke-linejoin="round"/>
<path d="M221.116 40.9858L212.776 20.7086L196.374 33.1682L202.856 35.2164L195.86 57.8852L207.161 61.8085L213.854 38.6914L221.116 40.9858Z" fill="white"/>
<path d="M177.218 191.921C188.403 191.921 197.47 182.849 197.47 171.658C197.47 160.467 188.403 151.394 177.218 151.394C166.034 151.394 156.967 160.467 156.967 171.658C156.967 182.849 166.034 191.921 177.218 191.921Z" fill="url(#paint17_linear_41_1323)"/>
<path d="M174.002 191.921C185.187 191.921 194.254 182.849 194.254 171.658C194.254 160.467 185.187 151.394 174.002 151.394C162.818 151.394 153.751 160.467 153.751 171.658C153.751 182.849 162.818 191.921 174.002 191.921Z" fill="url(#paint18_linear_41_1323)"/>
<path d="M163.896 165.506L170.541 180.463L188.427 171.422" stroke="#FEFEFF" stroke-width="9.06455" stroke-linecap="round" stroke-linejoin="round"/>
<path d="M207.944 262.104C207.944 262.104 203.916 261.517 196.306 256.498C188.697 251.48 171.958 230.412 171.876 228.171C171.794 225.93 175.778 200.766 175.778 200.766C175.778 200.766 185.254 198.753 185.556 208.57C185.86 218.389 185.017 219.337 185.017 219.337C185.017 219.337 187.816 224.36 192.981 225.687C198.145 227.013 192.744 201.375 192.744 201.375C192.744 201.375 173.081 176.746 173.516 171.969C173.95 167.192 178.322 163.729 178.322 163.729L207.752 199.409C207.752 199.409 228.012 202.128 230.721 203.819C233.43 205.51 239.363 237.384 240.189 240.489C241.015 243.595 240.452 247.579 240.452 247.579L207.947 262.102L207.944 262.104Z" fill="url(#paint19_linear_41_1323)"/>
<path d="M217.361 200.841C217.361 200.841 202.166 184.195 199.708 182.396C197.249 180.595 193.401 182.014 193.401 182.014L207.75 199.411L217.361 200.841Z" fill="url(#paint20_linear_41_1323)"/>
<path d="M224.014 202.012C224.014 202.012 212.959 187.48 208.568 184.201C204.178 180.922 201.281 181.475 200.587 183.149L217.361 200.839L224.014 202.012Z" fill="url(#paint21_linear_41_1323)"/>
<path d="M230.719 203.819C230.719 203.819 218.589 187.422 215.176 184.792C211.762 182.162 208.568 184.201 208.568 184.201L224.014 202.012L230.719 203.819Z" fill="url(#paint22_linear_41_1323)"/>
<path d="M208.381 252.759C208.486 252.58 208.594 252.402 208.705 252.226C208.755 252.145 208.81 252.066 208.861 251.986C208.884 251.951 208.905 251.917 208.928 251.882C208.969 251.821 209.007 251.759 209.048 251.698C209.167 251.524 209.286 251.35 209.413 251.179C209.539 251.002 209.669 250.828 209.803 250.655C209.806 250.65 209.81 250.644 209.815 250.639C209.82 250.635 209.823 250.629 209.827 250.624C209.953 250.46 210.082 250.297 210.213 250.136C210.357 249.96 210.504 249.785 210.653 249.611C210.706 249.55 210.761 249.491 210.816 249.428C210.848 249.392 210.879 249.357 210.913 249.32C210.981 249.244 211.046 249.168 211.115 249.092C211.273 248.919 211.435 248.748 211.599 248.577C211.719 248.454 211.842 248.331 211.965 248.21C211.986 248.187 212.009 248.166 212.032 248.143C212.055 248.12 212.076 248.097 212.099 248.076C212.264 247.913 212.434 247.752 212.605 247.593C212.773 247.436 212.945 247.28 213.119 247.126C213.151 247.099 213.185 247.072 213.216 247.043C213.244 247.02 213.27 246.996 213.297 246.973C213.408 246.877 213.517 246.78 213.63 246.686C213.801 246.54 213.974 246.399 214.15 246.256C214.276 246.154 214.404 246.055 214.533 245.955C214.556 245.937 214.577 245.918 214.601 245.902C214.627 245.882 214.652 245.861 214.677 245.841C214.858 245.701 215.042 245.564 215.226 245.429C215.428 245.28 215.631 245.136 215.836 244.991C215.868 244.97 215.9 244.949 215.93 244.928C215.971 244.9 216.012 244.873 216.052 244.846C216.219 244.732 216.384 244.616 216.554 244.504C216.765 244.365 216.983 244.235 217.197 244.101C217.306 244.033 217.414 243.961 217.525 243.894C217.567 243.869 217.61 243.84 217.654 243.814C217.844 243.7 218.041 243.598 218.232 243.489C218.516 243.326 218.797 243.162 219.084 243.01C219.13 242.986 219.174 242.958 219.219 242.934C219.638 242.715 220.061 242.506 220.486 242.307C220.487 242.307 220.489 242.305 220.49 242.304C220.776 242.17 221.064 242.041 221.353 241.918C221.587 241.817 221.822 241.72 222.058 241.626C222.062 241.624 222.068 241.621 222.073 241.62C222.076 241.62 222.079 241.618 222.082 241.617C222.319 241.523 222.559 241.431 222.797 241.343C223.032 241.257 223.268 241.175 223.503 241.096C223.541 241.082 223.581 241.071 223.619 241.059C223.66 241.045 223.699 241.033 223.739 241.021C223.903 240.968 224.065 240.913 224.229 240.863C224.474 240.789 224.718 240.719 224.962 240.652C225.038 240.632 225.113 240.614 225.189 240.594C225.245 240.579 225.303 240.565 225.359 240.55C225.477 240.521 225.594 240.488 225.713 240.46C225.96 240.401 226.208 240.346 226.455 240.295C226.563 240.272 226.671 240.255 226.779 240.234C226.833 240.223 226.888 240.213 226.943 240.204C227.023 240.188 227.102 240.173 227.183 240.16C227.418 240.119 227.652 240.084 227.886 240.05C228.054 240.027 228.223 240.009 228.39 239.989C228.42 239.986 228.452 239.982 228.482 239.979C228.511 239.976 228.54 239.971 228.569 239.968C228.788 239.945 229.005 239.927 229.222 239.912C229.436 239.897 229.649 239.886 229.861 239.88C229.91 239.88 229.959 239.877 230.007 239.875C230.165 239.871 230.321 239.869 230.476 239.869C230.677 239.869 230.874 239.874 231.07 239.882C231.196 239.886 231.321 239.895 231.445 239.904C231.476 239.906 231.506 239.907 231.535 239.909C231.571 239.912 231.608 239.912 231.644 239.915C231.832 239.93 232.018 239.948 232.2 239.97C232.387 239.992 232.569 240.018 232.75 240.047C232.781 240.052 232.81 240.059 232.842 240.064C232.87 240.068 232.894 240.075 232.921 240.079C233.043 240.1 233.164 240.122 233.283 240.146C233.465 240.184 233.644 240.226 233.82 240.272C233.905 240.293 233.987 240.321 234.071 240.343C234.106 240.354 234.142 240.363 234.179 240.374C234.232 240.389 234.286 240.404 234.34 240.421C234.523 240.479 234.704 240.543 234.879 240.609C234.986 240.65 235.09 240.697 235.194 240.742C235.231 240.757 235.267 240.772 235.302 240.787C235.337 240.802 235.374 240.816 235.409 240.831C235.595 240.916 235.775 241.007 235.949 241.103C236.027 241.146 236.096 241.194 236.172 241.238C236.23 241.273 236.288 241.307 236.344 241.343C236.402 241.38 236.464 241.413 236.522 241.451C236.733 241.592 236.932 241.743 237.122 241.901C237.125 241.904 237.128 241.907 237.132 241.91C237.175 241.946 237.21 241.989 237.252 242.025C237.442 242.193 237.627 242.363 237.794 242.548C237.808 242.563 237.817 242.582 237.829 242.597C238.071 242.872 238.291 243.161 238.478 243.47L251.94 265.231C251.751 264.921 251.533 264.632 251.291 264.357C251.113 264.155 250.918 263.966 250.713 263.784C250.672 263.748 250.637 263.705 250.594 263.67C250.351 263.467 250.085 263.278 249.806 263.102C249.75 263.067 249.692 263.032 249.634 262.999C249.36 262.834 249.073 262.683 248.766 262.547C248.729 262.531 248.693 262.517 248.656 262.502C248.334 262.363 247.996 262.24 247.641 262.134C247.604 262.123 247.568 262.113 247.533 262.104C247.167 261.999 246.784 261.909 246.385 261.839C246.357 261.835 246.332 261.829 246.304 261.824C245.887 261.753 245.449 261.701 244.997 261.669C244.966 261.668 244.936 261.666 244.907 261.665C244.445 261.634 243.967 261.623 243.471 261.636C242.968 261.648 242.458 261.684 241.946 261.739C241.916 261.742 241.885 261.747 241.853 261.75C241.373 261.804 240.891 261.876 240.405 261.964C240.351 261.974 240.297 261.984 240.244 261.994C239.771 262.084 239.298 262.19 238.822 262.312C238.766 262.325 238.71 262.341 238.654 262.354C238.169 262.48 237.685 262.623 237.202 262.781C237.163 262.793 237.123 262.806 237.084 262.819C236.566 262.991 236.049 263.178 235.536 263.381C235.532 263.385 235.526 263.386 235.521 263.388C234.996 263.597 234.472 263.822 233.954 264.065C233.954 264.065 233.951 264.067 233.949 264.068C233.477 264.289 233.009 264.526 232.548 264.772C232.259 264.924 231.978 265.089 231.694 265.25C231.459 265.386 231.219 265.515 230.987 265.656C230.876 265.723 230.768 265.794 230.657 265.863C230.271 266.103 229.889 266.349 229.515 266.606C229.474 266.633 229.433 266.66 229.392 266.689C228.94 267.002 228.496 267.328 228.063 267.663C228.039 267.682 228.016 267.7 227.992 267.72C227.57 268.049 227.157 268.388 226.757 268.738C226.732 268.76 226.706 268.782 226.68 268.804C226.271 269.163 225.875 269.531 225.494 269.908C225.471 269.93 225.45 269.953 225.427 269.974C225.061 270.338 224.71 270.707 224.373 271.085C224.341 271.122 224.31 271.157 224.278 271.193C223.933 271.584 223.602 271.98 223.291 272.386C223.286 272.392 223.28 272.398 223.275 272.404C222.961 272.813 222.666 273.228 222.39 273.647C222.367 273.682 222.345 273.717 222.322 273.75C222.048 274.173 221.79 274.598 221.558 275.03C221.326 275.46 221.122 275.884 220.943 276.301C220.926 276.339 220.911 276.379 220.894 276.417C220.732 276.803 220.592 277.181 220.474 277.555C220.458 277.605 220.442 277.654 220.428 277.704C220.317 278.067 220.229 278.424 220.159 278.775C220.146 278.842 220.135 278.907 220.124 278.973C220.065 279.304 220.023 279.631 220.001 279.95C219.998 279.985 219.992 280.023 219.991 280.059C219.969 280.425 219.971 280.782 219.997 281.129C220.001 281.176 220.009 281.22 220.014 281.267C220.039 281.547 220.08 281.819 220.135 282.083C220.156 282.18 220.181 282.274 220.205 282.37C220.261 282.589 220.328 282.803 220.405 283.011C220.437 283.098 220.468 283.186 220.503 283.27C220.619 283.549 220.75 283.821 220.906 284.078C220.906 284.078 220.906 284.08 220.906 284.081L207.446 262.321C207.29 262.063 207.159 261.789 207.041 261.51C207.006 261.426 206.975 261.338 206.943 261.253C206.866 261.043 206.799 260.829 206.743 260.61C206.719 260.516 206.694 260.422 206.673 260.326C206.617 260.061 206.576 259.789 206.55 259.508C206.546 259.461 206.536 259.419 206.533 259.372C206.533 259.361 206.53 259.35 206.529 259.34C206.506 259.013 206.504 258.677 206.523 258.334C206.523 258.323 206.526 258.311 206.526 258.3C206.527 258.265 206.533 258.229 206.536 258.196C206.552 257.981 206.57 257.766 206.602 257.545C206.617 257.437 206.641 257.325 206.661 257.216C206.672 257.15 206.684 257.085 206.696 257.018C206.708 256.959 206.714 256.901 206.728 256.842C206.775 256.624 206.829 256.404 206.892 256.182C206.913 256.105 206.94 256.026 206.965 255.947C206.98 255.897 206.995 255.846 207.01 255.796C207.034 255.72 207.054 255.644 207.082 255.568C207.147 255.375 207.218 255.181 207.294 254.983C207.337 254.876 207.385 254.766 207.431 254.657C207.446 254.619 207.461 254.582 207.478 254.544C207.498 254.499 207.514 254.455 207.534 254.408C207.615 254.225 207.7 254.041 207.791 253.858C207.88 253.674 207.976 253.49 208.075 253.304C208.081 253.294 208.087 253.283 208.093 253.273C208.184 253.102 208.28 252.934 208.378 252.767L208.381 252.759Z" fill="url(#paint23_linear_41_1323)"/>
<path d="M243.468 261.633C235.255 261.836 225.447 267.832 221.556 275.025C217.671 282.211 221.174 287.877 229.386 287.673C237.589 287.469 247.398 281.475 251.284 274.288C255.174 267.093 251.671 261.429 243.468 261.633Z" fill="url(#paint24_linear_41_1323)"/>
<path d="M210.038 267.496C210.181 267.252 210.33 267.008 210.482 266.765C210.552 266.656 210.624 266.546 210.696 266.437C210.726 266.39 210.757 266.343 210.788 266.296C210.843 266.212 210.896 266.127 210.952 266.044C211.113 265.805 211.28 265.568 211.451 265.331C211.624 265.089 211.803 264.849 211.985 264.612C211.99 264.605 211.996 264.599 212.002 264.591C212.008 264.585 212.014 264.577 212.018 264.57C212.19 264.345 212.368 264.123 212.547 263.903C212.744 263.661 212.946 263.421 213.151 263.184C213.224 263.1 213.3 263.018 213.373 262.935C213.417 262.885 213.461 262.836 213.505 262.786C213.598 262.682 213.687 262.576 213.783 262.474C214 262.237 214.222 262.002 214.448 261.769C214.612 261.601 214.781 261.432 214.949 261.265C214.98 261.234 215.01 261.204 215.04 261.172C215.071 261.142 215.101 261.11 215.132 261.079C215.359 260.856 215.59 260.636 215.826 260.417C216.056 260.201 216.292 259.989 216.53 259.777C216.574 259.739 216.62 259.701 216.664 259.663C216.7 259.631 216.737 259.6 216.775 259.568C216.925 259.437 217.075 259.303 217.229 259.174C217.464 258.975 217.701 258.781 217.941 258.586C218.114 258.448 218.289 258.311 218.465 258.174C218.497 258.15 218.525 258.126 218.559 258.101C218.594 258.074 218.629 258.047 218.664 258.018C218.911 257.826 219.162 257.639 219.414 257.453C219.69 257.249 219.97 257.05 220.251 256.854C220.293 256.823 220.337 256.796 220.38 256.766C220.434 256.728 220.49 256.691 220.547 256.653C220.774 256.497 221.002 256.339 221.235 256.185C221.523 255.995 221.821 255.816 222.114 255.634C222.264 255.54 222.411 255.444 222.563 255.351C222.623 255.315 222.68 255.275 222.739 255.24C222.999 255.084 223.269 254.945 223.532 254.795C223.919 254.573 224.307 254.348 224.7 254.139C224.762 254.105 224.823 254.069 224.885 254.035C225.459 253.734 226.038 253.449 226.621 253.175C226.624 253.175 226.625 253.172 226.628 253.171C227.02 252.987 227.414 252.811 227.81 252.642C228.13 252.505 228.452 252.373 228.776 252.244C228.783 252.241 228.791 252.238 228.797 252.235C228.802 252.235 228.806 252.232 228.811 252.23C229.136 252.101 229.464 251.975 229.79 251.856C230.112 251.738 230.434 251.625 230.756 251.518C230.809 251.499 230.862 251.484 230.915 251.467C230.97 251.449 231.025 251.432 231.081 251.414C231.304 251.341 231.527 251.267 231.752 251.198C232.086 251.097 232.422 250.999 232.756 250.91C232.859 250.882 232.962 250.857 233.066 250.831C233.143 250.811 233.22 250.791 233.298 250.771C233.46 250.732 233.621 250.686 233.782 250.648C234.121 250.566 234.46 250.492 234.798 250.422C234.946 250.392 235.093 250.367 235.242 250.338C235.316 250.325 235.392 250.31 235.466 250.296C235.576 250.276 235.685 250.253 235.796 250.235C236.118 250.179 236.438 250.13 236.759 250.086C236.99 250.056 237.22 250.03 237.45 250.004C237.492 250 237.535 249.993 237.576 249.989C237.615 249.984 237.655 249.978 237.694 249.975C237.993 249.945 238.292 249.919 238.589 249.899C238.882 249.88 239.173 249.864 239.463 249.855C239.53 249.854 239.597 249.851 239.664 249.849C239.881 249.843 240.093 249.842 240.306 249.842C240.581 249.842 240.851 249.849 241.118 249.858C241.292 249.864 241.462 249.878 241.632 249.889C241.673 249.89 241.714 249.892 241.755 249.896C241.805 249.899 241.855 249.901 241.905 249.904C242.163 249.925 242.417 249.949 242.667 249.978C242.923 250.009 243.173 250.044 243.419 250.083C243.462 250.091 243.503 250.1 243.547 250.106C243.583 250.112 243.618 250.12 243.654 250.127C243.82 250.156 243.987 250.185 244.148 250.218C244.399 250.27 244.645 250.328 244.883 250.39C245 250.42 245.111 250.455 245.226 250.489C245.275 250.503 245.325 250.516 245.375 250.531C245.448 250.553 245.524 250.572 245.595 250.595C245.847 250.676 246.093 250.761 246.333 250.853C246.482 250.91 246.623 250.974 246.766 251.036C246.815 251.057 246.865 251.077 246.913 251.098C246.962 251.119 247.012 251.138 247.058 251.159C247.313 251.276 247.559 251.401 247.799 251.531C247.905 251.59 248.001 251.656 248.104 251.717C248.183 251.764 248.262 251.811 248.338 251.859C248.417 251.91 248.502 251.955 248.581 252.007C248.869 252.2 249.143 252.405 249.402 252.622C249.407 252.625 249.41 252.631 249.416 252.636C249.475 252.686 249.522 252.744 249.58 252.794C249.84 253.023 250.095 253.256 250.321 253.51C250.339 253.531 250.351 253.555 250.369 253.576C250.701 253.953 251.001 254.35 251.258 254.774L269.679 284.582C269.423 284.159 269.122 283.762 268.791 283.385C268.548 283.109 268.279 282.85 267.998 282.601C267.942 282.551 267.894 282.493 267.836 282.445C267.503 282.165 267.139 281.908 266.758 281.667C266.68 281.618 266.601 281.571 266.522 281.524C266.146 281.299 265.752 281.091 265.333 280.905C265.285 280.883 265.233 280.863 265.184 280.843C264.744 280.655 264.281 280.486 263.793 280.34C263.745 280.325 263.695 280.311 263.645 280.298C263.144 280.153 262.62 280.032 262.073 279.936C262.037 279.93 262 279.922 261.964 279.916C261.391 279.819 260.793 279.748 260.173 279.703C260.132 279.702 260.09 279.699 260.05 279.696C259.417 279.655 258.764 279.64 258.084 279.656C257.394 279.673 256.697 279.722 255.996 279.798C255.953 279.802 255.912 279.808 255.87 279.813C255.212 279.887 254.552 279.985 253.885 280.106C253.812 280.12 253.738 280.133 253.665 280.147C253.018 280.27 252.369 280.416 251.719 280.582C251.642 280.601 251.565 280.62 251.489 280.641C250.825 280.814 250.163 281.01 249.501 281.226C249.448 281.244 249.393 281.261 249.34 281.278C248.632 281.513 247.925 281.768 247.22 282.048C247.214 282.051 247.206 282.054 247.2 282.057C246.48 282.344 245.764 282.653 245.053 282.986C245.052 282.986 245.048 282.989 245.047 282.989C244.4 283.291 243.761 283.616 243.126 283.952C242.731 284.16 242.345 284.386 241.958 284.608C241.635 284.794 241.307 284.971 240.989 285.164C240.838 285.256 240.689 285.353 240.538 285.447C240.01 285.777 239.486 286.113 238.974 286.464C238.918 286.502 238.862 286.538 238.806 286.578C238.186 287.008 237.579 287.451 236.987 287.91C236.953 287.936 236.921 287.96 236.889 287.986C236.311 288.437 235.746 288.902 235.198 289.381C235.163 289.411 235.128 289.442 235.093 289.472C234.533 289.963 233.99 290.467 233.468 290.982C233.438 291.013 233.407 291.045 233.377 291.075C232.876 291.572 232.396 292.079 231.933 292.596C231.889 292.645 231.845 292.693 231.802 292.743C231.328 293.278 230.876 293.822 230.449 294.377C230.443 294.386 230.435 294.394 230.428 294.403C229.998 294.962 229.594 295.53 229.216 296.106C229.184 296.153 229.154 296.202 229.122 296.249C228.747 296.826 228.395 297.411 228.074 298.001C227.755 298.589 227.477 299.169 227.231 299.742C227.209 299.795 227.187 299.847 227.166 299.9C226.944 300.427 226.753 300.947 226.591 301.459C226.569 301.527 226.548 301.594 226.528 301.663C226.376 302.16 226.255 302.65 226.159 303.131C226.141 303.222 226.127 303.311 226.111 303.401C226.03 303.855 225.972 304.304 225.941 304.74C225.938 304.788 225.928 304.84 225.925 304.889C225.895 305.39 225.898 305.879 225.933 306.355C225.938 306.419 225.95 306.479 225.957 306.543C225.992 306.925 226.048 307.298 226.124 307.662C226.153 307.794 226.187 307.923 226.22 308.054C226.297 308.353 226.389 308.646 226.493 308.932C226.537 309.05 226.578 309.17 226.627 309.286C226.788 309.667 226.967 310.041 227.18 310.392C227.18 310.394 227.18 310.395 227.181 310.397L208.76 280.589C208.546 280.235 208.366 279.861 208.205 279.477C208.157 279.362 208.117 279.243 208.073 279.125C207.969 278.837 207.876 278.544 207.798 278.243C207.765 278.114 207.732 277.985 207.704 277.853C207.628 277.49 207.572 277.117 207.537 276.734C207.531 276.671 207.519 276.611 207.514 276.548C207.514 276.532 207.51 276.519 207.51 276.505C207.48 276.058 207.477 275.598 207.502 275.127C207.502 275.112 207.507 275.096 207.507 275.081C207.51 275.034 207.518 274.984 207.522 274.937C207.543 274.642 207.568 274.347 207.612 274.045C207.633 273.896 207.666 273.744 207.694 273.594C207.709 273.504 207.724 273.414 207.742 273.323C207.759 273.243 207.768 273.164 207.785 273.082C207.849 272.784 207.924 272.483 208.011 272.179C208.04 272.073 208.078 271.965 208.111 271.857C208.131 271.789 208.152 271.719 208.175 271.65C208.208 271.546 208.236 271.444 208.272 271.339C208.362 271.074 208.459 270.807 208.564 270.538C208.621 270.391 208.688 270.24 208.751 270.091C208.772 270.04 208.793 269.99 208.816 269.938C208.842 269.876 208.866 269.815 208.893 269.751C209.004 269.502 209.121 269.25 209.246 268.997C209.369 268.747 209.499 268.493 209.636 268.239C209.643 268.224 209.653 268.21 209.66 268.195C209.786 267.963 209.915 267.732 210.05 267.501L210.038 267.496Z" fill="url(#paint25_linear_41_1323)"/>
<path d="M258.081 279.653C246.834 279.931 233.4 288.144 228.068 297.998C222.742 307.841 227.536 315.601 238.781 315.323C250.014 315.045 263.449 306.833 268.774 296.99C274.106 287.135 269.312 279.375 258.079 279.653H258.081Z" fill="url(#paint26_linear_41_1323)"/>
<path d="M146.518 37.1292C155.603 30.8015 158.125 18.7099 152.151 10.1218C146.177 1.53374 133.969 -0.298621 124.883 6.0291C115.798 12.3568 113.276 24.4484 119.25 33.0365C125.224 41.6246 137.432 43.4569 146.518 37.1292Z" fill="url(#paint27_linear_41_1323)"/>
<path d="M145.34 34.8644C154.425 28.5367 156.947 16.4451 150.973 7.85703C144.999 -0.731026 132.791 -2.56339 123.705 3.76433C114.62 10.092 112.098 22.1837 118.072 30.7717C124.046 39.3598 136.254 41.1922 145.34 34.8644Z" fill="url(#paint28_linear_41_1323)"/>
<path d="M133.49 15.0973C133.49 18.0405 131.944 19.5007 130.14 19.5007C128.336 19.5007 126.898 18.1043 126.876 15.2903C126.876 12.4975 128.401 10.9294 130.248 10.9294C132.202 10.9294 133.49 12.4337 133.49 15.0973ZM128.378 15.2265C128.336 17.0103 129.001 18.3626 130.182 18.3626C131.428 18.3626 131.986 17.0301 131.986 15.1824C131.986 13.4852 131.493 12.0675 130.182 12.0675C129.001 12.0675 128.378 13.4639 128.378 15.225V15.2265ZM130.011 25.3673L138.212 10.9294H139.415L131.213 25.3673H130.011ZM142.571 20.8773C142.571 23.8205 141.025 25.2807 139.244 25.2807C137.462 25.2807 136.001 23.8844 135.98 21.0916C135.98 18.2775 137.505 16.7095 139.351 16.7095C141.306 16.7095 142.572 18.2137 142.572 20.8773H142.571ZM137.461 21.0065C137.44 22.7888 138.127 24.1427 139.286 24.1427C140.531 24.1427 141.089 22.8101 141.089 20.9624C141.089 19.2652 140.595 17.8475 139.286 17.8475C138.105 17.8475 137.461 19.2439 137.461 21.005V21.0065Z" fill="white"/>
</g>
<defs>
<linearGradient id="paint0_linear_41_1323" x1="221.948" y1="94.7428" x2="100.157" y2="155.601" gradientUnits="userSpaceOnUse">
<stop stop-color="#7F7F7F"/>
<stop offset="1" stop-color="#444444"/>
</linearGradient>
<linearGradient id="paint1_linear_41_1323" x1="221.775" y1="94.4254" x2="99.9856" y2="155.284" gradientUnits="userSpaceOnUse">
<stop stop-color="#444444"/>
<stop offset="0.12" stop-color="#767676"/>
<stop offset="0.36" stop-color="white"/>
<stop offset="0.72" stop-color="#5C5C5C"/>
<stop offset="1" stop-color="#7F7F7F"/>
</linearGradient>
<linearGradient id="paint2_linear_41_1323" x1="237.567" y1="32.6729" x2="141.014" y2="180.226" gradientUnits="userSpaceOnUse">
<stop stop-color="#7F7F7F"/>
<stop offset="1" stop-color="#444444"/>
</linearGradient>
<linearGradient id="paint3_linear_41_1323" x1="165.994" y1="164.644" x2="225.733" y2="19.9194" gradientUnits="userSpaceOnUse">
<stop stop-color="#FE7F0A"/>
<stop offset="1" stop-color="#FFB538"/>
</linearGradient>
<linearGradient id="paint4_linear_41_1323" x1="257.302" y1="46.2129" x2="161.03" y2="193.338" gradientUnits="userSpaceOnUse">
<stop stop-color="#7F7F7F"/>
<stop offset="1" stop-color="white"/>
</linearGradient>
<linearGradient id="paint5_linear_41_1323" x1="163.617" y1="97.8974" x2="205.328" y2="207.004" gradientUnits="userSpaceOnUse">
<stop stop-color="#3ABAF9"/>
<stop offset="1" stop-color="#267EBD"/>
</linearGradient>
<linearGradient id="paint6_linear_41_1323" x1="126.626" y1="158.315" x2="261.88" y2="161.279" gradientUnits="userSpaceOnUse">
<stop stop-color="#3ABAF9"/>
<stop offset="1" stop-color="#267EBD"/>
</linearGradient>
<linearGradient id="paint7_linear_41_1323" x1="158.962" y1="135.466" x2="147.558" y2="127.969" gradientUnits="userSpaceOnUse">
<stop stop-color="#FFCA85"/>
<stop offset="1" stop-color="#D88D35"/>
</linearGradient>
<linearGradient id="paint8_linear_41_1323" x1="225.909" y1="140.427" x2="229.49" y2="149.799" gradientUnits="userSpaceOnUse">
<stop stop-color="#DD2F2F"/>
<stop offset="1" stop-color="#FF6757"/>
</linearGradient>
<linearGradient id="paint9_linear_41_1323" x1="260.137" y1="155.311" x2="271.636" y2="102.253" gradientUnits="userSpaceOnUse">
<stop stop-color="#FBFBFB"/>
<stop offset="1" stop-color="#E5E5E5"/>
</linearGradient>
<linearGradient id="paint10_linear_41_1323" x1="292.883" y1="97.0137" x2="232.318" y2="151.498" gradientUnits="userSpaceOnUse">
<stop stop-color="#FBFBFB"/>
<stop offset="1" stop-color="#E5E5E5"/>
</linearGradient>
<linearGradient id="paint11_linear_41_1323" x1="231.222" y1="122.735" x2="273.133" y2="125.502" gradientUnits="userSpaceOnUse">
<stop stop-color="#23875E"/>
<stop offset="1" stop-color="#0BA2B3"/>
</linearGradient>
<linearGradient id="paint12_linear_41_1323" x1="273.156" y1="95.6853" x2="256.209" y2="152.648" gradientUnits="userSpaceOnUse">
<stop stop-color="#3ABAF9"/>
<stop offset="1" stop-color="#267EBD"/>
</linearGradient>
<linearGradient id="paint13_linear_41_1323" x1="275.046" y1="96.5285" x2="279.845" y2="96.8454" gradientUnits="userSpaceOnUse">
<stop stop-color="#82FB7C"/>
<stop offset="1" stop-color="#0BA2B3"/>
</linearGradient>
<linearGradient id="paint14_linear_41_1323" x1="289.341" y1="144.756" x2="263.384" y2="133.324" gradientUnits="userSpaceOnUse">
<stop stop-color="#3ABAF9"/>
<stop offset="1" stop-color="#267EBD"/>
</linearGradient>
<linearGradient id="paint15_linear_41_1323" x1="35.3245" y1="229.957" x2="55.6414" y2="186.257" gradientUnits="userSpaceOnUse">
<stop stop-color="#FBFBFB"/>
<stop offset="1" stop-color="#E5E5E5"/>
</linearGradient>
<linearGradient id="paint16_linear_41_1323" x1="87.6354" y1="223.781" x2="148.362" y2="104.608" gradientUnits="userSpaceOnUse">
<stop stop-color="#FBFBFB"/>
<stop offset="1" stop-color="#E5E5E5"/>
</linearGradient>
<linearGradient id="paint17_linear_41_1323" x1="175.138" y1="155.676" x2="179.719" y2="190.822" gradientUnits="userSpaceOnUse">
<stop stop-color="#3ABAF9"/>
<stop offset="1" stop-color="#267EBD"/>
</linearGradient>
<linearGradient id="paint18_linear_41_1323" x1="175.149" y1="189.781" x2="172.672" y2="150.673" gradientUnits="userSpaceOnUse">
<stop stop-color="#3ABAF9"/>
<stop offset="1" stop-color="#267EBD"/>
</linearGradient>
<linearGradient id="paint19_linear_41_1323" x1="223.225" y1="197.941" x2="188.799" y2="217.151" gradientUnits="userSpaceOnUse">
<stop stop-color="#FFD4AE"/>
<stop offset="1" stop-color="#E5A26A"/>
</linearGradient>
<linearGradient id="paint20_linear_41_1323" x1="206.908" y1="190.117" x2="202.969" y2="193.551" gradientUnits="userSpaceOnUse">
<stop stop-color="#FFD4AE"/>
<stop offset="1" stop-color="#E5A26A"/>
</linearGradient>
<linearGradient id="paint21_linear_41_1323" x1="214.571" y1="190.544" x2="210.725" y2="193.787" gradientUnits="userSpaceOnUse">
<stop stop-color="#FFD4AE"/>
<stop offset="1" stop-color="#E5A26A"/>
</linearGradient>
<linearGradient id="paint22_linear_41_1323" x1="221.9" y1="191.949" x2="218.314" y2="195.26" gradientUnits="userSpaceOnUse">
<stop stop-color="#FFD4AE"/>
<stop offset="1" stop-color="#E5A26A"/>
</linearGradient>
<linearGradient id="paint23_linear_41_1323" x1="217.046" y1="265.703" x2="244.923" y2="251.427" gradientUnits="userSpaceOnUse">
<stop stop-color="#FBFBFB"/>
<stop offset="1" stop-color="#E5E5E5"/>
</linearGradient>
<linearGradient id="paint24_linear_41_1323" x1="249.8" y1="280.429" x2="227.137" y2="268.09" gradientUnits="userSpaceOnUse">
<stop stop-color="#FBFBFB"/>
<stop offset="1" stop-color="#E5E5E5"/>
</linearGradient>
<linearGradient id="paint25_linear_41_1323" x1="220.893" y1="285.824" x2="259.034" y2="266.296" gradientUnits="userSpaceOnUse">
<stop stop-color="#7F7F7F"/>
<stop offset="1" stop-color="#444444"/>
</linearGradient>
<linearGradient id="paint26_linear_41_1323" x1="262.762" y1="306.533" x2="231.806" y2="289.672" gradientUnits="userSpaceOnUse">
<stop stop-color="#7F7F7F"/>
<stop offset="1" stop-color="#444444"/>
</linearGradient>
<linearGradient id="paint27_linear_41_1323" x1="153.792" y1="11.3304" x2="121.475" y2="29.6172" gradientUnits="userSpaceOnUse">
<stop stop-color="#DD2F2F"/>
<stop offset="1" stop-color="#FF6757"/>
</linearGradient>
<linearGradient id="paint28_linear_41_1323" x1="115.19" y1="20.3507" x2="154.459" y2="18.3008" gradientUnits="userSpaceOnUse">
<stop stop-color="#DD2F2F"/>
<stop offset="1" stop-color="#FF6757"/>
</linearGradient>
<clipPath id="clip0_41_1323">
<rect width="304.855" height="326" fill="white"/>
</clipPath>
</defs>
</svg>
