<svg width="339" height="75" viewBox="0 0 339 75" fill="none" xmlns="http://www.w3.org/2000/svg">
<path d="M278.542 62.6602L235.131 7.70023L258.338 41.5702L231.198 6.74023L255.587 41.8002L227.944 6.94023L252.4 42.0702L225.648 8.73023L248.749 42.3802L224.457 11.7802L246.831 43.9602C246.87 44.0702 262.599 66.4402 262.599 66.4402C262.871 66.8302 263.326 67.0402 263.762 66.9702L277.98 64.5602C278.813 64.4202 279.114 63.3802 278.532 62.6602H278.542Z" fill="#ECDFCC"/>
<path d="M222.946 67.9604L218.093 63.2304C217.328 62.4904 217.299 61.2504 218.016 60.4704L245.794 30.1104C246.453 29.3904 247.538 29.2904 248.313 29.8904L255.606 35.5704C256.42 36.2104 257.582 36.0604 258.221 35.2404L274.115 14.9104C274.774 14.0704 275.965 13.9404 276.779 14.6204L281.971 18.9504C282.784 19.6304 282.91 20.8604 282.251 21.7004L260.003 50.1604C259.364 50.9804 258.202 51.1304 257.388 50.4904L249.494 44.3404C248.719 43.7404 247.644 43.8304 246.976 44.5604L225.629 67.9004C224.912 68.6904 223.711 68.7204 222.955 67.9804L222.946 67.9604Z" fill="#56A3A5"/>
<path d="M286.058 25.3004L289.099 5.25041C289.177 4.74041 288.692 4.34041 288.227 4.52041L269.892 11.8204C269.427 12.0104 269.331 12.6404 269.718 12.9704L285.012 25.7204C285.399 26.0404 285.98 25.8104 286.058 25.3004Z" fill="#56A3A5"/>
<path d="M49.8906 58.43L58.6562 13.25H78.5797C87.5293 13.25 91.2196 17.29 89.6408 25.37C88.3913 31.76 84.0328 36.29 76.5554 38.94L86.6673 58.49H77.1947L67.6639 38.78L68.4 34.95C75.9161 33.58 80.1488 30.47 81.0883 25.62C81.7373 22.29 80.2457 20.62 76.6135 20.62H65.4846L58.1622 58.43H49.8906Z" fill="#ECDFCC"/>
<path d="M118.146 58.5003H110.939L111.676 49.9603C108.16 55.6603 103.995 58.5003 99.1713 58.5003C91.6552 58.5003 88.9335 53.1103 91.016 42.3303C93.2243 30.9603 99.8881 25.2803 111.027 25.2803C114.765 25.2803 119.192 25.7303 124.296 26.6403L118.136 58.5003H118.146ZM114.988 32.8103C113.758 32.3003 111.714 32.0503 108.857 32.0503C103.646 32.0503 100.392 35.4603 99.0842 42.2703C97.8831 48.4503 98.8808 51.5403 102.087 51.5403C106.048 51.5403 109.709 48.6503 113.061 42.8703L114.988 32.8103Z" fill="#ECDFCC"/>
<path d="M132.238 25.2803H139.444L138.834 33.1903C142.282 27.9203 146.525 25.2803 151.552 25.2803C158.661 25.2803 161.228 30.3803 159.242 40.5903C156.937 52.5303 150.535 58.5003 140.055 58.5003C138.069 58.5003 136.054 58.4103 133.991 58.2203L131.599 70.5303H123.482L132.248 25.2803H132.238ZM135.425 50.8103C137.159 51.4203 139.26 51.7303 141.711 51.7303C146.612 51.7303 149.779 48.0503 151.213 40.6903C152.297 35.0603 151.029 32.2403 147.416 32.2403C144.065 32.2403 140.742 34.9203 137.459 40.2803L135.435 50.8203L135.425 50.8103Z" fill="#ECDFCC"/>
<path d="M176.464 25.2798L170.033 58.4998H161.916L168.347 25.2798H176.464ZM178.789 13.2598L177.5 19.8998H169.384L170.672 13.2598H178.789Z" fill="#ECDFCC"/>
<path d="M206.402 58.5H199.196L199.932 49.96C196.417 55.66 192.252 58.5 187.428 58.5C179.912 58.5 177.19 53.11 179.273 42.33C181.481 30.96 188.145 25.28 199.283 25.28C200.94 25.28 202.722 25.36 204.649 25.53L207.042 13.25H215.158L206.393 58.5H206.402ZM203.245 32.81C202.015 32.3 199.971 32.05 197.114 32.05C191.903 32.05 188.649 35.46 187.341 42.27C186.14 48.45 187.138 51.54 190.344 51.54C194.305 51.54 197.966 48.65 201.317 42.87L203.245 32.81Z" fill="#ECDFCC"/>
</svg>
