<svg width="350" height="75" viewBox="0 0 350 75" fill="none" xmlns="http://www.w3.org/2000/svg">
<path d="M287.58 62.66L242.76 7.7L266.72 41.57L238.7 6.74L263.88 41.8L235.34 6.94L260.59 42.07L232.97 8.73L256.82 42.38L231.74 11.78L254.84 43.96C254.88 44.07 271.12 66.44 271.12 66.44C271.4 66.83 271.87 67.04 272.32 66.97L287 64.56C287.86 64.42 288.17 63.38 287.57 62.66H287.58Z" fill="#224D6A"/>
<path d="M230.18 67.96L225.17 63.23C224.38 62.49 224.35 61.25 225.09 60.47L253.77 30.11C254.45 29.39 255.57 29.29 256.37 29.89L263.9 35.57C264.74 36.21 265.94 36.06 266.6 35.24L283.01 14.91C283.69 14.07 284.92 13.94 285.76 14.62L291.12 18.95C291.96 19.63 292.09 20.86 291.41 21.7L268.44 50.16C267.78 50.98 266.58 51.13 265.74 50.49L257.59 44.34C256.79 43.74 255.68 43.83 254.99 44.56L232.95 67.9C232.21 68.69 230.97 68.72 230.19 67.98L230.18 67.96Z" fill="#56A3A5"/>
<path d="M295.34 25.3L298.48 5.25C298.56 4.74 298.06 4.34 297.58 4.52L278.65 11.82C278.17 12.01 278.07 12.64 278.47 12.97L294.26 25.72C294.66 26.04 295.26 25.81 295.34 25.3Z" fill="#56A3A5"/>
<path d="M51.51 58.43L60.56 13.25H81.13C90.37 13.25 94.18 17.29 92.55 25.37C91.26 31.76 86.76 36.29 79.04 38.94L89.48 58.49H79.7L69.86 38.78L70.62 34.95C78.38 33.58 82.75 30.47 83.72 25.62C84.39 22.29 82.85 20.62 79.1 20.62H67.61L60.05 58.43H51.51Z" fill="#224D6A"/>
<path d="M121.98 58.5H114.54L115.3 49.96C111.67 55.66 107.37 58.5 102.39 58.5C94.63 58.5 91.82 53.11 93.97 42.33C96.25 30.96 103.13 25.28 114.63 25.28C118.49 25.28 123.06 25.73 128.33 26.64L121.97 58.5H121.98ZM118.72 32.81C117.45 32.3 115.34 32.05 112.39 32.05C107.01 32.05 103.65 35.46 102.3 42.27C101.06 48.45 102.09 51.54 105.4 51.54C109.49 51.54 113.27 48.65 116.73 42.87L118.72 32.81Z" fill="#224D6A"/>
<path d="M136.53 25.28H143.97L143.34 33.19C146.9 27.92 151.28 25.28 156.47 25.28C163.81 25.28 166.46 30.38 164.41 40.59C162.03 52.53 155.42 58.5 144.6 58.5C142.55 58.5 140.47 58.41 138.34 58.22L135.87 70.53H127.49L136.54 25.28H136.53ZM139.82 50.81C141.61 51.42 143.78 51.73 146.31 51.73C151.37 51.73 154.64 48.05 156.12 40.69C157.24 35.06 155.93 32.24 152.2 32.24C148.74 32.24 145.31 34.92 141.92 40.28L139.83 50.82L139.82 50.81Z" fill="#224D6A"/>
<path d="M182.19 25.28L175.55 58.5H167.17L173.81 25.28H182.19ZM184.59 13.26L183.26 19.9H174.88L176.21 13.26H184.59Z" fill="#224D6A"/>
<path d="M213.1 58.5H205.66L206.42 49.96C202.79 55.66 198.49 58.5 193.51 58.5C185.75 58.5 182.94 53.11 185.09 42.33C187.37 30.96 194.25 25.28 205.75 25.28C207.46 25.28 209.3 25.36 211.29 25.53L213.76 13.25H222.14L213.09 58.5H213.1ZM209.84 32.81C208.57 32.3 206.46 32.05 203.51 32.05C198.13 32.05 194.77 35.46 193.42 42.27C192.18 48.45 193.21 51.54 196.52 51.54C200.61 51.54 204.39 48.65 207.85 42.87L209.84 32.81Z" fill="#224D6A"/>
</svg>
